{
.appVersion = "1342";
copyright = "Copyright 2005-2021 The Allison Project Authors (https://github.com/googlefonts/allison)";
customParameters = (
{
name = licenseURL;
value = "https://scripts.sil.org/OFL";
},
{
name = license;
value = "This Font Software is licensed under the SIL Open Font License, Version 1.1. This license is available with a FAQ at: https://scripts.sil.org/OFL";
},
{
name = vendorID;
value = GOOG;
},
{
name = panose;
value = (
2,
0,
6,
3,
6,
0,
0,
2,
0,
3
);
},
{
name = fsType;
value = (
);
},
{
name = blueScale;
value = 0.02273;
},
{
name = glyphOrder;
value = (
.notdef,
CR,
NULL,
space,
nbspace
);
},
{
name = "Use Typo Metrics";
value = 1;
},
{
name = Axes;
value = (
{
Name = Weight;
Tag = wght;
}
);
}
);
date = "2021-06-29 20:51:27 +0000";
designer = "Robert E. Leuschke";
designerURL = www.typesetit.com;
disablesNiceNames = 1;
familyName = "Bonheur Royale";
featurePrefixes = (
{
automatic = 1;
code = "languagesystem DFLT dflt;\012\012languagesystem latn dflt;\012languagesystem latn AZE;\012languagesystem latn CRT;\012languagesystem latn KAZ;\012languagesystem latn TAT;\012languagesystem latn TRK;\012languagesystem latn ROM;\012languagesystem latn MOL;\012languagesystem latn CAT;\012";
name = Languagesystems;
}
);
features = (
{
automatic = 1;
code = "feature locl;\012feature sups;\012feature frac;\012feature ordn;\012";
name = aalt;
},
{
automatic = 1;

glyphs = (
{
glyphname = A;
lastChange = "2020-01-05 07:17:54 +0000";
layers = (
{
anchors = (
{
name = bottom;
position = "{246, -124}";
},
{
name = ogonek;
position = "{518, 10}";
},
{
name = top;
position = "{753, 699}";
}
);
hints = (
{
horizontal = 1;
place = "{62, 16}";
type = Stem;
},
{
horizontal = 1;
place = "{309, 21}";
target = up;
type = BottomGhost;
},
{
horizontal = 1;
place = "{554, 16}";
type = Stem;
},
{
place = "{443, 104}";
type = Stem;
}
);
layerId = "5758FC1C-8DB2-4040-8B3F-38A5D3FE42F4";
paths = (
{
closed = 1;
nodes = (
"568 309 OFFCURVE",
"593 360 OFFCURVE",
"619 410 CURVE SMOOTH",
"631 431 OFFCURVE",
"644 452 OFFCURVE",
"654 474 CURVE SMOOTH",
"658 483 OFFCURVE",
"656 487 OFFCURVE",
"664 493 CURVE",
"668 495 OFFCURVE",
"671 496 OFFCURVE",
"674 499 CURVE SMOOTH",
"695 519 OFFCURVE",
"718 579 OFFCURVE",
"729 607 CURVE",
"730 608 OFFCURVE",
"730 610 OFFCURVE",
"730 612 CURVE SMOOTH",
"730 619 OFFCURVE",
"725 620 OFFCURVE",
"719 620 CURVE SMOOTH",
"699 620 OFFCURVE",
"663 600 OFFCURVE",
"648 587 CURVE",
"643 584 OFFCURVE",
"640 580 OFFCURVE",
"636 576 CURVE SMOOTH",
"624 565 OFFCURVE",
"610 555 OFFCURVE",
"596 545 CURVE SMOOTH",
"569 523 OFFCURVE",
"542 500 OFFCURVE",
"515 478 CURVE SMOOTH",
"429 407 OFFCURVE",
"344 335 OFFCURVE",
"262 260 CURVE",
"206 263 OFFCURVE",
"21 264 OFFCURVE",
"21 176 CURVE SMOOTH",
"21 141 OFFCURVE",
"53 108 OFFCURVE",
"78 86 CURVE",
"9 16 OFFCURVE",
"-58 -54 OFFCURVE",
"-76 -155 CURVE",
"-76 -159 OFFCURVE",
"-77 -163 OFFCURVE",
"-77 -166 CURVE SMOOTH",
"-77 -181 OFFCURVE",
"-67 -204 OFFCURVE",
"-50 -204 CURVE SMOOTH",
"-40 -204 OFFCURVE",
"-37 -199 OFFCURVE",
"-37 -191 CURVE SMOOTH",
"-37 -180 OFFCURVE",
"-40 -170 OFFCURVE",
"-40 -160 CURVE SMOOTH",
"-40 -157 OFFCURVE",
"-40 -154 OFFCURVE",
"-40 -151 CURVE",
"-24 -61 OFFCURVE",
"41 10 OFFCURVE",
"101 75 CURVE",
"179 20 OFFCURVE",
"353 -13 OFFCURVE",
"447 -22 CURVE",
"453 -58 OFFCURVE",
"471 -72 OFFCURVE",
"506 -72 CURVE SMOOTH",
"523 -72 OFFCURVE",
"539 -66 OFFCURVE",
"553 -57 CURVE SMOOTH",
"562 -51 OFFCURVE",
"583 -24 OFFCURVE",
"583 -13 CURVE SMOOTH",
"583 -8 OFFCURVE",
"579 -8 OFFCURVE",
"575 -8 CURVE SMOOTH",
"565 -8 OFFCURVE",
"555 -9 OFFCURVE",
"545 -9 CURVE SMOOTH",
"528 -9 OFFCURVE",
"512 -8 OFFCURVE",
"496 -7 CURVE",
"495 -2 OFFCURVE",
"495 2 OFFCURVE",
"495 7 CURVE SMOOTH",
"495 79 OFFCURVE",
"508 150 OFFCURVE",
"534 217 CURVE",
"554 235 OFFCURVE",
"594 239 OFFCURVE",
"619 243 CURVE",
"621 244 OFFCURVE",
"633 246 OFFCURVE",
"633 250 CURVE SMOOTH",
"633 254 OFFCURVE",
"625 255 OFFCURVE",
"623 255 CURVE SMOOTH",
"598 257 OFFCURVE",
"572 256 OFFCURVE",
"547 256 CURVE"
);
},
{
closed = 1;
nodes = (
"628 531 OFFCURVE",
"629 531 OFFCURVE",
"629 530 CURVE SMOOTH",
"629 517 OFFCURVE",
"557 362 OFFCURVE",
"547 340 CURVE SMOOTH",
"536 313 OFFCURVE",
"524 285 OFFCURVE",
"514 257 CURVE",
"486 257 LINE",
"461 257 LINE",
"300 258 LINE",
"400 356 OFFCURVE",
"512 452 OFFCURVE",
"628 531 CURVE"
);
},
{
closed = 1;
nodes = (
"508 -26 OFFCURVE",
"518 -27 OFFCURVE",
"528 -27 CURVE SMOOTH",
"535 -27 OFFCURVE",
"542 -26 OFFCURVE",
"548 -26 CURVE",
"548 -27 LINE SMOOTH",
"548 -39 OFFCURVE",
"533 -54 OFFCURVE",
"521 -54 CURVE SMOOTH",
"506 -54 OFFCURVE",
"500 -38 OFFCURVE",
"498 -26 CURVE"
);
},
{
closed = 1;
nodes = (
"480 161 OFFCURVE",
"445 84 OFFCURVE",
"446 2 CURVE SMOOTH",
"446 -3 LINE",
"355 6 OFFCURVE",
"189 33 OFFCURVE",
"119 94 CURVE",
"157 133 OFFCURVE",
"203 167 OFFCURVE",
"246 201 CURVE SMOOTH",
"290 235 OFFCURVE",
"387 237 OFFCURVE",
"441 237 CURVE SMOOTH",
"462 237 OFFCURVE",
"484 236 OFFCURVE",
"506 236 CURVE"
);
},
{
closed = 1;
nodes = (
"187 190 OFFCURVE",
"140 149 OFFCURVE",
"96 105 CURVE",
"81 119 OFFCURVE",
"64 138 OFFCURVE",
"64 160 CURVE SMOOTH",
"64 216 OFFCURVE",
"171 234 OFFCURVE",
"212 234 CURVE SMOOTH",
"219 234 OFFCURVE",
"226 234 OFFCURVE",
"233 233 CURVE"
);
}
);
width = 575;
}
);
note = A;
unicode = 0041;
},
{
glyphname = Adieresis;
layers = (
{
hints = (
{
horizontal = 1;
place = "{-27, 18}";
type = Stem;
},
{
horizontal = 1;
place = "{237, 20}";
type = Stem;
},
{
place = "{-77, 40}";
type = Stem;
},
{
place = "{21, 43}";
type = Stem;
},
{
place = "{446, 49}";
type = Stem;
},
{
horizontal = 1;
place = "{-72, 18}";
type = Stem;
},
{
horizontal = 1;
place = "{-22, 21}";
target = up;
type = BottomGhost;
},
{
place = "{548, 35}";
type = Stem;
}
);
layerId = "5758FC1C-8DB2-4040-8B3F-38A5D3FE42F4";
paths = (
{
closed = 1;
nodes = (
"831 701 LINE",
"829 702 LINE",
"810 701 OFFCURVE",
"749 669 OFFCURVE",
"749 648 CURVE SMOOTH",
"749 642 OFFCURVE",
"751 630 OFFCURVE",
"759 630 CURVE SMOOTH",
"780 630 OFFCURVE",
"800 672 OFFCURVE",
"814 686 CURVE",
"817 688 OFFCURVE",
"831 698 OFFCURVE",
"831 700 CURVE",
"832 700 OFFCURVE",
"832 701 OFFCURVE",
"832 701 CURVE"
);
},
{
closed = 1;
nodes = (
"732 701 LINE",
"729 702 LINE",
"711 701 OFFCURVE",
"649 669 OFFCURVE",
"649 648 CURVE SMOOTH",
"649 642 OFFCURVE",
"652 630 OFFCURVE",
"659 630 CURVE SMOOTH",
"680 630 OFFCURVE",
"700 672 OFFCURVE",
"715 686 CURVE SMOOTH",
"717 688 OFFCURVE",
"731 698 OFFCURVE",
"732 700 CURVE",
"732 701 LINE"
);
},
{
closed = 1;
nodes = (
"568 309 OFFCURVE",
"593 360 OFFCURVE",
"619 410 CURVE SMOOTH",
"631 431 OFFCURVE",
"644 452 OFFCURVE",
"654 474 CURVE SMOOTH",
"658 483 OFFCURVE",
"656 487 OFFCURVE",
"664 493 CURVE",
"668 495 OFFCURVE",
"671 496 OFFCURVE",
"674 499 CURVE SMOOTH",
"695 519 OFFCURVE",
"718 579 OFFCURVE",
"729 607 CURVE",
"730 608 OFFCURVE",
"730 610 OFFCURVE",
"730 612 CURVE SMOOTH",
"730 619 OFFCURVE",
"725 620 OFFCURVE",
"719 620 CURVE SMOOTH",
"699 620 OFFCURVE",
"663 600 OFFCURVE",
"648 587 CURVE",
"643 584 OFFCURVE",
"640 580 OFFCURVE",
"636 576 CURVE SMOOTH",
"624 565 OFFCURVE",
"610 555 OFFCURVE",
"596 545 CURVE SMOOTH",
"569 523 OFFCURVE",
"542 500 OFFCURVE",
"515 478 CURVE SMOOTH",
"429 407 OFFCURVE",
"344 335 OFFCURVE",
"262 260 CURVE",
"206 263 OFFCURVE",
"21 264 OFFCURVE",
"21 176 CURVE SMOOTH",
"21 141 OFFCURVE",
"53 108 OFFCURVE",
"78 86 CURVE",
"9 16 OFFCURVE",
"-58 -54 OFFCURVE",
"-76 -155 CURVE",
"-76 -159 OFFCURVE",
"-77 -163 OFFCURVE",
"-77 -166 CURVE SMOOTH",
"-77 -181 OFFCURVE",
"-67 -204 OFFCURVE",
"-50 -204 CURVE SMOOTH",
"-40 -204 OFFCURVE",
"-37 -199 OFFCURVE",
"-37 -191 CURVE SMOOTH",
"-37 -180 OFFCURVE",
"-40 -170 OFFCURVE",
"-40 -160 CURVE SMOOTH",
"-40 -157 OFFCURVE",
"-40 -154 OFFCURVE",
"-40 -151 CURVE",
"-24 -61 OFFCURVE",
"41 10 OFFCURVE",
"101 75 CURVE",
"179 20 OFFCURVE",
"353 -13 OFFCURVE",
"447 -22 CURVE",
"453 -58 OFFCURVE",
"471 -72 OFFCURVE",
"506 -72 CURVE SMOOTH",
"523 -72 OFFCURVE",
"539 -66 OFFCURVE",
"553 -57 CURVE SMOOTH",
"562 -51 OFFCURVE",
"583 -24 OFFCURVE",
"583 -13 CURVE SMOOTH",
"583 -8 OFFCURVE",
"579 -8 OFFCURVE",
"574 -8 CURVE SMOOTH",
"565 -8 OFFCURVE",
"555 -9 OFFCURVE",
"545 -9 CURVE SMOOTH",
"528 -9 OFFCURVE",
"512 -8 OFFCURVE",
"496 -7 CURVE",
"495 -2 OFFCURVE",
"495 2 OFFCURVE",
"495 7 CURVE SMOOTH",
"495 79 OFFCURVE",
"508 150 OFFCURVE",
"534 217 CURVE",
"554 235 OFFCURVE",
"594 239 OFFCURVE",
"619 243 CURVE",
"621 244 OFFCURVE",
"633 246 OFFCURVE",
"633 250 CURVE SMOOTH",
"633 254 OFFCURVE",
"625 255 OFFCURVE",
"623 255 CURVE SMOOTH",
"598 257 OFFCURVE",
"572 256 OFFCURVE",
"547 256 CURVE"
);
},
{
closed = 1;
nodes = (
"629 530 LINE",
"629 517 OFFCURVE",
"557 362 OFFCURVE",
"547 340 CURVE SMOOTH",
"536 313 OFFCURVE",
"524 285 OFFCURVE",
"514 257 CURVE",
"486 257 LINE",
"461 257 LINE",
"300 258 LINE",
"400 356 OFFCURVE",
"512 452 OFFCURVE",
"628 531 CURVE"
);
},
{
closed = 1;
nodes = (
"508 -26 OFFCURVE",
"518 -27 OFFCURVE",
"528 -27 CURVE SMOOTH",
"535 -27 OFFCURVE",
"542 -26 OFFCURVE",
"548 -26 CURVE",
"548 -27 LINE SMOOTH",
"548 -39 OFFCURVE",
"533 -54 OFFCURVE",
"521 -54 CURVE SMOOTH",
"506 -54 OFFCURVE",
"500 -38 OFFCURVE",
"498 -26 CURVE"
);
},
{
closed = 1;
nodes = (
"480 161 OFFCURVE",
"445 84 OFFCURVE",
"446 2 CURVE SMOOTH",
"446 -3 LINE",
"355 6 OFFCURVE",
"189 33 OFFCURVE",
"119 94 CURVE",
"157 133 OFFCURVE",
"203 167 OFFCURVE",
"246 201 CURVE SMOOTH",
"290 235 OFFCURVE",
"387 237 OFFCURVE",
"441 237 CURVE SMOOTH",
"462 237 OFFCURVE",
"484 236 OFFCURVE",
"506 236 CURVE"
);
},
{
closed = 1;
nodes = (
"187 190 OFFCURVE",
"140 149 OFFCURVE",
"96 105 CURVE",
"81 119 OFFCURVE",
"64 138 OFFCURVE",
"64 160 CURVE SMOOTH",
"64 216 OFFCURVE",
"171 234 OFFCURVE",
"212 234 CURVE SMOOTH",
"219 234 OFFCURVE",
"226 234 OFFCURVE",
"233 233 CURVE"
);
}
);
width = 540;
}
);
note = Adieresis;
unicode = 00C4;
},
{
glyphname = Aring;
layers = (
{
hints = (
{
horizontal = 1;
place = "{62, 16}";
type = Stem;
},
{
horizontal = 1;
place = "{309, 21}";
target = up;
type = BottomGhost;
},
{
horizontal = 1;
place = "{554, 16}";
type = Stem;
},
{
place = "{443, 104}";
type = Stem;
}
);
layerId = "5758FC1C-8DB2-4040-8B3F-38A5D3FE42F4";
paths = (
{
closed = 1;
nodes = (
"755 608 OFFCURVE",
"784 641 OFFCURVE",
"784 675 CURVE SMOOTH",
"784 694 OFFCURVE",
"773 713 OFFCURVE",
"752 713 CURVE SMOOTH",
"734 713 OFFCURVE",
"716 701 OFFCURVE",
"708 686 CURVE",
"687 680 OFFCURVE",
"670 641 OFFCURVE",
"670 621 CURVE SMOOTH",
"670 615 OFFCURVE",
"672 610 OFFCURVE",
"675 605 CURVE",
"659 597 OFFCURVE",
"649 587 OFFCURVE",
"636 576 CURVE SMOOTH",
"624 565 OFFCURVE",
"610 555 OFFCURVE",
"596 545 CURVE SMOOTH",
"569 523 OFFCURVE",
"542 500 OFFCURVE",
"515 478 CURVE SMOOTH",
"429 407 OFFCURVE",
"344 335 OFFCURVE",
"262 260 CURVE",
"206 263 OFFCURVE",
"21 264 OFFCURVE",
"21 176 CURVE SMOOTH",
"21 141 OFFCURVE",
"53 108 OFFCURVE",
"78 86 CURVE",
"9 16 OFFCURVE",
"-58 -54 OFFCURVE",
"-76 -155 CURVE",
"-76 -159 OFFCURVE",
"-77 -163 OFFCURVE",
"-77 -166 CURVE SMOOTH",
"-77 -181 OFFCURVE",
"-67 -204 OFFCURVE",
"-50 -204 CURVE SMOOTH",
"-40 -204 OFFCURVE",
"-37 -199 OFFCURVE",
"-37 -191 CURVE SMOOTH",
"-37 -180 OFFCURVE",
"-40 -170 OFFCURVE",
"-40 -160 CURVE SMOOTH",
"-40 -157 OFFCURVE",
"-40 -154 OFFCURVE",
"-40 -151 CURVE",
"-24 -61 OFFCURVE",
"41 10 OFFCURVE",
"101 75 CURVE",
"179 20 OFFCURVE",
"353 -13 OFFCURVE",
"447 -22 CURVE",
"453 -58 OFFCURVE",
"471 -72 OFFCURVE",
"506 -72 CURVE SMOOTH",
"523 -72 OFFCURVE",
"539 -66 OFFCURVE",
"553 -57 CURVE SMOOTH",
"562 -51 OFFCURVE",
"583 -24 OFFCURVE",
"583 -13 CURVE SMOOTH",
"583 -8 OFFCURVE",
"579 -8 OFFCURVE",
"575 -8 CURVE SMOOTH",
"565 -8 OFFCURVE",
"555 -9 OFFCURVE",
"545 -9 CURVE SMOOTH",
"528 -9 OFFCURVE",
"512 -8 OFFCURVE",
"496 -7 CURVE",
"495 -2 OFFCURVE",
"495 2 OFFCURVE",
"495 7 CURVE SMOOTH",
"495 79 OFFCURVE",
"508 150 OFFCURVE",
"534 217 CURVE",
"554 235 OFFCURVE",
"594 239 OFFCURVE",
"619 243 CURVE",
"621 244 OFFCURVE",
"633 246 OFFCURVE",
"633 250 CURVE SMOOTH",
"633 254 OFFCURVE",
"625 255 OFFCURVE",
"623 255 CURVE SMOOTH",
"598 257 OFFCURVE",
"572 256 OFFCURVE",
"547 256 CURVE",
"568 309 OFFCURVE",
"593 360 OFFCURVE",
"619 410 CURVE SMOOTH",
"631 432 OFFCURVE",
"643 453 OFFCURVE",
"654 474 CURVE SMOOTH",
"658 482 OFFCURVE",
"657 488 OFFCURVE",
"664 493 CURVE SMOOTH",
"694 510 OFFCURVE",
"711 566 OFFCURVE",
"725 597 CURVE"
);
},
{
closed = 1;
nodes = (
"764 651 OFFCURVE",
"749 625 OFFCURVE",
"730 614 CURVE",
"729 619 OFFCURVE",
"724 620 OFFCURVE",
"719 620 CURVE SMOOTH",
"713 620 OFFCURVE",
"707 619 OFFCURVE",
"701 617 CURVE",
"701 619 OFFCURVE",
"701 620 OFFCURVE",
"701 622 CURVE SMOOTH",
"701 649 OFFCURVE",
"722 661 OFFCURVE",
"732 683 CURVE",
"724 687 LINE",
"731 692 OFFCURVE",
"739 698 OFFCURVE",
"749 698 CURVE SMOOTH",
"761 698 OFFCURVE",
"764 684 OFFCURVE",
"764 674 CURVE SMOOTH"
);
},
{
closed = 1;
nodes = (
"628 531 OFFCURVE",
"629 531 OFFCURVE",
"629 530 CURVE SMOOTH",
"629 517 OFFCURVE",
"557 362 OFFCURVE",
"547 340 CURVE SMOOTH",
"536 313 OFFCURVE",
"524 285 OFFCURVE",
"514 257 CURVE",
"486 257 LINE",
"461 257 LINE",
"300 258 LINE",
"400 356 OFFCURVE",
"512 452 OFFCURVE",
"628 531 CURVE"
);
},
{
closed = 1;
nodes = (
"508 -26 OFFCURVE",
"518 -27 OFFCURVE",
"528 -27 CURVE SMOOTH",
"535 -27 OFFCURVE",
"542 -26 OFFCURVE",
"548 -26 CURVE",
"548 -27 LINE SMOOTH",
"548 -39 OFFCURVE",
"533 -54 OFFCURVE",
"521 -54 CURVE SMOOTH",
"506 -54 OFFCURVE",
"500 -38 OFFCURVE",
"498 -26 CURVE"
);
},
{
closed = 1;
nodes = (
"480 161 OFFCURVE",
"445 84 OFFCURVE",
"446 2 CURVE SMOOTH",
"446 -3 LINE",
"355 6 OFFCURVE",
"189 33 OFFCURVE",
"119 94 CURVE",
"157 133 OFFCURVE",
"203 167 OFFCURVE",
"246 201 CURVE SMOOTH",
"290 235 OFFCURVE",
"387 237 OFFCURVE",
"441 237 CURVE SMOOTH",
"462 237 OFFCURVE",
"484 236 OFFCURVE",
"506 236 CURVE"
);
},
{
closed = 1;
nodes = (
"187 190 OFFCURVE",
"140 149 OFFCURVE",
"96 105 CURVE",
"81 119 OFFCURVE",
"64 138 OFFCURVE",
"64 160 CURVE SMOOTH",
"64 216 OFFCURVE",
"171 234 OFFCURVE",
"212 234 CURVE SMOOTH",
"219 234 OFFCURVE",
"226 234 OFFCURVE",
"233 233 CURVE"
);
}
);
width = 575;
}
);
note = Aring;
unicode = 00C5;
},
{
glyphname = AE;
layers = (
{
hints = (
{
horizontal = 1;
place = "{309, 16}";
type = Stem;
},
{
place = "{-27, 58}";
type = Stem;
},
{
place = "{72, 59}";
type = Stem;
}
);
layerId = "5758FC1C-8DB2-4040-8B3F-38A5D3FE42F4";
paths = (
{
closed = 1;
nodes = (
"1208 562 OFFCURVE",
"1233 613 OFFCURVE",
"1233 625 CURVE SMOOTH",
"1233 629 OFFCURVE",
"1232 637 OFFCURVE",
"1226 637 CURVE SMOOTH",
"1219 637 OFFCURVE",
"1213 627 OFFCURVE",
"1213 620 CURVE SMOOTH",
"1213 609 OFFCURVE",
"1194 580 OFFCURVE",
"1186 570 CURVE",
"1164 604 OFFCURVE",
"1099 617 OFFCURVE",
"1061 617 CURVE SMOOTH",
"1058 617 OFFCURVE",
"1054 617 OFFCURVE",
"1051 616 CURVE",
"901 607 OFFCURVE",
"760 550 OFFCURVE",
"644 456 CURVE",
"649 464 OFFCURVE",
"658 489 OFFCURVE",
"664 493 CURVE SMOOTH",
"669 496 OFFCURVE",
"672 497 OFFCURVE",
"676 502 CURVE SMOOTH",
"697 524 OFFCURVE",
"717 577 OFFCURVE",
"729 607 CURVE",
"730 608 OFFCURVE",
"730 610 OFFCURVE",
"730 612 CURVE SMOOTH",
"730 619 OFFCURVE",
"725 620 OFFCURVE",
"719 620 CURVE SMOOTH",
"698 620 OFFCURVE",
"661 599 OFFCURVE",
"645 585 CURVE SMOOTH",
"636 577 OFFCURVE",
"646 584 OFFCURVE",
"636 576 CURVE SMOOTH",
"624 565 OFFCURVE",
"610 555 OFFCURVE",
"596 545 CURVE SMOOTH",
"569 523 OFFCURVE",
"542 500 OFFCURVE",
"515 478 CURVE SMOOTH",
"429 407 OFFCURVE",
"344 335 OFFCURVE",
"262 260 CURVE",
"206 263 OFFCURVE",
"21 264 OFFCURVE",
"21 176 CURVE SMOOTH",
"21 141 OFFCURVE",
"53 108 OFFCURVE",
"78 86 CURVE",
"9 16 OFFCURVE",
"-58 -54 OFFCURVE",
"-76 -155 CURVE",
"-76 -159 OFFCURVE",
"-77 -163 OFFCURVE",
"-77 -166 CURVE SMOOTH",
"-77 -181 OFFCURVE",
"-67 -204 OFFCURVE",
"-50 -204 CURVE SMOOTH",
"-40 -204 OFFCURVE",
"-37 -199 OFFCURVE",
"-37 -191 CURVE SMOOTH",
"-37 -180 OFFCURVE",
"-40 -170 OFFCURVE",
"-40 -160 CURVE SMOOTH",
"-40 -157 OFFCURVE",
"-40 -154 OFFCURVE",
"-40 -151 CURVE",
"-24 -61 OFFCURVE",
"41 10 OFFCURVE",
"101 75 CURVE",
"160 34 OFFCURVE",
"278 4 OFFCURVE",
"349 -8 CURVE",
"352 -9 OFFCURVE",
"356 -9 OFFCURVE",
"360 -9 CURVE SMOOTH",
"362 -9 OFFCURVE",
"370 -9 OFFCURVE",
"370 -5 CURVE SMOOTH",
"370 1 OFFCURVE",
"358 4 OFFCURVE",
"355 5 CURVE SMOOTH",
"340 8 OFFCURVE",
"325 11 OFFCURVE",
"310 14 CURVE SMOOTH",
"250 27 OFFCURVE",
"165 53 OFFCURVE",
"119 94 CURVE",
"157 133 OFFCURVE",
"203 166 OFFCURVE",
"246 201 CURVE SMOOTH",
"280 228 OFFCURVE",
"429 237 OFFCURVE",
"474 240 CURVE",
"461 208 OFFCURVE",
"452 174 OFFCURVE",
"452 139 CURVE SMOOTH",
"452 7 OFFCURVE",
"583 -39 OFFCURVE",
"696 -39 CURVE SMOOTH",
"792 -39 OFFCURVE",
"1067 21 OFFCURVE",
"1127 96 CURVE",
"1127 97 OFFCURVE",
"1128 99 OFFCURVE",
"1128 100 CURVE SMOOTH",
"1128 103 OFFCURVE",
"1127 105 OFFCURVE",
"1127 107 CURVE SMOOTH",
"1127 119 OFFCURVE",
"1168 145 OFFCURVE",
"1168 152 CURVE SMOOTH",
"1168 153 OFFCURVE",
"1168 155 OFFCURVE",
"1167 155 CURVE SMOOTH",
"1163 155 OFFCURVE",
"1155 148 OFFCURVE",
"1153 146 CURVE SMOOTH",
"1036 58 OFFCURVE",
"875 -22 OFFCURVE",
"727 -22 CURVE SMOOTH",
"623 -22 OFFCURVE",
"523 19 OFFCURVE",
"523 137 CURVE SMOOTH",
"523 174 OFFCURVE",
"533 210 OFFCURVE",
"547 244 CURVE",
"649 249 OFFCURVE",
"752 252 OFFCURVE",
"855 254 CURVE SMOOTH",
"891 255 OFFCURVE",
"927 256 OFFCURVE",
"963 258 CURVE SMOOTH",
"979 259 OFFCURVE",
"998 258 OFFCURVE",
"1013 262 CURVE SMOOTH",
"1020 263 OFFCURVE",
"1038 271 OFFCURVE",
"1038 279 CURVE SMOOTH",
"1038 284 OFFCURVE",
"1029 283 OFFCURVE",
"1026 283 CURVE SMOOTH",
"871 283 OFFCURVE",
"715 276 OFFCURVE",
"560 273 CURVE",
"647 446 OFFCURVE",
"858 596 OFFCURVE",
"1055 596 CURVE SMOOTH",
"1101 596 OFFCURVE",
"1142 581 OFFCURVE",
"1166 539 CURVE",
"1155 521 OFFCURVE",
"1129 482 OFFCURVE",
"1129 461 CURVE SMOOTH",
"1129 452 OFFCURVE",
"1138 451 OFFCURVE",
"1146 451 CURVE SMOOTH",
"1156 451 OFFCURVE",
"1163 454 OFFCURVE",
"1170 461 CURVE SMOOTH",
"1175 467 OFFCURVE",
"1187 483 OFFCURVE",
"1187 492 CURVE SMOOTH",
"1187 497 OFFCURVE",
"1190 502 OFFCURVE",
"1192 506 CURVE",
"1195 502 OFFCURVE",
"1206 478 OFFCURVE",
"1206 478 CURVE",
"1214 481 OFFCURVE",
"1218 499 OFFCURVE",
"1218 506 CURVE SMOOTH",
"1218 517 OFFCURVE",
"1207 539 OFFCURVE",
"1201 549 CURVE"
);
},
{
closed = 1;
nodes = (
"628 531 OFFCURVE",
"629 531 OFFCURVE",
"629 530 CURVE SMOOTH",
"629 521 OFFCURVE",
"565 384 OFFCURVE",
"559 374 CURVE SMOOTH",
"554 365 OFFCURVE",
"545 358 OFFCURVE",
"539 349 CURVE SMOOTH",
"520 326 OFFCURVE",
"504 300 OFFCURVE",
"490 274 CURVE",
"426 272 OFFCURVE",
"363 258 OFFCURVE",
"300 258 CURVE",
"400 356 OFFCURVE",
"512 452 OFFCURVE",
"628 531 CURVE"
);
},
{
closed = 1;
nodes = (
"187 190 OFFCURVE",
"140 149 OFFCURVE",
"96 105 CURVE",
"81 119 OFFCURVE",
"64 138 OFFCURVE",
"64 160 CURVE SMOOTH",
"64 216 OFFCURVE",
"171 234 OFFCURVE",
"212 234 CURVE SMOOTH",
"219 234 OFFCURVE",
"226 234 OFFCURVE",
"233 233 CURVE"
);
}
);
width = 1168;
}
);
note = AE;
unicode = 00C6;
},
{
glyphname = B;
layers = (
{
hints = (
{
horizontal = 1;
place = "{337, 11}";
type = Stem;
},
{
horizontal = 1;
place = "{549, 11}";
type = Stem;
},
{
place = "{355, 44}";
type = Stem;
}
);
layerId = "5758FC1C-8DB2-4040-8B3F-38A5D3FE42F4";
paths = (
{
closed = 1;
nodes = (
"642 116 OFFCURVE",
"637 129 OFFCURVE",
"624 138 CURVE",
"627 147 OFFCURVE",
"629 156 OFFCURVE",
"629 165 CURVE SMOOTH",
"629 207 OFFCURVE",
"593 232 OFFCURVE",
"559 248 CURVE SMOOTH",
"536 258 OFFCURVE",
"515 261 OFFCURVE",
"491 262 CURVE",
"587 269 OFFCURVE",
"762 385 OFFCURVE",
"762 491 CURVE SMOOTH",
"762 581 OFFCURVE",
"629 601 OFFCURVE",
"564 606 CURVE",
"567 610 OFFCURVE",
"578 620 OFFCURVE",
"578 625 CURVE SMOOTH",
"578 633 OFFCURVE",
"562 634 OFFCURVE",
"558 634 CURVE SMOOTH",
"542 634 OFFCURVE",
"518 628 OFFCURVE",
"505 618 CURVE",
"505 617 OFFCURVE",
"500 610 OFFCURVE",
"499 609 CURVE",
"362 611 OFFCURVE",
"135 582 OFFCURVE",
"43 468 CURVE SMOOTH",
"23 443 OFFCURVE",
"9 412 OFFCURVE",
"9 380 CURVE SMOOTH",
"9 349 OFFCURVE",
"26 307 OFFCURVE",
"63 307 CURVE SMOOTH",
"65 307 OFFCURVE",
"67 307 OFFCURVE",
"67 309 CURVE SMOOTH",
"67 318 OFFCURVE",
"41 323 OFFCURVE",
"41 355 CURVE SMOOTH",
"41 390 OFFCURVE",
"68 431 OFFCURVE",
"90 456 CURVE SMOOTH",
"177 554 OFFCURVE",
"324 588 OFFCURVE",
"450 588 CURVE SMOOTH",
"461 588 OFFCURVE",
"471 588 OFFCURVE",
"482 587 CURVE",
"473 575 OFFCURVE",
"441 543 OFFCURVE",
"443 527 CURVE",
"356 416 OFFCURVE",
"97 53 OFFCURVE",
"97 -73 CURVE SMOOTH",
"97 -102 OFFCURVE",
"111 -118 OFFCURVE",
"141 -118 CURVE SMOOTH",
"153 -118 OFFCURVE",
"218 -105 OFFCURVE",
"218 -96 CURVE SMOOTH",
"218 -94 OFFCURVE",
"211 -94 OFFCURVE",
"211 -94 CURVE",
"199 -94 OFFCURVE",
"188 -99 OFFCURVE",
"176 -99 CURVE SMOOTH",
"161 -99 OFFCURVE",
"159 -81 OFFCURVE",
"159 -70 CURVE SMOOTH",
"159 -51 OFFCURVE",
"164 -30 OFFCURVE",
"170 -12 CURVE SMOOTH",
"226 183 OFFCURVE",
"410 427 OFFCURVE",
"543 582 CURVE",
"600 573 OFFCURVE",
"700 549 OFFCURVE",
"700 474 CURVE SMOOTH",
"700 393 OFFCURVE",
"589 323 OFFCURVE",
"522 297 CURVE SMOOTH",
"487 283 OFFCURVE",
"450 275 OFFCURVE",
"413 272 CURVE SMOOTH",
"404 271 OFFCURVE",
"341 267 OFFCURVE",
"341 252 CURVE SMOOTH",
"341 238 OFFCURVE",
"385 236 OFFCURVE",
"393 236 CURVE SMOOTH",
"418 236 OFFCURVE",
"444 241 OFFCURVE",
"467 251 CURVE",
"511 246 OFFCURVE",
"562 231 OFFCURVE",
"562 177 CURVE SMOOTH",
"562 169 OFFCURVE",
"560 161 OFFCURVE",
"558 154 CURVE",
"504 153 OFFCURVE",
"406 133 OFFCURVE",
"355 110 CURVE SMOOTH",
"309 89 OFFCURVE",
"219 34 OFFCURVE",
"219 -26 CURVE SMOOTH",
"219 -61 OFFCURVE",
"256 -70 OFFCURVE",
"285 -70 CURVE SMOOTH",
"389 -70 OFFCURVE",
"567 27 OFFCURVE",
"616 119 CURVE",
"627 111 OFFCURVE",
"629 103 OFFCURVE",
"630 91 CURVE",
"631 89 OFFCURVE",
"631 82 OFFCURVE",
"634 82 CURVE SMOOTH",
"640 82 OFFCURVE",
"642 98 OFFCURVE",
"642 101 CURVE SMOOTH"
);
},
{
closed = 1;
nodes = (
"517 59 OFFCURVE",
"390 -45 OFFCURVE",
"305 -45 CURVE SMOOTH",
"286 -45 OFFCURVE",
"265 -38 OFFCURVE",
"265 -16 CURVE SMOOTH",
"265 24 OFFCURVE",
"323 67 OFFCURVE",
"354 85 CURVE SMOOTH",
"402 113 OFFCURVE",
"496 134 OFFCURVE",
"551 135 CURVE"
);
}
);
width = 662;
}
);
note = B;
unicode = 0042;
},
{
glyphname = C;
layers = (
{
hints = (
{
horizontal = 1;
place = "{10, 21}";
type = Stem;
},
{
horizontal = 1;
place = "{544, 14}";
type = Stem;
},
{
place = "{21, 44}";
type = Stem;
}
);
layerId = "5758FC1C-8DB2-4040-8B3F-38A5D3FE42F4";
paths = (
{
closed = 1;
nodes = (
"760 562 OFFCURVE",
"786 613 OFFCURVE",
"786 625 CURVE SMOOTH",
"786 629 OFFCURVE",
"785 637 OFFCURVE",
"779 637 CURVE SMOOTH",
"772 637 OFFCURVE",
"766 627 OFFCURVE",
"766 620 CURVE SMOOTH",
"766 609 OFFCURVE",
"747 580 OFFCURVE",
"739 570 CURVE",
"717 604 OFFCURVE",
"652 617 OFFCURVE",
"614 617 CURVE SMOOTH",
"611 617 OFFCURVE",
"607 617 OFFCURVE",
"604 616 CURVE",
"530 611 OFFCURVE",
"460 596 OFFCURVE",
"391 569 CURVE SMOOTH",
"336 548 OFFCURVE",
"283 519 OFFCURVE",
"235 485 CURVE SMOOTH",
"131 411 OFFCURVE",
"5 275 OFFCURVE",
"5 139 CURVE SMOOTH",
"5 -6 OFFCURVE",
"152 -40 OFFCURVE",
"270 -40 CURVE SMOOTH",
"409 -40 OFFCURVE",
"533 6 OFFCURVE",
"647 84 CURVE SMOOTH",
"669 98 OFFCURVE",
"692 114 OFFCURVE",
"711 131 CURVE SMOOTH",
"716 135 OFFCURVE",
"721 143 OFFCURVE",
"721 149 CURVE SMOOTH",
"721 151 OFFCURVE",
"720 152 OFFCURVE",
"718 152 CURVE SMOOTH",
"714 152 OFFCURVE",
"709 148 OFFCURVE",
"706 146 CURVE SMOOTH",
"588 58 OFFCURVE",
"430 -22 OFFCURVE",
"279 -22 CURVE SMOOTH",
"176 -22 OFFCURVE",
"76 19 OFFCURVE",
"76 137 CURVE SMOOTH",
"76 263 OFFCURVE",
"184 396 OFFCURVE",
"278 470 CURVE SMOOTH",
"320 502 OFFCURVE",
"365 530 OFFCURVE",
"413 551 CURVE SMOOTH",
"472 577 OFFCURVE",
"532 591 OFFCURVE",
"596 595 CURVE",
"600 596 OFFCURVE",
"604 596 OFFCURVE",
"608 596 CURVE SMOOTH",
"654 596 OFFCURVE",
"695 581 OFFCURVE",
"719 539 CURVE",
"703 514 OFFCURVE",
"631 437 OFFCURVE",
"631 417 CURVE SMOOTH",
"631 410 OFFCURVE",
"668 405 OFFCURVE",
"674 405 CURVE SMOOTH",
"681 405 OFFCURVE",
"689 406 OFFCURVE",
"694 411 CURVE SMOOTH",
"715 434 OFFCURVE",
"731 479 OFFCURVE",
"745 506 CURVE",
"748 502 OFFCURVE",
"759 478 OFFCURVE",
"759 478 CURVE",
"767 482 OFFCURVE",
"771 498 OFFCURVE",
"771 506 CURVE SMOOTH",
"771 517 OFFCURVE",
"760 539 OFFCURVE",
"754 549 CURVE"
);
}
);
width = 682;
}
);
note = C;
unicode = 0043;
},
{
glyphname = Ccedilla;
layers = (
{
hints = (
{
horizontal = 1;
place = "{10, 21}";
type = Stem;
},
{
horizontal = 1;
place = "{544, 14}";
type = Stem;
},
{
place = "{21, 44}";
type = Stem;
}
);
layerId = "5758FC1C-8DB2-4040-8B3F-38A5D3FE42F4";
paths = (
{
closed = 1;
nodes = (
"761 562 OFFCURVE",
"786 613 OFFCURVE",
"786 625 CURVE SMOOTH",
"786 629 OFFCURVE",
"785 637 OFFCURVE",
"779 637 CURVE SMOOTH",
"772 637 OFFCURVE",
"766 627 OFFCURVE",
"766 620 CURVE SMOOTH",
"766 609 OFFCURVE",
"747 580 OFFCURVE",
"739 570 CURVE",
"717 604 OFFCURVE",
"652 617 OFFCURVE",
"614 617 CURVE SMOOTH",
"611 617 OFFCURVE",
"607 617 OFFCURVE",
"604 616 CURVE",
"530 611 OFFCURVE",
"460 596 OFFCURVE",
"391 569 CURVE SMOOTH",
"336 548 OFFCURVE",
"283 519 OFFCURVE",
"235 485 CURVE SMOOTH",
"131 412 OFFCURVE",
"5 275 OFFCURVE",
"5 139 CURVE SMOOTH",
"5 28 OFFCURVE",
"94 -21 OFFCURVE",
"192 -35 CURVE",
"169 -47 OFFCURVE",
"153 -78 OFFCURVE",
"153 -104 CURVE SMOOTH",
"153 -134 OFFCURVE",
"189 -162 OFFCURVE",
"189 -186 CURVE SMOOTH",
"189 -250 OFFCURVE",
"136 -234 OFFCURVE",
"95 -245 CURVE",
"93 -246 OFFCURVE",
"87 -248 OFFCURVE",
"87 -252 CURVE SMOOTH",
"87 -256 OFFCURVE",
"89 -261 OFFCURVE",
"94 -261 CURVE SMOOTH",
"148 -261 OFFCURVE",
"224 -235 OFFCURVE",
"224 -171 CURVE SMOOTH",
"224 -138 OFFCURVE",
"184 -113 OFFCURVE",
"184 -86 CURVE SMOOTH",
"184 -67 OFFCURVE",
"199 -45 OFFCURVE",
"217 -37 CURVE",
"234 -39 OFFCURVE",
"252 -40 OFFCURVE",
"270 -40 CURVE SMOOTH",
"409 -40 OFFCURVE",
"533 6 OFFCURVE",
"647 84 CURVE SMOOTH",
"669 98 OFFCURVE",
"692 114 OFFCURVE",
"711 131 CURVE SMOOTH",
"716 135 OFFCURVE",
"721 143 OFFCURVE",
"721 149 CURVE SMOOTH",
"721 151 OFFCURVE",
"720 152 OFFCURVE",
"718 152 CURVE SMOOTH",
"714 152 OFFCURVE",
"709 148 OFFCURVE",
"706 146 CURVE SMOOTH",
"588 58 OFFCURVE",
"430 -22 OFFCURVE",
"279 -22 CURVE SMOOTH",
"176 -22 OFFCURVE",
"76 19 OFFCURVE",
"76 137 CURVE SMOOTH",
"76 263 OFFCURVE",
"184 396 OFFCURVE",
"278 470 CURVE SMOOTH",
"320 502 OFFCURVE",
"365 530 OFFCURVE",
"413 551 CURVE SMOOTH",
"472 577 OFFCURVE",
"532 591 OFFCURVE",
"596 595 CURVE",
"600 596 OFFCURVE",
"604 596 OFFCURVE",
"608 596 CURVE SMOOTH",
"654 596 OFFCURVE",
"695 581 OFFCURVE",
"719 539 CURVE",
"703 514 OFFCURVE",
"631 437 OFFCURVE",
"631 417 CURVE SMOOTH",
"631 410 OFFCURVE",
"668 405 OFFCURVE",
"674 405 CURVE SMOOTH",
"681 405 OFFCURVE",
"688 406 OFFCURVE",
"694 411 CURVE",
"714 433 OFFCURVE",
"731 480 OFFCURVE",
"745 506 CURVE",
"748 502 OFFCURVE",
"759 478 OFFCURVE",
"759 478 CURVE",
"767 481 OFFCURVE",
"771 499 OFFCURVE",
"771 506 CURVE SMOOTH",
"771 517 OFFCURVE",
"760 539 OFFCURVE",
"754 549 CURVE"
);
}
);
width = 682;
}
);
note = Ccedilla;
unicode = 00C7;
},
{
glyphname = D;
layers = (
{
hints = (
{
horizontal = 1;
place = "{500, 13}";
type = Stem;
},
{
place = "{1353, 45}";
type = Stem;
}
);
layerId = "5758FC1C-8DB2-4040-8B3F-38A5D3FE42F4";
paths = (
{
closed = 1;
nodes = (
"630 610 OFFCURVE",
"641 620 OFFCURVE",
"641 625 CURVE SMOOTH",
"641 634 OFFCURVE",
"624 635 OFFCURVE",
"618 635 CURVE SMOOTH",
"603 635 OFFCURVE",
"572 629 OFFCURVE",
"564 613 CURVE",
"541 615 OFFCURVE",
"518 616 OFFCURVE",
"494 616 CURVE SMOOTH",
"437 616 OFFCURVE",
"379 611 OFFCURVE",
"323 602 CURVE SMOOTH",
"239 588 OFFCURVE",
"37 540 OFFCURVE",
"37 426 CURVE SMOOTH",
"37 370 OFFCURVE",
"92 319 OFFCURVE",
"135 291 CURVE SMOOTH",
"139 289 OFFCURVE",
"145 286 OFFCURVE",
"150 286 CURVE SMOOTH",
"152 286 OFFCURVE",
"154 286 OFFCURVE",
"154 288 CURVE SMOOTH",
"154 295 OFFCURVE",
"85 338 OFFCURVE",
"85 405 CURVE SMOOTH",
"85 515 OFFCURVE",
"245 567 OFFCURVE",
"331 582 CURVE SMOOTH",
"383 591 OFFCURVE",
"437 596 OFFCURVE",
"490 596 CURVE SMOOTH",
"510 596 OFFCURVE",
"529 595 OFFCURVE",
"549 594 CURVE",
"539 581 OFFCURVE",
"505 545 OFFCURVE",
"507 529 CURVE",
"484 503 OFFCURVE",
"464 474 OFFCURVE",
"443 446 CURVE SMOOTH",
"405 393 OFFCURVE",
"367 339 OFFCURVE",
"331 284 CURVE",
"253 264 OFFCURVE",
"142 226 OFFCURVE",
"83 170 CURVE SMOOTH",
"59 148 OFFCURVE",
"31 117 OFFCURVE",
"31 82 CURVE SMOOTH",
"31 20 OFFCURVE",
"120 -11 OFFCURVE",
"169 -22 CURVE",
"164 -38 OFFCURVE",
"161 -54 OFFCURVE",
"161 -70 CURVE SMOOTH",
"161 -99 OFFCURVE",
"174 -115 OFFCURVE",
"204 -115 CURVE SMOOTH",
"225 -115 OFFCURVE",
"255 -106 OFFCURVE",
"273 -98 CURVE SMOOTH",
"287 -91 OFFCURVE",
"303 -74 OFFCURVE",
"306 -59 CURVE SMOOTH",
"306 -58 OFFCURVE",
"307 -57 OFFCURVE",
"307 -56 CURVE SMOOTH",
"307 -54 OFFCURVE",
"306 -53 OFFCURVE",
"305 -53 CURVE SMOOTH",
"297 -53 OFFCURVE",
"268 -95 OFFCURVE",
"241 -95 CURVE SMOOTH",
"226 -95 OFFCURVE",
"224 -77 OFFCURVE",
"224 -66 CURVE SMOOTH",
"224 -55 OFFCURVE",
"226 -44 OFFCURVE",
"228 -32 CURVE",
"246 -34 OFFCURVE",
"264 -35 OFFCURVE",
"281 -35 CURVE SMOOTH",
"382 -35 OFFCURVE",
"493 -10 OFFCURVE",
"586 29 CURVE SMOOTH",
"715 84 OFFCURVE",
"926 199 OFFCURVE",
"926 364 CURVE SMOOTH",
"926 514 OFFCURVE",
"751 585 OFFCURVE",
"626 606 CURVE"
);
},
{
closed = 1;
nodes = (
"561 330 OFFCURVE",
"473 317 OFFCURVE",
"390 299 CURVE",
"456 399 OFFCURVE",
"531 495 OFFCURVE",
"610 587 CURVE",
"716 570 OFFCURVE",
"883 510 OFFCURVE",
"883 379 CURVE SMOOTH",
"883 233 OFFCURVE",
"672 121 OFFCURVE",
"561 70 CURVE SMOOTH",
"469 28 OFFCURVE",
"342 -11 OFFCURVE",
"239 -11 CURVE SMOOTH",
"233 -11 LINE",
"259 85 OFFCURVE",
"319 190 OFFCURVE",
"372 272 CURVE",
"462 299 OFFCURVE",
"552 316 OFFCURVE",
"645 323 CURVE SMOOTH",
"646 323 OFFCURVE",
"656 324 OFFCURVE",
"656 328 CURVE SMOOTH",
"656 330 OFFCURVE",
"647 330 OFFCURVE",
"647 330 CURVE"
);
},
{
closed = 1;
nodes = (
"260 172 OFFCURVE",
"206 87 OFFCURVE",
"175 -4 CURVE",
"134 6 OFFCURVE",
"79 35 OFFCURVE",
"79 84 CURVE SMOOTH",
"79 166 OFFCURVE",
"246 230 OFFCURVE",
"311 253 CURVE"
);
}
);
width = 905;
}
);
note = D;
unicode = 0044;
},
{
glyphname = Eth;
lastChange = "2020-01-05 08:02:05 +0000";
layers = (
{
hints = (
{
horizontal = 1;
place = "{500, 13}";
type = Stem;
},
{
place = "{1353, 45}";
type = Stem;
},
{
horizontal = 1;
place = "{145.423, 44.846}";
type = Stem;
}
);
layerId = "5758FC1C-8DB2-4040-8B3F-38A5D3FE42F4";
paths = (
{
closed = 1;
nodes = (
"58 58 OFFCURVE",
"54 38 OFFCURVE",
"71 18 CURVE",
"101 -3 OFFCURVE",
"141 -16 OFFCURVE",
"169 -22 CURVE",
"164 -38 OFFCURVE",
"161 -54 OFFCURVE",
"161 -70 CURVE SMOOTH",
"161 -99 OFFCURVE",
"174 -115 OFFCURVE",
"204 -115 CURVE SMOOTH",
"225 -115 OFFCURVE",
"255 -106 OFFCURVE",
"273 -98 CURVE SMOOTH",
"287 -91 OFFCURVE",
"303 -74 OFFCURVE",
"306 -59 CURVE SMOOTH",
"306 -58 OFFCURVE",
"307 -57 OFFCURVE",
"307 -56 CURVE SMOOTH",
"307 -54 OFFCURVE",
"306 -53 OFFCURVE",
"305 -53 CURVE SMOOTH",
"297 -53 OFFCURVE",
"268 -95 OFFCURVE",
"241 -95 CURVE SMOOTH",
"226 -95 OFFCURVE",
"224 -77 OFFCURVE",
"224 -66 CURVE SMOOTH",
"224 -55 OFFCURVE",
"226 -44 OFFCURVE",
"228 -32 CURVE",
"246 -34 OFFCURVE",
"264 -35 OFFCURVE",
"281 -35 CURVE SMOOTH",
"382 -35 OFFCURVE",
"493 -10 OFFCURVE",
"586 29 CURVE SMOOTH",
"715 84 OFFCURVE",
"926 199 OFFCURVE",
"926 364 CURVE SMOOTH",
"926 514 OFFCURVE",
"751 585 OFFCURVE",
"626 606 CURVE",
"630 610 OFFCURVE",
"641 620 OFFCURVE",
"641 625 CURVE SMOOTH",
"641 634 OFFCURVE",
"624 635 OFFCURVE",
"618 635 CURVE SMOOTH",
"603 635 OFFCURVE",
"572 629 OFFCURVE",
"564 613 CURVE",
"541 615 OFFCURVE",
"518 616 OFFCURVE",
"494 616 CURVE SMOOTH",
"437 616 OFFCURVE",
"379 611 OFFCURVE",
"323 602 CURVE SMOOTH",
"239 588 OFFCURVE",
"37 540 OFFCURVE",
"37 426 CURVE SMOOTH",
"37 370 OFFCURVE",
"92 319 OFFCURVE",
"135 291 CURVE SMOOTH",
"139 289 OFFCURVE",
"145 286 OFFCURVE",
"150 286 CURVE SMOOTH",
"152 286 OFFCURVE",
"154 286 OFFCURVE",
"154 288 CURVE SMOOTH",
"154 295 OFFCURVE",
"85 338 OFFCURVE",
"85 405 CURVE SMOOTH",
"85 515 OFFCURVE",
"245 567 OFFCURVE",
"331 582 CURVE SMOOTH",
"383 591 OFFCURVE",
"437 596 OFFCURVE",
"490 596 CURVE SMOOTH",
"510 596 OFFCURVE",
"529 595 OFFCURVE",
"549 594 CURVE",
"539 581 OFFCURVE",
"505 545 OFFCURVE",
"507 529 CURVE",
"484 503 OFFCURVE",
"464 474 OFFCURVE",
"443 446 CURVE SMOOTH",
"405 393 OFFCURVE",
"256 190 OFFCURVE",
"175 -4 CURVE",
"148 3 OFFCURVE",
"115 18 OFFCURVE",
"95 41 CURVE"
);
},
{
closed = 1;
nodes = (
"390 299 LINE SMOOTH",
"456 399 OFFCURVE",
"531 495 OFFCURVE",
"610 587 CURVE",
"716 570 OFFCURVE",
"883 510 OFFCURVE",
"883 379 CURVE SMOOTH",
"883 233 OFFCURVE",
"672 121 OFFCURVE",
"561 70 CURVE SMOOTH",
"469 28 OFFCURVE",
"342 -11 OFFCURVE",
"239 -11 CURVE SMOOTH",
"233 -11 LINE",
"259 85 OFFCURVE",
"319 190 OFFCURVE",
"372 272 CURVE SMOOTH"
);
},
{
closed = 1;
nodes = (
"415.148 186.192 OFFCURVE",
"301.544 190.269 OFFCURVE",
"281.314 190.269 CURVE SMOOTH",
"239.296 190.269 OFFCURVE",
"195.722 186.192 OFFCURVE",
"153.704 180.077 CURVE",
"152.148 178.038 LINE",
"152.148 167.846 OFFCURVE",
"161.485 137.269 OFFCURVE",
"170.822 137.269 CURVE SMOOTH",
"195.722 137.269 OFFCURVE",
"219.065 143.385 OFFCURVE",
"243.964 147.462 CURVE SMOOTH",
"296.876 153.577 OFFCURVE",
"351.343 157.654 OFFCURVE",
"405.811 157.654 CURVE SMOOTH",
"408.923 157.654 OFFCURVE",
"415.148 159.692 OFFCURVE",
"415.148 165.808 CURVE SMOOTH"
);
}
);
width = 905;
}
);
unicode = 00D0;
},
{
color = 3;
glyphname = Dcroat;
lastChange = "2021-05-05 19:46:58 +0000";
layers = (
{
hints = (
{
horizontal = 1;
place = "{500, 13}";
type = Stem;
},
{
place = "{1353, 45}";
type = Stem;
},
{
horizontal = 1;
place = "{145.423, 44.846}";
type = Stem;
}
);
layerId = "5758FC1C-8DB2-4040-8B3F-38A5D3FE42F4";
paths = (
{
closed = 1;
nodes = (
"58 58 OFFCURVE",
"54 38 OFFCURVE",
"71 18 CURVE",
"101 -3 OFFCURVE",
"141 -16 OFFCURVE",
"169 -22 CURVE",
"164 -38 OFFCURVE",
"161 -54 OFFCURVE",
"161 -70 CURVE SMOOTH",
"161 -99 OFFCURVE",
"174 -115 OFFCURVE",
"204 -115 CURVE SMOOTH",
"225 -115 OFFCURVE",
"255 -106 OFFCURVE",
"273 -98 CURVE SMOOTH",
"287 -91 OFFCURVE",
"303 -74 OFFCURVE",
"306 -59 CURVE SMOOTH",
"306 -58 OFFCURVE",
"307 -57 OFFCURVE",
"307 -56 CURVE SMOOTH",
"307 -54 OFFCURVE",
"306 -53 OFFCURVE",
"305 -53 CURVE SMOOTH",
"297 -53 OFFCURVE",
"268 -95 OFFCURVE",
"241 -95 CURVE SMOOTH",
"226 -95 OFFCURVE",
"224 -77 OFFCURVE",
"224 -66 CURVE SMOOTH",
"224 -55 OFFCURVE",
"226 -44 OFFCURVE",
"228 -32 CURVE",
"246 -34 OFFCURVE",
"264 -35 OFFCURVE",
"281 -35 CURVE SMOOTH",
"382 -35 OFFCURVE",
"493 -10 OFFCURVE",
"586 29 CURVE SMOOTH",
"715 84 OFFCURVE",
"926 199 OFFCURVE",
"926 364 CURVE SMOOTH",
"926 514 OFFCURVE",
"751 585 OFFCURVE",
"626 606 CURVE",
"630 610 OFFCURVE",
"641 620 OFFCURVE",
"641 625 CURVE SMOOTH",
"641 634 OFFCURVE",
"624 635 OFFCURVE",
"618 635 CURVE SMOOTH",
"603 635 OFFCURVE",
"572 629 OFFCURVE",
"564 613 CURVE",
"541 615 OFFCURVE",
"518 616 OFFCURVE",
"494 616 CURVE SMOOTH",
"437 616 OFFCURVE",
"379 611 OFFCURVE",
"323 602 CURVE SMOOTH",
"239 588 OFFCURVE",
"37 540 OFFCURVE",
"37 426 CURVE SMOOTH",
"37 370 OFFCURVE",
"92 319 OFFCURVE",
"135 291 CURVE SMOOTH",
"139 289 OFFCURVE",
"145 286 OFFCURVE",
"150 286 CURVE SMOOTH",
"152 286 OFFCURVE",
"154 286 OFFCURVE",
"154 288 CURVE SMOOTH",
"154 295 OFFCURVE",
"85 338 OFFCURVE",
"85 405 CURVE SMOOTH",
"85 515 OFFCURVE",
"245 567 OFFCURVE",
"331 582 CURVE SMOOTH",
"383 591 OFFCURVE",
"437 596 OFFCURVE",
"490 596 CURVE SMOOTH",
"510 596 OFFCURVE",
"529 595 OFFCURVE",
"549 594 CURVE",
"539 581 OFFCURVE",
"505 545 OFFCURVE",
"507 529 CURVE",
"484 503 OFFCURVE",
"464 474 OFFCURVE",
"443 446 CURVE SMOOTH",
"405 393 OFFCURVE",
"256 190 OFFCURVE",
"175 -4 CURVE",
"148 3 OFFCURVE",
"115 18 OFFCURVE",
"95 41 CURVE"
);
},
{
closed = 1;
nodes = (
"390 299 LINE SMOOTH",
"456 399 OFFCURVE",
"531 495 OFFCURVE",
"610 587 CURVE",
"716 570 OFFCURVE",
"883 510 OFFCURVE",
"883 379 CURVE SMOOTH",
"883 233 OFFCURVE",
"672 121 OFFCURVE",
"561 70 CURVE SMOOTH",
"469 28 OFFCURVE",
"342 -11 OFFCURVE",
"239 -11 CURVE SMOOTH",
"233 -11 LINE",
"259 85 OFFCURVE",
"319 190 OFFCURVE",
"372 272 CURVE SMOOTH"
);
},
{
closed = 1;
nodes = (
"509 283 OFFCURVE",
"371 286 OFFCURVE",
"345 286 CURVE SMOOTH",
"294 286 OFFCURVE",
"242 283 OFFCURVE",
"190 277 CURVE",
"188 276 LINE",
"188 267 OFFCURVE",
"200 240 OFFCURVE",
"211 240 CURVE SMOOTH",
"242 240 OFFCURVE",
"270 245 OFFCURVE",
"300 249 CURVE SMOOTH",
"365 256 OFFCURVE",
"430 258 OFFCURVE",
"498 258 CURVE SMOOTH",
"501 258 OFFCURVE",
"509 260 OFFCURVE",
"509 265 CURVE SMOOTH"
);
}
);
width = 905;
}
);
unicode = 0110;
},
{
glyphname = E;
layers = (
{
hints = (
{
horizontal = 1;
place = "{332, 19}";
type = Stem;
}
);
layerId = "5758FC1C-8DB2-4040-8B3F-38A5D3FE42F4";
paths = (
{
closed = 1;
nodes = (
"800 562 OFFCURVE",
"825 613 OFFCURVE",
"825 625 CURVE SMOOTH",
"825 629 OFFCURVE",
"825 637 OFFCURVE",
"819 637 CURVE SMOOTH",
"811 637 OFFCURVE",
"805 627 OFFCURVE",
"805 620 CURVE SMOOTH",
"805 609 OFFCURVE",
"786 580 OFFCURVE",
"779 570 CURVE",
"756 604 OFFCURVE",
"691 617 OFFCURVE",
"654 617 CURVE SMOOTH",
"650 617 OFFCURVE",
"647 617 OFFCURVE",
"643 616 CURVE",
"439 603 OFFCURVE",
"237 499 OFFCURVE",
"117 331 CURVE",
"66 319 OFFCURVE",
"-43 284 OFFCURVE",
"-43 216 CURVE SMOOTH",
"-43 170 OFFCURVE",
"9 130 OFFCURVE",
"47 112 CURVE",
"64 -2 OFFCURVE",
"188 -39 OFFCURVE",
"288 -39 CURVE SMOOTH",
"385 -39 OFFCURVE",
"659 21 OFFCURVE",
"719 96 CURVE SMOOTH",
"720 97 OFFCURVE",
"721 99 OFFCURVE",
"721 100 CURVE SMOOTH",
"721 103 OFFCURVE",
"720 105 OFFCURVE",
"720 107 CURVE SMOOTH",
"720 119 OFFCURVE",
"760 145 OFFCURVE",
"760 152 CURVE SMOOTH",
"760 153 OFFCURVE",
"760 155 OFFCURVE",
"759 155 CURVE SMOOTH",
"756 155 OFFCURVE",
"748 148 OFFCURVE",
"745 146 CURVE SMOOTH",
"629 58 OFFCURVE",
"468 -22 OFFCURVE",
"319 -22 CURVE SMOOTH",
"241 -22 OFFCURVE",
"150 2 OFFCURVE",
"123 85 CURVE",
"183 72 OFFCURVE",
"247 66 OFFCURVE",
"309 66 CURVE SMOOTH",
"311 66 OFFCURVE",
"338 67 OFFCURVE",
"338 73 CURVE SMOOTH",
"338 75 OFFCURVE",
"332 75 OFFCURVE",
"331 75 CURVE SMOOTH",
"325 75 OFFCURVE",
"319 74 OFFCURVE",
"312 74 CURVE SMOOTH",
"249 74 OFFCURVE",
"178 90 OFFCURVE",
"118 107 CURVE",
"116 117 OFFCURVE",
"115 127 OFFCURVE",
"115 137 CURVE SMOOTH",
"115 195 OFFCURVE",
"140 254 OFFCURVE",
"169 303 CURVE",
"178 305 OFFCURVE",
"187 307 OFFCURVE",
"197 309 CURVE SMOOTH",
"235 315 OFFCURVE",
"274 318 OFFCURVE",
"312 321 CURVE SMOOTH",
"383 327 OFFCURVE",
"454 331 OFFCURVE",
"525 335 CURVE SMOOTH",
"560 337 OFFCURVE",
"595 338 OFFCURVE",
"629 341 CURVE SMOOTH",
"634 341 OFFCURVE",
"660 346 OFFCURVE",
"660 352 CURVE SMOOTH",
"660 356 OFFCURVE",
"648 358 OFFCURVE",
"647 358 CURVE SMOOTH",
"618 365 OFFCURVE",
"584 363 OFFCURVE",
"554 363 CURVE SMOOTH",
"452 363 OFFCURVE",
"349 357 OFFCURVE",
"248 350 CURVE SMOOTH",
"231 349 OFFCURVE",
"214 347 OFFCURVE",
"197 345 CURVE",
"296 481 OFFCURVE",
"474 596 OFFCURVE",
"647 596 CURVE SMOOTH",
"694 596 OFFCURVE",
"735 581 OFFCURVE",
"758 539 CURVE",
"747 521 OFFCURVE",
"721 482 OFFCURVE",
"721 461 CURVE SMOOTH",
"721 452 OFFCURVE",
"731 451 OFFCURVE",
"739 451 CURVE SMOOTH",
"748 451 OFFCURVE",
"756 454 OFFCURVE",
"762 461 CURVE SMOOTH",
"768 467 OFFCURVE",
"780 483 OFFCURVE",
"780 492 CURVE SMOOTH",
"780 497 OFFCURVE",
"782 502 OFFCURVE",
"785 506 CURVE",
"790 498 OFFCURVE",
"794 491 OFFCURVE",
"796 482 CURVE",
"797 480 OFFCURVE",
"797 478 OFFCURVE",
"799 478 CURVE",
"806 480 OFFCURVE",
"811 500 OFFCURVE",
"811 506 CURVE SMOOTH",
"811 517 OFFCURVE",
"799 539 OFFCURVE",
"794 549 CURVE"
);
},
{
closed = 1;
nodes = (
"62 238 OFFCURVE",
"44 189 OFFCURVE",
"45 139 CURVE SMOOTH",
"45 133 LINE",
"20 145 OFFCURVE",
"-12 172 OFFCURVE",
"-12 201 CURVE SMOOTH",
"-12 243 OFFCURVE",
"54 270 OFFCURVE",
"86 281 CURVE"
);
}
);
width = 709;
}
);
note = E;
unicode = 0045;
},
{
glyphname = Eacute;
layers = (
{
hints = (
{
horizontal = 1;
place = "{-39, 17}";
type = Stem;
},
{
horizontal = 1;
place = "{66, 8}";
type = Stem;
},
{
horizontal = 1;
place = "{341, 22}";
type = Stem;
},
{
horizontal = 1;
place = "{539, -20}";
target = down;
type = TopGhost;
},
{
horizontal = 1;
place = "{596, 21}";
type = Stem;
},
{
place = "{-43, 31}";
type = Stem;
},
{
place = "{45, 70}";
type = Stem;
},
{
place = "{805, 20}";
type = Stem;
},
{
place = "{721, 59}";
type = Stem;
}
);
layerId = "5758FC1C-8DB2-4040-8B3F-38A5D3FE42F4";
paths = (
{
closed = 1;
nodes = (
"636 646 OFFCURVE",
"763 705 OFFCURVE",
"779 711 CURVE SMOOTH",
"791 717 OFFCURVE",
"811 726 OFFCURVE",
"816 740 CURVE",
"817 741 OFFCURVE",
"817 743 OFFCURVE",
"817 744 CURVE SMOOTH",
"817 751 OFFCURVE",
"808 753 OFFCURVE",
"802 753 CURVE SMOOTH",
"786 753 OFFCURVE",
"771 744 OFFCURVE",
"758 736 CURVE SMOOTH",
"740 725 OFFCURVE",
"629 663 OFFCURVE",
"629 650 CURVE SMOOTH",
"629 647 OFFCURVE",
"631 646 OFFCURVE",
"633 646 CURVE SMOOTH"
);
},
{
closed = 1;
nodes = (
"800 562 OFFCURVE",
"825 613 OFFCURVE",
"825 625 CURVE SMOOTH",
"825 629 OFFCURVE",
"824 637 OFFCURVE",
"819 637 CURVE SMOOTH",
"811 637 OFFCURVE",
"805 627 OFFCURVE",
"805 620 CURVE SMOOTH",
"805 609 OFFCURVE",
"786 580 OFFCURVE",
"779 570 CURVE",
"756 604 OFFCURVE",
"691 617 OFFCURVE",
"654 617 CURVE SMOOTH",
"650 617 OFFCURVE",
"647 617 OFFCURVE",
"643 616 CURVE",
"439 603 OFFCURVE",
"237 499 OFFCURVE",
"117 331 CURVE",
"66 319 OFFCURVE",
"-43 284 OFFCURVE",
"-43 216 CURVE SMOOTH",
"-43 170 OFFCURVE",
"9 130 OFFCURVE",
"47 112 CURVE",
"64 -2 OFFCURVE",
"188 -39 OFFCURVE",
"288 -39 CURVE SMOOTH",
"385 -39 OFFCURVE",
"659 21 OFFCURVE",
"719 96 CURVE SMOOTH",
"720 97 OFFCURVE",
"721 99 OFFCURVE",
"721 100 CURVE SMOOTH",
"721 103 OFFCURVE",
"720 105 OFFCURVE",
"720 107 CURVE SMOOTH",
"720 119 OFFCURVE",
"760 145 OFFCURVE",
"760 152 CURVE SMOOTH",
"760 153 OFFCURVE",
"760 155 OFFCURVE",
"759 155 CURVE SMOOTH",
"756 155 OFFCURVE",
"748 148 OFFCURVE",
"745 146 CURVE SMOOTH",
"629 58 OFFCURVE",
"468 -22 OFFCURVE",
"319 -22 CURVE SMOOTH",
"241 -22 OFFCURVE",
"150 2 OFFCURVE",
"123 85 CURVE",
"183 72 OFFCURVE",
"247 66 OFFCURVE",
"309 66 CURVE SMOOTH",
"311 66 OFFCURVE",
"338 67 OFFCURVE",
"338 73 CURVE SMOOTH",
"338 75 OFFCURVE",
"332 75 OFFCURVE",
"331 75 CURVE SMOOTH",
"325 75 OFFCURVE",
"319 74 OFFCURVE",
"312 74 CURVE SMOOTH",
"249 74 OFFCURVE",
"178 90 OFFCURVE",
"118 107 CURVE",
"116 117 OFFCURVE",
"115 127 OFFCURVE",
"115 137 CURVE SMOOTH",
"115 195 OFFCURVE",
"140 254 OFFCURVE",
"169 303 CURVE",
"178 305 OFFCURVE",
"187 307 OFFCURVE",
"197 309 CURVE SMOOTH",
"235 315 OFFCURVE",
"274 318 OFFCURVE",
"312 321 CURVE SMOOTH",
"383 327 OFFCURVE",
"454 331 OFFCURVE",
"525 335 CURVE SMOOTH",
"560 337 OFFCURVE",
"595 338 OFFCURVE",
"629 341 CURVE SMOOTH",
"634 341 OFFCURVE",
"660 346 OFFCURVE",
"660 352 CURVE SMOOTH",
"660 356 OFFCURVE",
"648 358 OFFCURVE",
"647 358 CURVE SMOOTH",
"618 365 OFFCURVE",
"584 363 OFFCURVE",
"554 363 CURVE SMOOTH",
"452 363 OFFCURVE",
"349 357 OFFCURVE",
"248 350 CURVE SMOOTH",
"231 349 OFFCURVE",
"214 347 OFFCURVE",
"197 345 CURVE",
"296 481 OFFCURVE",
"474 596 OFFCURVE",
"647 596 CURVE SMOOTH",
"694 596 OFFCURVE",
"735 581 OFFCURVE",
"758 539 CURVE",
"747 521 OFFCURVE",
"721 482 OFFCURVE",
"721 461 CURVE SMOOTH",
"721 452 OFFCURVE",
"731 451 OFFCURVE",
"739 451 CURVE SMOOTH",
"748 451 OFFCURVE",
"756 454 OFFCURVE",
"762 461 CURVE SMOOTH",
"768 467 OFFCURVE",
"780 483 OFFCURVE",
"780 492 CURVE SMOOTH",
"780 497 OFFCURVE",
"782 502 OFFCURVE",
"785 506 CURVE",
"790 498 OFFCURVE",
"794 491 OFFCURVE",
"796 482 CURVE",
"797 480 OFFCURVE",
"797 478 OFFCURVE",
"799 478 CURVE",
"806 480 OFFCURVE",
"811 500 OFFCURVE",
"811 506 CURVE SMOOTH",
"811 517 OFFCURVE",
"799 539 OFFCURVE",
"794 549 CURVE"
);
},
{
closed = 1;
nodes = (
"62 238 OFFCURVE",
"44 189 OFFCURVE",
"45 139 CURVE SMOOTH",
"45 133 LINE",
"20 145 OFFCURVE",
"-12 172 OFFCURVE",
"-12 201 CURVE SMOOTH",
"-12 243 OFFCURVE",
"54 270 OFFCURVE",
"86 281 CURVE"
);
}
);
width = 590;
}
);
note = Eacute;
unicode = 00C9;
},
{
glyphname = Edieresis;
layers = (
{
hints = (
{
horizontal = 1;
place = "{-39, 17}";
type = Stem;
},
{
horizontal = 1;
place = "{66, 8}";
type = Stem;
},
{
horizontal = 1;
place = "{341, 22}";
type = Stem;
},
{
horizontal = 1;
place = "{539, -20}";
target = down;
type = TopGhost;
},
{
horizontal = 1;
place = "{596, 21}";
type = Stem;
},
{
place = "{-43, 31}";
type = Stem;
},
{
place = "{45, 70}";
type = Stem;
},
{
place = "{805, 20}";
type = Stem;
},
{
place = "{721, 59}";
type = Stem;
},
{
horizontal = 1;
place = "{655, 71}";
type = Stem;
}
);
layerId = "5758FC1C-8DB2-4040-8B3F-38A5D3FE42F4";
paths = (
{
closed = 1;
nodes = (
"785 726 LINE",
"785 725 LINE",
"782 726 LINE",
"766 726 OFFCURVE",
"716 696 OFFCURVE",
"716 679 CURVE SMOOTH",
"716 672 OFFCURVE",
"722 655 OFFCURVE",
"731 655 CURVE SMOOTH",
"752 655 OFFCURVE",
"760 697 OFFCURVE",
"772 710 CURVE",
"773 712 OFFCURVE",
"785 723 OFFCURVE",
"785 724 CURVE SMOOTH"
);
},
{
closed = 1;
nodes = (
"685 726 LINE",
"685 725 LINE",
"682 726 LINE",
"667 726 OFFCURVE",
"616 696 OFFCURVE",
"616 679 CURVE SMOOTH",
"616 672 OFFCURVE",
"622 655 OFFCURVE",
"631 655 CURVE SMOOTH",
"652 655 OFFCURVE",
"661 697 OFFCURVE",
"672 710 CURVE SMOOTH",
"674 712 OFFCURVE",
"685 723 OFFCURVE",
"685 724 CURVE SMOOTH"
);
},
{
closed = 1;
nodes = (
"800 562 OFFCURVE",
"825 613 OFFCURVE",
"825 625 CURVE SMOOTH",
"825 629 OFFCURVE",
"824 637 OFFCURVE",
"819 637 CURVE SMOOTH",
"811 637 OFFCURVE",
"805 627 OFFCURVE",
"805 620 CURVE SMOOTH",
"805 609 OFFCURVE",
"786 580 OFFCURVE",
"779 570 CURVE",
"756 604 OFFCURVE",
"691 617 OFFCURVE",
"654 617 CURVE SMOOTH",
"650 617 OFFCURVE",
"647 617 OFFCURVE",
"643 616 CURVE",
"439 603 OFFCURVE",
"237 499 OFFCURVE",
"117 331 CURVE",
"66 319 OFFCURVE",
"-43 284 OFFCURVE",
"-43 216 CURVE SMOOTH",
"-43 170 OFFCURVE",
"9 130 OFFCURVE",
"47 112 CURVE",
"64 -2 OFFCURVE",
"188 -39 OFFCURVE",
"288 -39 CURVE SMOOTH",
"385 -39 OFFCURVE",
"659 21 OFFCURVE",
"719 96 CURVE SMOOTH",
"720 97 OFFCURVE",
"721 99 OFFCURVE",
"721 100 CURVE SMOOTH",
"721 103 OFFCURVE",
"720 105 OFFCURVE",
"720 107 CURVE SMOOTH",
"720 119 OFFCURVE",
"760 145 OFFCURVE",
"760 152 CURVE SMOOTH",
"760 153 OFFCURVE",
"760 155 OFFCURVE",
"759 155 CURVE SMOOTH",
"756 155 OFFCURVE",
"748 148 OFFCURVE",
"745 146 CURVE SMOOTH",
"629 58 OFFCURVE",
"468 -22 OFFCURVE",
"319 -22 CURVE SMOOTH",
"241 -22 OFFCURVE",
"150 2 OFFCURVE",
"123 85 CURVE",
"183 72 OFFCURVE",
"247 66 OFFCURVE",
"309 66 CURVE SMOOTH",
"311 66 OFFCURVE",
"338 67 OFFCURVE",
"338 73 CURVE SMOOTH",
"338 75 OFFCURVE",
"332 75 OFFCURVE",
"331 75 CURVE SMOOTH",
"325 75 OFFCURVE",
"319 74 OFFCURVE",
"312 74 CURVE SMOOTH",
"249 74 OFFCURVE",
"178 90 OFFCURVE",
"118 107 CURVE",
"116 117 OFFCURVE",
"115 127 OFFCURVE",
"115 137 CURVE SMOOTH",
"115 195 OFFCURVE",
"140 254 OFFCURVE",
"169 303 CURVE",
"178 305 OFFCURVE",
"187 307 OFFCURVE",
"197 309 CURVE SMOOTH",
"235 315 OFFCURVE",
"274 318 OFFCURVE",
"312 321 CURVE SMOOTH",
"383 327 OFFCURVE",
"454 331 OFFCURVE",
"525 335 CURVE SMOOTH",
"560 337 OFFCURVE",
"595 338 OFFCURVE",
"629 341 CURVE SMOOTH",
"634 341 OFFCURVE",
"660 346 OFFCURVE",
"660 352 CURVE SMOOTH",
"660 356 OFFCURVE",
"648 358 OFFCURVE",
"647 358 CURVE SMOOTH",
"618 365 OFFCURVE",
"584 363 OFFCURVE",
"554 363 CURVE SMOOTH",
"452 363 OFFCURVE",
"349 357 OFFCURVE",
"248 350 CURVE SMOOTH",
"231 349 OFFCURVE",
"214 347 OFFCURVE",
"197 345 CURVE",
"296 481 OFFCURVE",
"474 596 OFFCURVE",
"647 596 CURVE SMOOTH",
"694 596 OFFCURVE",
"735 581 OFFCURVE",
"758 539 CURVE",
"747 521 OFFCURVE",
"721 482 OFFCURVE",
"721 461 CURVE SMOOTH",
"721 452 OFFCURVE",
"731 451 OFFCURVE",
"739 451 CURVE SMOOTH",
"748 451 OFFCURVE",
"756 454 OFFCURVE",
"762 461 CURVE SMOOTH",
"768 467 OFFCURVE",
"780 483 OFFCURVE",
"780 492 CURVE SMOOTH",
"780 497 OFFCURVE",
"782 502 OFFCURVE",
"785 506 CURVE",
"790 498 OFFCURVE",
"794 491 OFFCURVE",
"796 482 CURVE",
"797 480 OFFCURVE",
"797 478 OFFCURVE",
"799 478 CURVE",
"806 480 OFFCURVE",
"811 500 OFFCURVE",
"811 506 CURVE SMOOTH",
"811 517 OFFCURVE",
"799 539 OFFCURVE",
"794 549 CURVE"
);
},
{
closed = 1;
nodes = (
"62 238 OFFCURVE",
"44 189 OFFCURVE",
"45 139 CURVE SMOOTH",
"45 133 LINE",
"20 145 OFFCURVE",
"-12 172 OFFCURVE",
"-12 201 CURVE SMOOTH",
"-12 243 OFFCURVE",
"54 270 OFFCURVE",
"86 281 CURVE"
);
}
);
width = 807;
}
);
note = Edieresis;
unicode = 00CB;
},
{
glyphname = F;
layers = (
{
hints = (
{
horizontal = 1;
place = "{-84, 13}";
type = Stem;
},
{
horizontal = 1;
place = "{409, 28}";
type = Stem;
},
{
horizontal = 1;
place = "{512, 40}";
type = Stem;
},
{
horizontal = 1;
place = "{560, 28}";
type = Stem;
},
{
place = "{20, 23}";
type = Stem;
},
{
place = "{58, 15}";
type = Stem;
}
);
layerId = "5758FC1C-8DB2-4040-8B3F-38A5D3FE42F4";
paths = (
{
closed = 1;
nodes = (
"859 412 OFFCURVE",
"867 423 OFFCURVE",
"870 427 CURVE SMOOTH",
"897 466 OFFCURVE",
"923 519 OFFCURVE",
"966 541 CURVE",
"972 543 OFFCURVE",
"977 545 OFFCURVE",
"977 552 CURVE SMOOTH",
"977 561 OFFCURVE",
"967 572 OFFCURVE",
"957 572 CURVE SMOOTH",
"946 572 OFFCURVE",
"939 546 OFFCURVE",
"905 546 CURVE SMOOTH",
"732 546 OFFCURVE",
"565 610 OFFCURVE",
"390 610 CURVE SMOOTH",
"282 610 OFFCURVE",
"147 587 OFFCURVE",
"112 467 CURVE",
"108 457 OFFCURVE",
"107 446 OFFCURVE",
"107 435 CURVE SMOOTH",
"107 356 OFFCURVE",
"192 309 OFFCURVE",
"257 287 CURVE SMOOTH",
"262 285 OFFCURVE",
"268 283 OFFCURVE",
"274 283 CURVE SMOOTH",
"276 283 OFFCURVE",
"279 283 OFFCURVE",
"279 286 CURVE SMOOTH",
"279 291 OFFCURVE",
"268 296 OFFCURVE",
"264 298 CURVE SMOOTH",
"205 324 OFFCURVE",
"132 379 OFFCURVE",
"132 449 CURVE SMOOTH",
"132 559 OFFCURVE",
"356 565 OFFCURVE",
"429 565 CURVE SMOOTH",
"528 565 OFFCURVE",
"654 556 OFFCURVE",
"750 531 CURVE",
"648 522 OFFCURVE",
"543 340 OFFCURVE",
"496 256 CURVE",
"395 255 OFFCURVE",
"8 250 OFFCURVE",
"8 123 CURVE SMOOTH",
"8 76 OFFCURVE",
"61 34 OFFCURVE",
"100 17 CURVE",
"108 -43 OFFCURVE",
"169 -65 OFFCURVE",
"223 -65 CURVE SMOOTH",
"239 -65 OFFCURVE",
"255 -63 OFFCURVE",
"270 -57 CURVE SMOOTH",
"402 -4 OFFCURVE",
"455 92 OFFCURVE",
"527 207 CURVE SMOOTH",
"532 216 OFFCURVE",
"537 224 OFFCURVE",
"542 233 CURVE",
"564 234 OFFCURVE",
"586 235 OFFCURVE",
"608 236 CURVE",
"613 237 OFFCURVE",
"638 239 OFFCURVE",
"638 243 CURVE SMOOTH",
"638 246 OFFCURVE",
"626 248 OFFCURVE",
"625 249 CURVE",
"602 254 OFFCURVE",
"578 255 OFFCURVE",
"554 255 CURVE",
"611 361 OFFCURVE",
"677 527 OFFCURVE",
"820 527 CURVE SMOOTH",
"840 527 OFFCURVE",
"863 524 OFFCURVE",
"882 518 CURVE",
"886 516 OFFCURVE",
"888 514 OFFCURVE",
"888 510 CURVE SMOOTH",
"888 487 OFFCURVE",
"851 441 OFFCURVE",
"851 416 CURVE SMOOTH",
"851 414 OFFCURVE",
"851 412 OFFCURVE",
"854 412 CURVE SMOOTH"
);
},
{
closed = 1;
nodes = (
"430 138 OFFCURVE",
"327 -46 OFFCURVE",
"207 -46 CURVE SMOOTH",
"170 -46 OFFCURVE",
"143 -30 OFFCURVE",
"131 6 CURVE",
"171 -6 OFFCURVE",
"216 -11 OFFCURVE",
"257 -11 CURVE SMOOTH",
"260 -11 OFFCURVE",
"279 -10 OFFCURVE",
"279 -4 CURVE SMOOTH",
"279 -2 OFFCURVE",
"275 -2 OFFCURVE",
"274 -2 CURVE SMOOTH",
"269 -2 OFFCURVE",
"264 -3 OFFCURVE",
"260 -3 CURVE SMOOTH",
"221 -3 OFFCURVE",
"162 14 OFFCURVE",
"126 27 CURVE",
"125 35 OFFCURVE",
"124 44 OFFCURVE",
"124 52 CURVE SMOOTH",
"124 69 OFFCURVE",
"127 84 OFFCURVE",
"130 101 CURVE SMOOTH",
"130 103 OFFCURVE",
"130 106 OFFCURVE",
"130 109 CURVE SMOOTH",
"130 110 OFFCURVE",
"130 117 OFFCURVE",
"127 117 CURVE SMOOTH",
"111 117 OFFCURVE",
"100 49 OFFCURVE",
"100 38 CURVE",
"72 51 OFFCURVE",
"32 73 OFFCURVE",
"32 108 CURVE SMOOTH",
"32 208 OFFCURVE",
"395 224 OFFCURVE",
"481 229 CURVE"
);
}
);
width = 608;
}
);
note = F;
unicode = 0046;
},
{
glyphname = G;
layers = (
{
hints = (
{
horizontal = 1;
place = "{217, 27}";
type = Stem;
}
);
layerId = "5758FC1C-8DB2-4040-8B3F-38A5D3FE42F4";
paths = (
{
closed = 1;
nodes = (
"377 -281 OFFCURVE",
"393 -279 OFFCURVE",
"408 -273 CURVE SMOOTH",
"578 -204 OFFCURVE",
"655 -15 OFFCURVE",
"737 135 CURVE SMOOTH",
"751 159 OFFCURVE",
"764 184 OFFCURVE",
"777 208 CURVE SMOOTH",
"787 227 OFFCURVE",
"797 247 OFFCURVE",
"809 265 CURVE SMOOTH",
"812 269 OFFCURVE",
"816 273 OFFCURVE",
"816 278 CURVE SMOOTH",
"816 287 OFFCURVE",
"802 288 OFFCURVE",
"796 288 CURVE SMOOTH",
"780 288 OFFCURVE",
"757 284 OFFCURVE",
"745 272 CURVE",
"695 278 OFFCURVE",
"644 280 OFFCURVE",
"594 280 CURVE SMOOTH",
"574 280 OFFCURVE",
"554 279 OFFCURVE",
"534 279 CURVE SMOOTH",
"437 277 OFFCURVE",
"364 269 OFFCURVE",
"328 168 CURVE SMOOTH",
"327 165 OFFCURVE",
"327 163 OFFCURVE",
"327 161 CURVE SMOOTH",
"327 158 OFFCURVE",
"328 156 OFFCURVE",
"330 156 CURVE SMOOTH",
"336 156 OFFCURVE",
"340 163 OFFCURVE",
"342 167 CURVE SMOOTH",
"348 179 OFFCURVE",
"353 187 OFFCURVE",
"363 196 CURVE SMOOTH",
"434 253 OFFCURVE",
"642 251 OFFCURVE",
"734 253 CURVE",
"731 242 LINE",
"715 206 OFFCURVE",
"702 168 OFFCURVE",
"687 132 CURVE",
"577 51 OFFCURVE",
"417 -22 OFFCURVE",
"279 -22 CURVE SMOOTH",
"176 -22 OFFCURVE",
"76 19 OFFCURVE",
"76 137 CURVE SMOOTH",
"76 263 OFFCURVE",
"184 396 OFFCURVE",
"278 470 CURVE SMOOTH",
"320 502 OFFCURVE",
"365 530 OFFCURVE",
"413 551 CURVE SMOOTH",
"472 577 OFFCURVE",
"532 591 OFFCURVE",
"596 595 CURVE",
"600 596 OFFCURVE",
"604 596 OFFCURVE",
"608 596 CURVE SMOOTH",
"654 596 OFFCURVE",
"695 581 OFFCURVE",
"719 539 CURVE",
"703 514 OFFCURVE",
"631 437 OFFCURVE",
"631 417 CURVE SMOOTH",
"631 410 OFFCURVE",
"668 405 OFFCURVE",
"674 405 CURVE SMOOTH",
"681 405 OFFCURVE",
"688 406 OFFCURVE",
"694 411 CURVE",
"714 433 OFFCURVE",
"731 479 OFFCURVE",
"745 506 CURVE",
"748 502 OFFCURVE",
"759 478 OFFCURVE",
"759 478 CURVE",
"767 482 OFFCURVE",
"771 498 OFFCURVE",
"771 506 CURVE SMOOTH",
"771 517 OFFCURVE",
"760 539 OFFCURVE",
"754 549 CURVE",
"760 562 OFFCURVE",
"786 613 OFFCURVE",
"786 625 CURVE SMOOTH",
"786 629 OFFCURVE",
"785 637 OFFCURVE",
"779 637 CURVE SMOOTH",
"772 637 OFFCURVE",
"766 627 OFFCURVE",
"766 620 CURVE SMOOTH",
"766 609 OFFCURVE",
"747 580 OFFCURVE",
"739 570 CURVE",
"717 604 OFFCURVE",
"652 617 OFFCURVE",
"614 617 CURVE SMOOTH",
"611 617 OFFCURVE",
"607 617 OFFCURVE",
"604 616 CURVE",
"530 611 OFFCURVE",
"460 596 OFFCURVE",
"391 569 CURVE SMOOTH",
"336 548 OFFCURVE",
"283 519 OFFCURVE",
"235 485 CURVE SMOOTH",
"131 411 OFFCURVE",
"5 275 OFFCURVE",
"5 139 CURVE SMOOTH",
"5 -6 OFFCURVE",
"152 -40 OFFCURVE",
"270 -40 CURVE SMOOTH",
"421 -40 OFFCURVE",
"553 14 OFFCURVE",
"673 102 CURVE",
"629 5 OFFCURVE",
"493 -268 OFFCURVE",
"370 -268 CURVE SMOOTH",
"319 -268 OFFCURVE",
"300 -201 OFFCURVE",
"300 -160 CURVE SMOOTH",
"300 -149 OFFCURVE",
"304 -139 OFFCURVE",
"304 -129 CURVE SMOOTH",
"304 -127 OFFCURVE",
"304 -123 OFFCURVE",
"300 -123 CURVE SMOOTH",
"283 -123 OFFCURVE",
"272 -190 OFFCURVE",
"272 -202 CURVE SMOOTH",
"272 -256 OFFCURVE",
"310 -281 OFFCURVE",
"361 -281 CURVE SMOOTH"
);
}
);
width = 787;
}
);
note = G;
unicode = 0047;
},
{
glyphname = H;
layers = (
{
hints = (
{
horizontal = 1;
place = "{189, 11}";
type = Stem;
},
{
horizontal = 1;
place = "{204, 19}";
type = Stem;
}
);
layerId = "5758FC1C-8DB2-4040-8B3F-38A5D3FE42F4";
paths = (
{
closed = 1;
nodes = (
"795 351 OFFCURVE",
"859 438 OFFCURVE",
"926 521 CURVE SMOOTH",
"954 555 OFFCURVE",
"983 587 OFFCURVE",
"1011 620 CURVE",
"1012 622 OFFCURVE",
"1013 624 OFFCURVE",
"1013 625 CURVE SMOOTH",
"1013 633 OFFCURVE",
"997 634 OFFCURVE",
"993 634 CURVE SMOOTH",
"978 634 OFFCURVE",
"951 628 OFFCURVE",
"940 618 CURVE SMOOTH",
"936 614 OFFCURVE",
"934 609 OFFCURVE",
"931 605 CURVE SMOOTH",
"920 590 OFFCURVE",
"891 558 OFFCURVE",
"883 546 CURVE SMOOTH",
"880 540 OFFCURVE",
"877 534 OFFCURVE",
"878 527 CURVE",
"812 443 OFFCURVE",
"750 353 OFFCURVE",
"692 263 CURVE",
"620 267 OFFCURVE",
"548 268 OFFCURVE",
"476 268 CURVE SMOOTH",
"453 268 LINE",
"486 314 OFFCURVE",
"606 483 OFFCURVE",
"606 537 CURVE SMOOTH",
"606 601 OFFCURVE",
"540 614 OFFCURVE",
"488 614 CURVE SMOOTH",
"394 614 OFFCURVE",
"274 574 OFFCURVE",
"193 528 CURVE SMOOTH",
"146 501 OFFCURVE",
"56 441 OFFCURVE",
"56 379 CURVE SMOOTH",
"56 322 OFFCURVE",
"137 303 OFFCURVE",
"181 295 CURVE",
"184 295 OFFCURVE",
"188 294 OFFCURVE",
"192 294 CURVE SMOOTH",
"193 294 OFFCURVE",
"201 294 OFFCURVE",
"201 298 CURVE SMOOTH",
"201 310 OFFCURVE",
"101 322 OFFCURVE",
"101 386 CURVE SMOOTH",
"101 437 OFFCURVE",
"167 483 OFFCURVE",
"205 506 CURVE SMOOTH",
"279 550 OFFCURVE",
"395 590 OFFCURVE",
"481 590 CURVE SMOOTH",
"513 590 OFFCURVE",
"565 584 OFFCURVE",
"565 542 CURVE SMOOTH",
"565 484 OFFCURVE",
"448 317 OFFCURVE",
"414 268 CURVE",
"313 266 OFFCURVE",
"14 258 OFFCURVE",
"14 115 CURVE SMOOTH",
"14 33 OFFCURVE",
"116 -30 OFFCURVE",
"188 -40 CURVE",
"184 -45 OFFCURVE",
"179 -53 OFFCURVE",
"179 -59 CURVE SMOOTH",
"179 -63 OFFCURVE",
"181 -66 OFFCURVE",
"185 -66 CURVE SMOOTH",
"195 -66 OFFCURVE",
"208 -50 OFFCURVE",
"214 -42 CURVE",
"218 -42 OFFCURVE",
"247 -41 OFFCURVE",
"247 -32 CURVE SMOOTH",
"247 -27 OFFCURVE",
"237 -27 OFFCURVE",
"234 -27 CURVE SMOOTH",
"227 -27 LINE",
"298 60 OFFCURVE",
"367 149 OFFCURVE",
"433 240 CURVE",
"498 245 OFFCURVE",
"564 247 OFFCURVE",
"629 247 CURVE SMOOTH",
"646 247 OFFCURVE",
"664 247 OFFCURVE",
"681 246 CURVE",
"637 178 OFFCURVE",
"532 8 OFFCURVE",
"532 -73 CURVE SMOOTH",
"532 -102 OFFCURVE",
"546 -118 OFFCURVE",
"576 -118 CURVE SMOOTH",
"588 -118 OFFCURVE",
"653 -105 OFFCURVE",
"653 -96 CURVE SMOOTH",
"653 -94 OFFCURVE",
"646 -94 OFFCURVE",
"645 -94 CURVE SMOOTH",
"634 -94 OFFCURVE",
"623 -99 OFFCURVE",
"611 -99 CURVE SMOOTH",
"596 -99 OFFCURVE",
"594 -81 OFFCURVE",
"594 -70 CURVE SMOOTH",
"594 15 OFFCURVE",
"682 172 OFFCURVE",
"727 245 CURVE",
"739 244 OFFCURVE",
"752 243 OFFCURVE",
"764 243 CURVE SMOOTH",
"768 243 OFFCURVE",
"786 247 OFFCURVE",
"786 252 CURVE SMOOTH",
"786 258 OFFCURVE",
"743 260 OFFCURVE",
"737 261 CURVE"
);
},
{
closed = 1;
nodes = (
"329 150 OFFCURVE",
"263 64 OFFCURVE",
"200 -24 CURVE",
"146 -12 OFFCURVE",
"38 39 OFFCURVE",
"38 104 CURVE SMOOTH",
"38 208 OFFCURVE",
"314 231 OFFCURVE",
"392 238 CURVE"
);
}
);
width = 716;
}
);
note = H;
unicode = 0048;
},
{
glyphname = I;
layers = (
{
hints = (
{
horizontal = 1;
place = "{498, 16}";
type = Stem;
},
{
place = "{245, 26}";
type = Stem;
}
);
layerId = "5758FC1C-8DB2-4040-8B3F-38A5D3FE42F4";
paths = (
{
closed = 1;
nodes = (
"680 553 OFFCURVE",
"748 558 OFFCURVE",
"772 589 CURVE",
"773 591 OFFCURVE",
"775 594 OFFCURVE",
"775 596 CURVE SMOOTH",
"775 598 OFFCURVE",
"774 599 OFFCURVE",
"773 599 CURVE SMOOTH",
"769 599 OFFCURVE",
"765 595 OFFCURVE",
"763 592 CURVE",
"744 575 OFFCURVE",
"695 575 OFFCURVE",
"671 575 CURVE SMOOTH",
"648 575 OFFCURVE",
"625 576 OFFCURVE",
"602 577 CURVE",
"608 584 OFFCURVE",
"641 620 OFFCURVE",
"641 625 CURVE SMOOTH",
"641 633 OFFCURVE",
"626 634 OFFCURVE",
"621 634 CURVE SMOOTH",
"607 634 OFFCURVE",
"579 628 OFFCURVE",
"569 618 CURVE SMOOTH",
"560 609 OFFCURVE",
"550 593 OFFCURVE",
"542 583 CURVE",
"463 591 OFFCURVE",
"382 609 OFFCURVE",
"303 609 CURVE SMOOTH",
"244 609 OFFCURVE",
"95 592 OFFCURVE",
"95 507 CURVE SMOOTH",
"95 419 OFFCURVE",
"264 381 OFFCURVE",
"327 371 CURVE",
"330 371 OFFCURVE",
"333 371 OFFCURVE",
"335 371 CURVE SMOOTH",
"337 371 OFFCURVE",
"346 371 OFFCURVE",
"346 375 CURVE SMOOTH",
"346 379 OFFCURVE",
"339 380 OFFCURVE",
"337 381 CURVE",
"315 384 OFFCURVE",
"295 387 OFFCURVE",
"274 393 CURVE SMOOTH",
"227 407 OFFCURVE",
"156 441 OFFCURVE",
"156 498 CURVE SMOOTH",
"156 573 OFFCURVE",
"269 589 OFFCURVE",
"323 589 CURVE SMOOTH",
"391 589 OFFCURVE",
"459 572 OFFCURVE",
"526 563 CURVE",
"518 553 OFFCURVE",
"505 540 OFFCURVE",
"506 527 CURVE",
"465 474 OFFCURVE",
"426 419 OFFCURVE",
"389 365 CURVE SMOOTH",
"316 260 OFFCURVE",
"218 115 OFFCURVE",
"176 -4 CURVE",
"132 1 OFFCURVE",
"87 8 OFFCURVE",
"43 8 CURVE SMOOTH",
"11 8 OFFCURVE",
"-33 -7 OFFCURVE",
"-33 -46 CURVE SMOOTH",
"-33 -78 OFFCURVE",
"3 -99 OFFCURVE",
"32 -99 CURVE SMOOTH",
"34 -99 OFFCURVE",
"39 -99 OFFCURVE",
"39 -96 CURVE SMOOTH",
"39 -89 OFFCURVE",
"-11 -85 OFFCURVE",
"-11 -61 CURVE SMOOTH",
"-11 -34 OFFCURVE",
"43 -30 OFFCURVE",
"61 -30 CURVE SMOOTH",
"96 -30 OFFCURVE",
"131 -34 OFFCURVE",
"165 -37 CURVE",
"163 -49 OFFCURVE",
"161 -61 OFFCURVE",
"161 -73 CURVE SMOOTH",
"161 -102 OFFCURVE",
"174 -118 OFFCURVE",
"204 -118 CURVE SMOOTH",
"217 -118 OFFCURVE",
"281 -105 OFFCURVE",
"281 -96 CURVE SMOOTH",
"281 -94 OFFCURVE",
"275 -94 OFFCURVE",
"274 -94 CURVE SMOOTH",
"262 -94 OFFCURVE",
"251 -99 OFFCURVE",
"240 -99 CURVE SMOOTH",
"225 -99 OFFCURVE",
"223 -82 OFFCURVE",
"223 -70 CURVE SMOOTH",
"223 -61 OFFCURVE",
"224 -52 OFFCURVE",
"225 -43 CURVE",
"256 -46 OFFCURVE",
"286 -48 OFFCURVE",
"316 -48 CURVE SMOOTH",
"369 -48 OFFCURVE",
"442 -41 OFFCURVE",
"483 -4 CURVE SMOOTH",
"488 0 OFFCURVE",
"494 8 OFFCURVE",
"494 15 CURVE SMOOTH",
"494 16 OFFCURVE",
"494 18 OFFCURVE",
"492 18 CURVE SMOOTH",
"488 18 OFFCURVE",
"482 10 OFFCURVE",
"479 7 CURVE SMOOTH",
"454 -21 OFFCURVE",
"400 -23 OFFCURVE",
"364 -23 CURVE SMOOTH",
"320 -23 OFFCURVE",
"276 -18 OFFCURVE",
"233 -12 CURVE",
"280 166 OFFCURVE",
"465 414 OFFCURVE",
"584 556 CURVE",
"604 554 OFFCURVE",
"624 553 OFFCURVE",
"644 553 CURVE SMOOTH"
);
}
);
width = 469;
}
);
note = I;
unicode = 0049;
},
{
glyphname = J;
layers = (
{
hints = (
{
horizontal = 1;
place = "{606, 16}";
type = Stem;
}
);
layerId = "5758FC1C-8DB2-4040-8B3F-38A5D3FE42F4";
paths = (
{
closed = 1;
nodes = (
"735 520 OFFCURVE",
"821 529 OFFCURVE",
"853 568 CURVE SMOOTH",
"854 569 OFFCURVE",
"856 573 OFFCURVE",
"856 575 CURVE SMOOTH",
"856 576 OFFCURVE",
"855 577 OFFCURVE",
"853 577 CURVE SMOOTH",
"849 577 OFFCURVE",
"846 573 OFFCURVE",
"843 571 CURVE",
"819 547 OFFCURVE",
"740 545 OFFCURVE",
"708 544 CURVE",
"712 549 OFFCURVE",
"729 569 OFFCURVE",
"729 574 CURVE SMOOTH",
"729 581 OFFCURVE",
"719 581 OFFCURVE",
"714 581 CURVE SMOOTH",
"700 581 OFFCURVE",
"673 574 OFFCURVE",
"664 564 CURVE SMOOTH",
"659 558 OFFCURVE",
"654 549 OFFCURVE",
"650 543 CURVE",
"604 543 OFFCURVE",
"558 545 OFFCURVE",
"511 545 CURVE SMOOTH",
"506 545 LINE SMOOTH",
"472 545 OFFCURVE",
"439 542 OFFCURVE",
"406 536 CURVE SMOOTH",
"359 528 OFFCURVE",
"247 498 OFFCURVE",
"247 435 CURVE SMOOTH",
"247 364 OFFCURVE",
"394 335 OFFCURVE",
"444 327 CURVE",
"447 327 OFFCURVE",
"450 326 OFFCURVE",
"452 326 CURVE SMOOTH",
"454 326 OFFCURVE",
"463 327 OFFCURVE",
"463 331 CURVE SMOOTH",
"463 335 OFFCURVE",
"456 336 OFFCURVE",
"454 336 CURVE SMOOTH",
"412 343 OFFCURVE",
"301 359 OFFCURVE",
"301 421 CURVE SMOOTH",
"301 472 OFFCURVE",
"379 503 OFFCURVE",
"419 513 CURVE SMOOTH",
"446 519 OFFCURVE",
"475 522 OFFCURVE",
"503 522 CURVE SMOOTH",
"546 522 OFFCURVE",
"589 518 OFFCURVE",
"632 517 CURVE",
"624 506 OFFCURVE",
"609 490 OFFCURVE",
"609 476 CURVE SMOOTH",
"609 475 OFFCURVE",
"609 474 OFFCURVE",
"610 472 CURVE",
"566 391 OFFCURVE",
"519 310 OFFCURVE",
"470 231 CURVE",
"365 227 OFFCURVE",
"255 209 OFFCURVE",
"157 170 CURVE SMOOTH",
"75 138 OFFCURVE",
"-72 66 OFFCURVE",
"-72 -40 CURVE SMOOTH",
"-72 -124 OFFCURVE",
"20 -163 OFFCURVE",
"92 -163 CURVE SMOOTH",
"208 -163 OFFCURVE",
"303 -89 OFFCURVE",
"369 0 CURVE SMOOTH",
"419 68 OFFCURVE",
"463 142 OFFCURVE",
"505 216 CURVE",
"511 216 OFFCURVE",
"557 213 OFFCURVE",
"557 221 CURVE SMOOTH",
"557 229 OFFCURVE",
"535 232 OFFCURVE",
"530 232 CURVE SMOOTH",
"514 232 LINE",
"569 329 OFFCURVE",
"623 427 OFFCURVE",
"688 518 CURVE"
);
},
{
closed = 1;
nodes = (
"422 154 OFFCURVE",
"382 93 OFFCURVE",
"339 35 CURVE SMOOTH",
"281 -44 OFFCURVE",
"187 -138 OFFCURVE",
"82 -138 CURVE SMOOTH",
"27 -138 OFFCURVE",
"-25 -107 OFFCURVE",
"-25 -48 CURVE SMOOTH",
"-25 44 OFFCURVE",
"92 114 OFFCURVE",
"163 148 CURVE SMOOTH",
"254 190 OFFCURVE",
"361 212 OFFCURVE",
"461 216 CURVE"
);
}
);
width = 520;
}
);
note = J;
unicode = 004A;
},
{
glyphname = K;
layers = (
{
hints = (
{
horizontal = 1;
place = "{267, 12}";
type = Stem;
},
{
horizontal = 1;
place = "{501, 8}";
type = Stem;
}
);
layerId = "5758FC1C-8DB2-4040-8B3F-38A5D3FE42F4";
paths = (
{
closed = 1;
nodes = (
"1092 483 OFFCURVE",
"1127 511 OFFCURVE",
"1133 529 CURVE SMOOTH",
"1135 534 OFFCURVE",
"1136 540 OFFCURVE",
"1136 546 CURVE SMOOTH",
"1136 583 OFFCURVE",
"1092 593 OFFCURVE",
"1063 593 CURVE SMOOTH",
"1056 593 OFFCURVE",
"1049 593 OFFCURVE",
"1042 592 CURVE SMOOTH",
"847 560 OFFCURVE",
"619 306 OFFCURVE",
"497 160 CURVE",
"476 178 LINE",
"529 257 OFFCURVE",
"577 339 OFFCURVE",
"627 419 CURVE SMOOTH",
"648 455 OFFCURVE",
"684 516 OFFCURVE",
"710 547 CURVE SMOOTH",
"715 553 OFFCURVE",
"731 569 OFFCURVE",
"731 578 CURVE SMOOTH",
"731 582 OFFCURVE",
"728 582 OFFCURVE",
"725 582 CURVE SMOOTH",
"705 582 OFFCURVE",
"685 581 OFFCURVE",
"665 581 CURVE SMOOTH",
"559 581 OFFCURVE",
"206 597 OFFCURVE",
"206 448 CURVE SMOOTH",
"206 349 OFFCURVE",
"350 224 OFFCURVE",
"424 166 CURVE",
"374 88 OFFCURVE",
"264 -80 OFFCURVE",
"159 -80 CURVE SMOOTH",
"78 -80 OFFCURVE",
"54 2 OFFCURVE",
"54 69 CURVE SMOOTH",
"54 86 OFFCURVE",
"59 102 OFFCURVE",
"59 118 CURVE SMOOTH",
"59 119 OFFCURVE",
"59 127 OFFCURVE",
"56 127 CURVE SMOOTH",
"45 127 OFFCURVE",
"34 70 OFFCURVE",
"33 63 CURVE SMOOTH",
"32 52 OFFCURVE",
"31 42 OFFCURVE",
"31 31 CURVE SMOOTH",
"31 -52 OFFCURVE",
"77 -92 OFFCURVE",
"158 -92 CURVE SMOOTH",
"279 -92 OFFCURVE",
"390 55 OFFCURVE",
"452 144 CURVE",
"472 129 LINE",
"466 123 OFFCURVE",
"453 101 OFFCURVE",
"453 94 CURVE SMOOTH",
"453 93 OFFCURVE",
"454 92 OFFCURVE",
"454 92 CURVE",
"459 92 OFFCURVE",
"478 116 OFFCURVE",
"482 122 CURVE",
"580 51 OFFCURVE",
"807 -103 OFFCURVE",
"929 -103 CURVE SMOOTH",
"936 -103 OFFCURVE",
"959 -103 OFFCURVE",
"959 -91 CURVE SMOOTH",
"959 -80 OFFCURVE",
"917 -39 OFFCURVE",
"907 -39 CURVE SMOOTH",
"904 -39 OFFCURVE",
"903 -41 OFFCURVE",
"903 -43 CURVE SMOOTH",
"903 -53 OFFCURVE",
"927 -65 OFFCURVE",
"927 -76 CURVE SMOOTH",
"927 -82 OFFCURVE",
"920 -82 OFFCURVE",
"916 -82 CURVE SMOOTH",
"906 -82 OFFCURVE",
"894 -79 OFFCURVE",
"885 -76 CURVE SMOOTH",
"752 -35 OFFCURVE",
"614 64 OFFCURVE",
"508 151 CURVE",
"608 263 OFFCURVE",
"916 567 OFFCURVE",
"1065 567 CURVE SMOOTH",
"1084 567 OFFCURVE",
"1102 559 OFFCURVE",
"1102 538 CURVE SMOOTH",
"1102 509 OFFCURVE",
"1071 490 OFFCURVE",
"1071 484 CURVE SMOOTH",
"1071 483 OFFCURVE",
"1072 483 OFFCURVE",
"1073 483 CURVE SMOOTH"
);
},
{
closed = 1;
nodes = (
"642 531 OFFCURVE",
"609 492 OFFCURVE",
"609 476 CURVE SMOOTH",
"609 475 OFFCURVE",
"609 474 OFFCURVE",
"609 472 CURVE",
"585 437 OFFCURVE",
"564 399 OFFCURVE",
"542 362 CURVE SMOOTH",
"511 309 OFFCURVE",
"480 255 OFFCURVE",
"448 203 CURVE",
"389 254 OFFCURVE",
"256 365 OFFCURVE",
"256 446 CURVE SMOOTH",
"256 525 OFFCURVE",
"376 538 OFFCURVE",
"433 542 CURVE SMOOTH",
"475 544 OFFCURVE",
"517 545 OFFCURVE",
"559 545 CURVE SMOOTH",
"590 545 OFFCURVE",
"620 545 OFFCURVE",
"651 544 CURVE"
);
}
);
width = 719;
}
);
note = K;
unicode = 004B;
},
{
glyphname = L;
layers = (
{
hints = (
{
horizontal = 1;
place = "{-33, 16}";
type = Stem;
},
{
horizontal = 1;
place = "{463, 16}";
type = Stem;
}
);
layerId = "5758FC1C-8DB2-4040-8B3F-38A5D3FE42F4";
paths = (
{
closed = 1;
nodes = (
"834 -79 OFFCURVE",
"791 1 OFFCURVE",
"778 1 CURVE SMOOTH",
"776 1 OFFCURVE",
"775 -1 OFFCURVE",
"775 -3 CURVE SMOOTH",
"775 -8 OFFCURVE",
"800 -45 OFFCURVE",
"800 -68 CURVE SMOOTH",
"800 -83 OFFCURVE",
"790 -87 OFFCURVE",
"777 -87 CURVE SMOOTH",
"768 -87 OFFCURVE",
"760 -86 OFFCURVE",
"752 -84 CURVE SMOOTH",
"633 -56 OFFCURVE",
"493 47 OFFCURVE",
"395 118 CURVE",
"417 170 OFFCURVE",
"437 222 OFFCURVE",
"458 274 CURVE SMOOTH",
"489 350 OFFCURVE",
"571 571 OFFCURVE",
"647 608 CURVE SMOOTH",
"656 612 OFFCURVE",
"666 615 OFFCURVE",
"676 615 CURVE SMOOTH",
"713 615 OFFCURVE",
"736 580 OFFCURVE",
"736 546 CURVE SMOOTH",
"736 535 OFFCURVE",
"730 526 OFFCURVE",
"730 515 CURVE SMOOTH",
"730 514 OFFCURVE",
"730 511 OFFCURVE",
"733 511 CURVE SMOOTH",
"736 511 OFFCURVE",
"742 517 OFFCURVE",
"744 519 CURVE SMOOTH",
"759 533 OFFCURVE",
"772 558 OFFCURVE",
"772 579 CURVE SMOOTH",
"772 583 OFFCURVE",
"771 587 OFFCURVE",
"770 591 CURVE SMOOTH",
"759 622 OFFCURVE",
"738 641 OFFCURVE",
"704 641 CURVE SMOOTH",
"534 641 OFFCURVE",
"404 276 OFFCURVE",
"353 148 CURVE",
"290 193 OFFCURVE",
"152 297 OFFCURVE",
"74 297 CURVE SMOOTH",
"15 297 OFFCURVE",
"-10 242 OFFCURVE",
"-10 189 CURVE SMOOTH",
"-10 179 OFFCURVE",
"-3 127 OFFCURVE",
"8 127 CURVE SMOOTH",
"14 127 OFFCURVE",
"15 140 OFFCURVE",
"15 143 CURVE SMOOTH",
"15 162 OFFCURVE",
"7 180 OFFCURVE",
"7 199 CURVE SMOOTH",
"7 231 OFFCURVE",
"20 255 OFFCURVE",
"54 255 CURVE SMOOTH",
"114 255 OFFCURVE",
"283 145 OFFCURVE",
"338 111 CURVE",
"317 60 OFFCURVE",
"257 -86 OFFCURVE",
"190 -86 CURVE SMOOTH",
"139 -86 OFFCURVE",
"101 -9 OFFCURVE",
"84 29 CURVE SMOOTH",
"62 78 OFFCURVE",
"45 163 OFFCURVE",
"45 217 CURVE SMOOTH",
"45 224 OFFCURVE",
"47 239 OFFCURVE",
"38 239 CURVE SMOOTH",
"26 239 OFFCURVE",
"25 206 OFFCURVE",
"25 199 CURVE SMOOTH",
"25 113 OFFCURVE",
"85 -124 OFFCURVE",
"193 -124 CURVE SMOOTH",
"277 -124 OFFCURVE",
"350 20 OFFCURVE",
"380 84 CURVE",
"461 32 OFFCURVE",
"715 -128 OFFCURVE",
"804 -128 CURVE SMOOTH",
"821 -128 OFFCURVE",
"834 -121 OFFCURVE",
"834 -103 CURVE SMOOTH"
);
}
);
width = 538;
}
);
note = L;
unicode = 004C;
},
{
glyphname = M;
layers = (
{
hints = (
{
horizontal = 1;
place = "{-5, 16}";
type = Stem;
},
{
horizontal = 1;
place = "{522, 16}";
type = Stem;
}
);
layerId = "5758FC1C-8DB2-4040-8B3F-38A5D3FE42F4";
paths = (
{
closed = 1;
nodes = (
"547 523 OFFCURVE",
"620 527 OFFCURVE",
"642 556 CURVE SMOOTH",
"643 557 OFFCURVE",
"645 561 OFFCURVE",
"645 562 CURVE SMOOTH",
"645 563 OFFCURVE",
"644 564 OFFCURVE",
"643 564 CURVE SMOOTH",
"639 564 OFFCURVE",
"637 561 OFFCURVE",
"635 559 CURVE SMOOTH",
"619 544 OFFCURVE",
"579 544 OFFCURVE",
"559 544 CURVE SMOOTH",
"485 544 OFFCURVE",
"411 555 OFFCURVE",
"338 566 CURVE SMOOTH",
"311 570 OFFCURVE",
"282 573 OFFCURVE",
"254 573 CURVE SMOOTH",
"205 573 OFFCURVE",
"82 558 OFFCURVE",
"82 488 CURVE SMOOTH",
"82 415 OFFCURVE",
"222 384 OFFCURVE",
"274 376 CURVE SMOOTH",
"276 376 OFFCURVE",
"279 375 OFFCURVE",
"281 375 CURVE SMOOTH",
"283 375 OFFCURVE",
"290 376 OFFCURVE",
"290 379 CURVE SMOOTH",
"290 382 OFFCURVE",
"284 383 OFFCURVE",
"282 384 CURVE",
"267 386 OFFCURVE",
"253 388 OFFCURVE",
"238 392 CURVE SMOOTH",
"202 403 OFFCURVE",
"149 429 OFFCURVE",
"149 474 CURVE SMOOTH",
"149 532 OFFCURVE",
"230 546 OFFCURVE",
"273 546 CURVE SMOOTH",
"291 546 OFFCURVE",
"310 544 OFFCURVE",
"328 541 CURVE SMOOTH",
"389 532 OFFCURVE",
"451 523 OFFCURVE",
"513 523 CURVE SMOOTH"
);
},
{
closed = 1;
nodes = (
"772 -28 OFFCURVE",
"772 -19 OFFCURVE",
"773 -9 CURVE SMOOTH",
"790 164 OFFCURVE",
"899 371 OFFCURVE",
"991 517 CURVE SMOOTH",
"1012 552 OFFCURVE",
"1035 584 OFFCURVE",
"1058 618 CURVE",
"1058 621 LINE SMOOTH",
"1058 631 OFFCURVE",
"1041 632 OFFCURVE",
"1035 632 CURVE SMOOTH",
"1019 632 OFFCURVE",
"999 627 OFFCURVE",
"987 616 CURVE",
"979 601 OFFCURVE",
"941 545 OFFCURVE",
"941 533 CURVE SMOOTH",
"941 531 OFFCURVE",
"941 528 OFFCURVE",
"942 526 CURVE",
"935 513 OFFCURVE",
"929 501 OFFCURVE",
"921 489 CURVE SMOOTH",
"870 408 OFFCURVE",
"624 108 OFFCURVE",
"533 108 CURVE SMOOTH",
"502 108 OFFCURVE",
"497 143 OFFCURVE",
"497 167 CURVE SMOOTH",
"497 253 OFFCURVE",
"505 349 OFFCURVE",
"528 432 CURVE SMOOTH",
"531 441 OFFCURVE",
"537 459 OFFCURVE",
"537 468 CURVE SMOOTH",
"537 475 OFFCURVE",
"533 476 OFFCURVE",
"527 476 CURVE SMOOTH",
"519 476 OFFCURVE",
"510 474 OFFCURVE",
"502 471 CURVE",
"507 481 OFFCURVE",
"520 507 OFFCURVE",
"520 516 CURVE SMOOTH",
"520 518 OFFCURVE",
"519 521 OFFCURVE",
"517 521 CURVE SMOOTH",
"508 521 OFFCURVE",
"498 500 OFFCURVE",
"495 494 CURVE SMOOTH",
"445 381 OFFCURVE",
"204 -61 OFFCURVE",
"81 -61 CURVE SMOOTH",
"24 -61 OFFCURVE",
"13 37 OFFCURVE",
"13 78 CURVE SMOOTH",
"13 130 OFFCURVE",
"21 185 OFFCURVE",
"36 234 CURVE SMOOTH",
"37 236 OFFCURVE",
"38 239 OFFCURVE",
"38 241 CURVE SMOOTH",
"38 244 OFFCURVE",
"37 248 OFFCURVE",
"33 248 CURVE SMOOTH",
"28 248 OFFCURVE",
"24 242 OFFCURVE",
"21 239 CURVE",
"-2 205 OFFCURVE",
"-10 108 OFFCURVE",
"-10 68 CURVE SMOOTH",
"-10 13 OFFCURVE",
"1 -107 OFFCURVE",
"78 -107 CURVE SMOOTH",
"187 -107 OFFCURVE",
"320 109 OFFCURVE",
"365 191 CURVE SMOOTH",
"406 267 OFFCURVE",
"443 344 OFFCURVE",
"479 422 CURVE",
"461 338 OFFCURVE",
"447 247 OFFCURVE",
"447 160 CURVE SMOOTH",
"447 120 OFFCURVE",
"451 55 OFFCURVE",
"505 55 CURVE SMOOTH",
"557 55 OFFCURVE",
"627 115 OFFCURVE",
"662 150 CURVE SMOOTH",
"690 177 OFFCURVE",
"716 207 OFFCURVE",
"741 237 CURVE SMOOTH",
"783 283 OFFCURVE",
"824 331 OFFCURVE",
"863 379 CURVE",
"812 278 OFFCURVE",
"710 67 OFFCURVE",
"710 -44 CURVE SMOOTH",
"710 -82 OFFCURVE",
"722 -115 OFFCURVE",
"766 -115 CURVE SMOOTH",
"777 -115 OFFCURVE",
"838 -103 OFFCURVE",
"838 -94 CURVE SMOOTH",
"838 -92 OFFCURVE",
"830 -92 OFFCURVE",
"829 -92 CURVE SMOOTH",
"818 -92 OFFCURVE",
"808 -97 OFFCURVE",
"797 -97 CURVE SMOOTH",
"773 -97 OFFCURVE",
"772 -53 OFFCURVE",
"772 -37 CURVE SMOOTH"
);
}
);
width = 884;
}
);
note = M;
unicode = 004D;
},
{
glyphname = N;
layers = (
{
hints = (
{
horizontal = 1;
place = "{-27, 16}";
type = Stem;
},
{
horizontal = 1;
place = "{494, 16}";
type = Stem;
},
{
place = "{403, 15}";
type = Stem;
}
);
layerId = "5758FC1C-8DB2-4040-8B3F-38A5D3FE42F4";
paths = (
{
closed = 1;
nodes = (
"618 4 OFFCURVE",
"621 17 OFFCURVE",
"622 21 CURVE SMOOTH",
"629 43 OFFCURVE",
"635 64 OFFCURVE",
"643 85 CURVE SMOOTH",
"697 230 OFFCURVE",
"816 429 OFFCURVE",
"929 534 CURVE SMOOTH",
"948 552 OFFCURVE",
"967 566 OFFCURVE",
"988 581 CURVE SMOOTH",
"1001 590 OFFCURVE",
"1011 602 OFFCURVE",
"1011 618 CURVE SMOOTH",
"1011 628 OFFCURVE",
"1005 636 OFFCURVE",
"994 636 CURVE SMOOTH",
"961 636 OFFCURVE",
"940 600 OFFCURVE",
"919 582 CURVE SMOOTH",
"898 564 OFFCURVE",
"869 560 OFFCURVE",
"843 560 CURVE SMOOTH",
"839 560 OFFCURVE",
"834 558 OFFCURVE",
"834 553 CURVE SMOOTH",
"834 549 OFFCURVE",
"838 547 OFFCURVE",
"841 547 CURVE SMOOTH",
"859 547 OFFCURVE",
"877 549 OFFCURVE",
"893 556 CURVE",
"764 416 OFFCURVE",
"661 204 OFFCURVE",
"605 23 CURVE SMOOTH",
"604 21 OFFCURVE",
"604 19 OFFCURVE",
"604 18 CURVE SMOOTH",
"604 14 OFFCURVE",
"606 4 OFFCURVE",
"612 4 CURVE SMOOTH"
);
},
{
closed = 1;
nodes = (
"690 -17 OFFCURVE",
"691 -14 OFFCURVE",
"687 -14 CURVE SMOOTH",
"678 -14 OFFCURVE",
"669 -67 OFFCURVE",
"638 -67 CURVE SMOOTH",
"636 -67 OFFCURVE",
"633 -67 OFFCURVE",
"631 -66 CURVE SMOOTH",
"570 -43 OFFCURVE",
"523 182 OFFCURVE",
"509 242 CURVE SMOOTH",
"497 291 OFFCURVE",
"485 340 OFFCURVE",
"471 389 CURVE",
"476 401 OFFCURVE",
"492 439 OFFCURVE",
"492 451 CURVE SMOOTH",
"492 452 OFFCURVE",
"492 455 OFFCURVE",
"490 455 CURVE SMOOTH",
"481 455 OFFCURVE",
"467 424 OFFCURVE",
"463 415 CURVE",
"448 465 OFFCURVE",
"417 565 OFFCURVE",
"352 565 CURVE SMOOTH",
"341 565 OFFCURVE",
"332 562 OFFCURVE",
"322 559 CURVE SMOOTH",
"313 556 OFFCURVE",
"303 549 OFFCURVE",
"295 543 CURVE SMOOTH",
"254 516 OFFCURVE",
"222 480 OFFCURVE",
"202 435 CURVE",
"202 433 OFFCURVE",
"201 431 OFFCURVE",
"201 429 CURVE SMOOTH",
"201 428 OFFCURVE",
"202 426 OFFCURVE",
"203 426 CURVE SMOOTH",
"224 426 OFFCURVE",
"259 532 OFFCURVE",
"320 532 CURVE SMOOTH",
"382 532 OFFCURVE",
"421 409 OFFCURVE",
"437 363 CURVE",
"387 266 OFFCURVE",
"215 -67 OFFCURVE",
"96 -67 CURVE SMOOTH",
"51 -67 OFFCURVE",
"34 -23 OFFCURVE",
"34 15 CURVE SMOOTH",
"34 113 OFFCURVE",
"111 191 OFFCURVE",
"188 239 CURVE SMOOTH",
"190 240 OFFCURVE",
"195 242 OFFCURVE",
"195 245 CURVE SMOOTH",
"195 247 OFFCURVE",
"190 248 OFFCURVE",
"189 248 CURVE SMOOTH",
"184 248 OFFCURVE",
"178 246 OFFCURVE",
"174 244 CURVE SMOOTH",
"85 200 OFFCURVE",
"13 110 OFFCURVE",
"13 8 CURVE SMOOTH",
"13 -46 OFFCURVE",
"39 -109 OFFCURVE",
"102 -109 CURVE SMOOTH",
"149 -109 OFFCURVE",
"196 -74 OFFCURVE",
"228 -43 CURVE SMOOTH",
"295 22 OFFCURVE",
"405 244 OFFCURVE",
"446 333 CURVE",
"462 284 OFFCURVE",
"475 233 OFFCURVE",
"489 183 CURVE SMOOTH",
"508 116 OFFCURVE",
"546 -33 OFFCURVE",
"591 -84 CURVE SMOOTH",
"601 -95 OFFCURVE",
"611 -103 OFFCURVE",
"626 -105 CURVE SMOOTH",
"628 -105 LINE SMOOTH",
"658 -106 OFFCURVE",
"676 -66 OFFCURVE",
"684 -43 CURVE",
"684 -40 OFFCURVE",
"690 -21 OFFCURVE",
"690 -19 CURVE SMOOTH"
);
}
);
width = 736;
}
);
note = N;
unicode = 004E;
},
{
color = 3;
glyphname = Eng;
lastChange = "2021-05-05 19:46:58 +0000";
layers = (
{
hints = (
{
horizontal = 1;
place = "{-27, 16}";
type = Stem;
},
{
horizontal = 1;
place = "{494, 16}";
type = Stem;
},
{
place = "{403, 15}";
type = Stem;
},
{
horizontal = 1;
place = "{606, 16}";
type = Stem;
}
);
layerId = "5758FC1C-8DB2-4040-8B3F-38A5D3FE42F4";
paths = (
{
closed = 1;
nodes = (
"690 -17 OFFCURVE",
"691 -14 OFFCURVE",
"687 -14 CURVE SMOOTH",
"678 -14 OFFCURVE",
"669 -67 OFFCURVE",
"638 -67 CURVE SMOOTH",
"636 -67 OFFCURVE",
"633 -67 OFFCURVE",
"631 -66 CURVE SMOOTH",
"570 -43 OFFCURVE",
"523 182 OFFCURVE",
"509 242 CURVE SMOOTH",
"497 291 OFFCURVE",
"485 340 OFFCURVE",
"471 389 CURVE",
"476 401 OFFCURVE",
"492 439 OFFCURVE",
"492 451 CURVE SMOOTH",
"492 452 OFFCURVE",
"492 455 OFFCURVE",
"490 455 CURVE SMOOTH",
"481 455 OFFCURVE",
"467 424 OFFCURVE",
"463 415 CURVE",
"448 465 OFFCURVE",
"417 565 OFFCURVE",
"352 565 CURVE SMOOTH",
"341 565 OFFCURVE",
"332 562 OFFCURVE",
"322 559 CURVE SMOOTH",
"313 556 OFFCURVE",
"303 549 OFFCURVE",
"295 543 CURVE SMOOTH",
"254 516 OFFCURVE",
"222 480 OFFCURVE",
"202 435 CURVE",
"202 433 OFFCURVE",
"201 431 OFFCURVE",
"201 429 CURVE SMOOTH",
"201 428 OFFCURVE",
"202 426 OFFCURVE",
"203 426 CURVE SMOOTH",
"224 426 OFFCURVE",
"259 532 OFFCURVE",
"320 532 CURVE SMOOTH",
"382 532 OFFCURVE",
"421 409 OFFCURVE",
"437 363 CURVE",
"387 266 OFFCURVE",
"215 -67 OFFCURVE",
"96 -67 CURVE SMOOTH",
"51 -67 OFFCURVE",
"34 -23 OFFCURVE",
"34 15 CURVE SMOOTH",
"34 113 OFFCURVE",
"111 191 OFFCURVE",
"188 239 CURVE SMOOTH",
"190 240 OFFCURVE",
"195 242 OFFCURVE",
"195 245 CURVE SMOOTH",
"195 247 OFFCURVE",
"190 248 OFFCURVE",
"189 248 CURVE SMOOTH",
"184 248 OFFCURVE",
"178 246 OFFCURVE",
"174 244 CURVE SMOOTH",
"85 200 OFFCURVE",
"13 110 OFFCURVE",
"13 8 CURVE SMOOTH",
"13 -46 OFFCURVE",
"39 -109 OFFCURVE",
"102 -109 CURVE SMOOTH",
"149 -109 OFFCURVE",
"196 -74 OFFCURVE",
"228 -43 CURVE SMOOTH",
"295 22 OFFCURVE",
"405 244 OFFCURVE",
"446 333 CURVE",
"462 284 OFFCURVE",
"475 233 OFFCURVE",
"489 183 CURVE SMOOTH",
"508 116 OFFCURVE",
"546 -33 OFFCURVE",
"591 -84 CURVE SMOOTH",
"601 -95 OFFCURVE",
"611 -103 OFFCURVE",
"626 -105 CURVE SMOOTH",
"628 -105 LINE SMOOTH",
"658 -106 OFFCURVE",
"676 -66 OFFCURVE",
"684 -43 CURVE",
"684 -40 OFFCURVE",
"690 -21 OFFCURVE",
"690 -19 CURVE SMOOTH"
);
},
{
closed = 1;
nodes = (
"961 636 OFFCURVE",
"940 600 OFFCURVE",
"919 582 CURVE SMOOTH",
"898 564 OFFCURVE",
"869 560 OFFCURVE",
"843 560 CURVE SMOOTH",
"839 560 OFFCURVE",
"834 558 OFFCURVE",
"834 553 CURVE SMOOTH",
"834 549 OFFCURVE",
"838 547 OFFCURVE",
"841 547 CURVE SMOOTH",
"859 547 OFFCURVE",
"877 549 OFFCURVE",
"893 556 CURVE",
"776 447 OFFCURVE",
"645 35 OFFCURVE",
"454 -267 CURVE SMOOTH",
"411 -335 OFFCURVE",
"344 -418 OFFCURVE",
"267 -418 CURVE SMOOTH",
"227 -418 OFFCURVE",
"190 -391 OFFCURVE",
"190 -339 CURVE SMOOTH",
"190 -279 OFFCURVE",
"237 -221 OFFCURVE",
"283 -187 CURVE",
"315 -172 OFFCURVE",
"308 -163 OFFCURVE",
"277 -173 CURVE",
"220 -206 OFFCURVE",
"155 -261 OFFCURVE",
"155 -332 CURVE SMOOTH",
"155 -406 OFFCURVE",
"222 -440 OFFCURVE",
"275 -440 CURVE SMOOTH",
"359 -440 OFFCURVE",
"429 -375 OFFCURVE",
"476 -297 CURVE SMOOTH",
"569 -143 OFFCURVE",
"782 340 OFFCURVE",
"929 534 CURVE SMOOTH",
"945 555 OFFCURVE",
"967 566 OFFCURVE",
"988 581 CURVE SMOOTH",
"1001 590 OFFCURVE",
"1011 602 OFFCURVE",
"1011 618 CURVE SMOOTH",
"1011 628 OFFCURVE",
"1005 636 OFFCURVE",
"994 636 CURVE SMOOTH"
);
}
);
width = 1256;
}
);
unicode = 014A;
},
{
glyphname = Ntilde;
lastChange = "2021-05-05 19:50:22 +0000";
layers = (
{
hints = (
{
horizontal = 1;
place = "{565, 27}";
type = Stem;
},
{
horizontal = 1;
place = "{603, 24}";
type = Stem;
}
);
layerId = "5758FC1C-8DB2-4040-8B3F-38A5D3FE42F4";
paths = (
{
closed = 1;
nodes = (
"774 609 LINE",
"763 608 OFFCURVE",
"749 592 OFFCURVE",
"730 592 CURVE SMOOTH",
"689 592 OFFCURVE",
"677 627 OFFCURVE",
"647 627 CURVE SMOOTH",
"636 627 OFFCURVE",
"590 597 OFFCURVE",
"585 587 CURVE",
"586 583 LINE",
"597 585 OFFCURVE",
"612 603 OFFCURVE",
"633 603 CURVE SMOOTH",
"666 603 OFFCURVE",
"677 565 OFFCURVE",
"713 565 CURVE SMOOTH",
"724 565 OFFCURVE",
"771 597 OFFCURVE",
"775 608 CURVE"
);
},
{
closed = 1;
nodes = (
"618 4 OFFCURVE",
"621 17 OFFCURVE",
"622 21 CURVE SMOOTH",
"629 43 OFFCURVE",
"635 64 OFFCURVE",
"643 85 CURVE SMOOTH",
"697 230 OFFCURVE",
"816 429 OFFCURVE",
"929 534 CURVE SMOOTH",
"948 552 OFFCURVE",
"967 566 OFFCURVE",
"988 581 CURVE SMOOTH",
"1001 590 OFFCURVE",
"1011 602 OFFCURVE",
"1011 618 CURVE SMOOTH",
"1011 628 OFFCURVE",
"1005 636 OFFCURVE",
"994 636 CURVE SMOOTH",
"961 636 OFFCURVE",
"940 600 OFFCURVE",
"919 582 CURVE SMOOTH",
"898 564 OFFCURVE",
"869 560 OFFCURVE",
"843 560 CURVE SMOOTH",
"839 560 OFFCURVE",
"834 557 OFFCURVE",
"834 553 CURVE SMOOTH",
"834 549 OFFCURVE",
"838 547 OFFCURVE",
"841 547 CURVE SMOOTH",
"859 547 OFFCURVE",
"877 549 OFFCURVE",
"893 556 CURVE",
"764 416 OFFCURVE",
"661 204 OFFCURVE",
"605 23 CURVE SMOOTH",
"604 21 OFFCURVE",
"604 19 OFFCURVE",
"604 18 CURVE SMOOTH",
"604 14 OFFCURVE",
"606 4 OFFCURVE",
"612 4 CURVE SMOOTH"
);
},
{
closed = 1;
nodes = (
"690 -17 OFFCURVE",
"690 -14 OFFCURVE",
"687 -14 CURVE SMOOTH",
"678 -14 OFFCURVE",
"669 -67 OFFCURVE",
"638 -67 CURVE SMOOTH",
"636 -67 OFFCURVE",
"633 -67 OFFCURVE",
"631 -66 CURVE SMOOTH",
"570 -43 OFFCURVE",
"523 182 OFFCURVE",
"509 242 CURVE SMOOTH",
"496 291 OFFCURVE",
"485 340 OFFCURVE",
"471 389 CURVE",
"476 401 OFFCURVE",
"492 439 OFFCURVE",
"492 451 CURVE SMOOTH",
"492 452 OFFCURVE",
"492 455 OFFCURVE",
"490 455 CURVE SMOOTH",
"481 455 OFFCURVE",
"467 424 OFFCURVE",
"463 415 CURVE",
"448 465 OFFCURVE",
"417 565 OFFCURVE",
"352 565 CURVE SMOOTH",
"341 565 OFFCURVE",
"332 562 OFFCURVE",
"322 559 CURVE SMOOTH",
"313 556 OFFCURVE",
"303 549 OFFCURVE",
"295 543 CURVE SMOOTH",
"254 516 OFFCURVE",
"222 480 OFFCURVE",
"202 435 CURVE",
"202 433 OFFCURVE",
"201 431 OFFCURVE",
"201 429 CURVE SMOOTH",
"201 428 OFFCURVE",
"202 426 OFFCURVE",
"203 426 CURVE SMOOTH",
"224 426 OFFCURVE",
"259 532 OFFCURVE",
"320 532 CURVE SMOOTH",
"382 532 OFFCURVE",
"421 409 OFFCURVE",
"437 363 CURVE",
"387 266 OFFCURVE",
"215 -67 OFFCURVE",
"96 -67 CURVE SMOOTH",
"51 -67 OFFCURVE",
"34 -23 OFFCURVE",
"34 15 CURVE SMOOTH",
"34 113 OFFCURVE",
"111 191 OFFCURVE",
"188 239 CURVE SMOOTH",
"190 240 OFFCURVE",
"195 242 OFFCURVE",
"195 245 CURVE SMOOTH",
"195 247 OFFCURVE",
"190 248 OFFCURVE",
"189 248 CURVE SMOOTH",
"184 248 OFFCURVE",
"178 246 OFFCURVE",
"174 244 CURVE SMOOTH",
"85 200 OFFCURVE",
"13 110 OFFCURVE",
"13 8 CURVE SMOOTH",
"13 -46 OFFCURVE",
"39 -109 OFFCURVE",
"102 -109 CURVE SMOOTH",
"149 -109 OFFCURVE",
"196 -74 OFFCURVE",
"228 -43 CURVE SMOOTH",
"295 22 OFFCURVE",
"405 244 OFFCURVE",
"446 333 CURVE",
"462 284 OFFCURVE",
"475 233 OFFCURVE",
"489 183 CURVE SMOOTH",
"508 116 OFFCURVE",
"546 -33 OFFCURVE",
"591 -84 CURVE SMOOTH",
"601 -95 OFFCURVE",
"611 -105 OFFCURVE",
"625 -105 CURVE SMOOTH",
"628 -105 LINE SMOOTH",
"658 -105 OFFCURVE",
"676 -66 OFFCURVE",
"684 -43 CURVE",
"684 -40 OFFCURVE",
"690 -21 OFFCURVE",
"690 -19 CURVE SMOOTH"
);
}
);
width = 774;
}
);
note = Ntilde;
unicode = 00D1;
},
{
glyphname = O;
layers = (
{
hints = (
{
horizontal = 1;
place = "{-47, 17}";
type = Stem;
},
{
horizontal = 1;
place = "{437, 14}";
type = Stem;
},
{
place = "{-3, 42}";
type = Stem;
},
{
place = "{480, 44}";
type = Stem;
}
);
layerId = "5758FC1C-8DB2-4040-8B3F-38A5D3FE42F4";
paths = (
{
closed = 1;
nodes = (
"741 544 OFFCURVE",
"733 548 OFFCURVE",
"727 551 CURVE SMOOTH",
"685 570 OFFCURVE",
"628 580 OFFCURVE",
"582 579 CURVE SMOOTH",
"572 579 LINE",
"521 598 OFFCURVE",
"466 606 OFFCURVE",
"411 606 CURVE SMOOTH",
"293 606 OFFCURVE",
"111 558 OFFCURVE",
"111 410 CURVE SMOOTH",
"111 384 OFFCURVE",
"117 359 OFFCURVE",
"126 334 CURVE",
"77 273 OFFCURVE",
"26 185 OFFCURVE",
"26 104 CURVE SMOOTH",
"26 -21 OFFCURVE",
"139 -53 OFFCURVE",
"243 -53 CURVE SMOOTH",
"397 -53 OFFCURVE",
"549 52 OFFCURVE",
"639 171 CURVE SMOOTH",
"684 231 OFFCURVE",
"728 310 OFFCURVE",
"728 387 CURVE SMOOTH",
"728 466 OFFCURVE",
"682 524 OFFCURVE",
"614 560 CURVE",
"652 557 OFFCURVE",
"686 547 OFFCURVE",
"720 530 CURVE",
"724 529 OFFCURVE",
"727 528 OFFCURVE",
"731 528 CURVE SMOOTH",
"736 528 OFFCURVE",
"741 531 OFFCURVE",
"741 536 CURVE SMOOTH"
);
},
{
closed = 1;
nodes = (
"357 538 OFFCURVE",
"241 462 OFFCURVE",
"156 368 CURVE",
"153 383 OFFCURVE",
"151 399 OFFCURVE",
"151 414 CURVE SMOOTH",
"151 536 OFFCURVE",
"279 579 OFFCURVE",
"381 579 CURVE SMOOTH",
"414 579 OFFCURVE",
"448 575 OFFCURVE",
"480 567 CURVE"
);
},
{
closed = 1;
nodes = (
"676 285 OFFCURVE",
"640 214 OFFCURVE",
"600 157 CURVE SMOOTH",
"524 50 OFFCURVE",
"376 -22 OFFCURVE",
"245 -22 CURVE SMOOTH",
"153 -22 OFFCURVE",
"73 24 OFFCURVE",
"73 125 CURVE SMOOTH",
"73 189 OFFCURVE",
"107 254 OFFCURVE",
"143 305 CURVE",
"164 266 OFFCURVE",
"211 208 OFFCURVE",
"260 208 CURVE SMOOTH",
"298 208 OFFCURVE",
"311 246 OFFCURVE",
"311 278 CURVE SMOOTH",
"311 283 OFFCURVE",
"308 287 OFFCURVE",
"303 287 CURVE SMOOTH",
"298 287 OFFCURVE",
"295 283 OFFCURVE",
"295 279 CURVE SMOOTH",
"293 261 OFFCURVE",
"292 222 OFFCURVE",
"266 222 CURVE SMOOTH",
"226 222 OFFCURVE",
"178 302 OFFCURVE",
"165 333 CURVE",
"250 438 OFFCURVE",
"384 530 OFFCURVE",
"519 555 CURVE",
"606 522 OFFCURVE",
"676 455 OFFCURVE",
"676 356 CURVE SMOOTH"
);
}
);
width = 672;
}
);
note = O;
unicode = 004F;
},
{
glyphname = Odieresis;
layers = (
{
hints = (
{
horizontal = 1;
place = "{-53, 31}";
type = Stem;
},
{
horizontal = 1;
place = "{208, 14}";
type = Stem;
},
{
horizontal = 1;
place = "{287, -20}";
target = down;
type = TopGhost;
},
{
horizontal = 1;
place = "{579, 27}";
type = Stem;
},
{
place = "{26, 47}";
type = Stem;
},
{
place = "{111, 40}";
type = Stem;
},
{
place = "{676, 52}";
type = Stem;
},
{
horizontal = 1;
place = "{560, 19}";
type = Stem;
},
{
place = "{295, 16}";
type = Stem;
}
);
layerId = "5758FC1C-8DB2-4040-8B3F-38A5D3FE42F4";
paths = (
{
closed = 1;
nodes = (
"793 707 LINE",
"791 708 LINE",
"772 708 OFFCURVE",
"710 676 OFFCURVE",
"710 655 CURVE SMOOTH",
"710 649 OFFCURVE",
"713 637 OFFCURVE",
"720 637 CURVE SMOOTH",
"741 637 OFFCURVE",
"761 679 OFFCURVE",
"776 692 CURVE",
"778 695 OFFCURVE",
"792 705 OFFCURVE",
"793 706 CURVE",
"793 707 OFFCURVE",
"793 707 OFFCURVE",
"793 708 CURVE"
);
},
{
closed = 1;
nodes = (
"693 707 LINE",
"691 708 LINE",
"672 708 OFFCURVE",
"611 676 OFFCURVE",
"611 655 CURVE SMOOTH",
"611 649 OFFCURVE",
"613 637 OFFCURVE",
"621 637 CURVE SMOOTH",
"642 637 OFFCURVE",
"662 679 OFFCURVE",
"676 692 CURVE SMOOTH",
"679 695 OFFCURVE",
"692 705 OFFCURVE",
"693 706 CURVE",
"693 707 OFFCURVE",
"693 707 OFFCURVE",
"693 708 CURVE"
);
},
{
closed = 1;
nodes = (
"741 544 OFFCURVE",
"733 548 OFFCURVE",
"727 551 CURVE SMOOTH",
"685 570 OFFCURVE",
"628 580 OFFCURVE",
"582 579 CURVE SMOOTH",
"572 579 LINE",
"521 598 OFFCURVE",
"466 606 OFFCURVE",
"411 606 CURVE SMOOTH",
"293 606 OFFCURVE",
"111 558 OFFCURVE",
"111 410 CURVE SMOOTH",
"111 384 OFFCURVE",
"117 359 OFFCURVE",
"126 334 CURVE",
"77 273 OFFCURVE",
"26 185 OFFCURVE",
"26 104 CURVE SMOOTH",
"26 -21 OFFCURVE",
"139 -53 OFFCURVE",
"243 -53 CURVE SMOOTH",
"397 -53 OFFCURVE",
"549 52 OFFCURVE",
"639 171 CURVE SMOOTH",
"684 231 OFFCURVE",
"728 310 OFFCURVE",
"728 387 CURVE SMOOTH",
"728 466 OFFCURVE",
"682 524 OFFCURVE",
"614 560 CURVE",
"652 557 OFFCURVE",
"686 547 OFFCURVE",
"720 530 CURVE",
"724 529 OFFCURVE",
"727 528 OFFCURVE",
"731 528 CURVE SMOOTH",
"736 528 OFFCURVE",
"741 531 OFFCURVE",
"741 536 CURVE SMOOTH"
);
},
{
closed = 1;
nodes = (
"357 538 OFFCURVE",
"241 462 OFFCURVE",
"156 368 CURVE",
"153 383 OFFCURVE",
"151 399 OFFCURVE",
"151 414 CURVE SMOOTH",
"151 536 OFFCURVE",
"279 579 OFFCURVE",
"381 579 CURVE SMOOTH",
"414 579 OFFCURVE",
"448 575 OFFCURVE",
"480 567 CURVE"
);
},
{
closed = 1;
nodes = (
"676 285 OFFCURVE",
"640 214 OFFCURVE",
"600 157 CURVE SMOOTH",
"524 50 OFFCURVE",
"376 -22 OFFCURVE",
"245 -22 CURVE SMOOTH",
"153 -22 OFFCURVE",
"73 24 OFFCURVE",
"73 125 CURVE SMOOTH",
"73 189 OFFCURVE",
"107 254 OFFCURVE",
"143 305 CURVE",
"164 266 OFFCURVE",
"211 208 OFFCURVE",
"260 208 CURVE SMOOTH",
"298 208 OFFCURVE",
"311 246 OFFCURVE",
"311 278 CURVE SMOOTH",
"311 283 OFFCURVE",
"308 287 OFFCURVE",
"303 287 CURVE SMOOTH",
"298 287 OFFCURVE",
"295 283 OFFCURVE",
"295 279 CURVE SMOOTH",
"293 261 OFFCURVE",
"292 222 OFFCURVE",
"266 222 CURVE SMOOTH",
"226 222 OFFCURVE",
"178 302 OFFCURVE",
"165 333 CURVE",
"250 438 OFFCURVE",
"384 530 OFFCURVE",
"519 555 CURVE",
"606 522 OFFCURVE",
"676 455 OFFCURVE",
"676 356 CURVE SMOOTH"
);
}
);
width = 521;
}
);
note = Odieresis;
unicode = 00D6;
},
{
glyphname = Otilde;
lastChange = "2020-01-05 07:47:45 +0000";
layers = (
{
hints = (
{
horizontal = 1;
place = "{648, 27}";
type = Stem;
},
{
horizontal = 1;
place = "{686, 24}";
type = Stem;
}
);
layerId = "5758FC1C-8DB2-4040-8B3F-38A5D3FE42F4";
paths = (
{
closed = 1;
nodes = (
"691 698 LINE",
"681 697 OFFCURVE",
"670 681 OFFCURVE",
"651 681 CURVE SMOOTH",
"610 681 OFFCURVE",
"588 716 OFFCURVE",
"559 716 CURVE SMOOTH",
"548 716 OFFCURVE",
"509 687 OFFCURVE",
"507 676 CURVE",
"510 673 LINE",
"519 674 OFFCURVE",
"531 693 OFFCURVE",
"551 693 CURVE SMOOTH",
"584 693 OFFCURVE",
"605 654 OFFCURVE",
"641 654 CURVE SMOOTH",
"652 654 OFFCURVE",
"690 686 OFFCURVE",
"692 697 CURVE"
);
},
{
closed = 1;
nodes = (
"741 544 OFFCURVE",
"733 548 OFFCURVE",
"727 551 CURVE SMOOTH",
"685 570 OFFCURVE",
"628 580 OFFCURVE",
"582 579 CURVE SMOOTH",
"572 579 LINE",
"521 598 OFFCURVE",
"466 606 OFFCURVE",
"411 606 CURVE SMOOTH",
"293 606 OFFCURVE",
"111 558 OFFCURVE",
"111 410 CURVE SMOOTH",
"111 384 OFFCURVE",
"117 359 OFFCURVE",
"126 334 CURVE",
"77 273 OFFCURVE",
"26 185 OFFCURVE",
"26 104 CURVE SMOOTH",
"26 -21 OFFCURVE",
"139 -53 OFFCURVE",
"243 -53 CURVE SMOOTH",
"397 -53 OFFCURVE",
"549 52 OFFCURVE",
"639 171 CURVE SMOOTH",
"684 231 OFFCURVE",
"728 310 OFFCURVE",
"728 387 CURVE SMOOTH",
"728 466 OFFCURVE",
"682 524 OFFCURVE",
"614 560 CURVE",
"652 557 OFFCURVE",
"686 547 OFFCURVE",
"720 530 CURVE",
"724 529 OFFCURVE",
"727 528 OFFCURVE",
"731 528 CURVE SMOOTH",
"736 528 OFFCURVE",
"741 531 OFFCURVE",
"741 536 CURVE SMOOTH"
);
},
{
closed = 1;
nodes = (
"357 538 OFFCURVE",
"241 462 OFFCURVE",
"156 368 CURVE",
"153 383 OFFCURVE",
"151 399 OFFCURVE",
"151 414 CURVE SMOOTH",
"151 536 OFFCURVE",
"279 579 OFFCURVE",
"381 579 CURVE SMOOTH",
"414 579 OFFCURVE",
"448 575 OFFCURVE",
"480 567 CURVE"
);
},
{
closed = 1;
nodes = (
"676 285 OFFCURVE",
"640 214 OFFCURVE",
"600 157 CURVE SMOOTH",
"524 50 OFFCURVE",
"376 -22 OFFCURVE",
"245 -22 CURVE SMOOTH",
"153 -22 OFFCURVE",
"73 24 OFFCURVE",
"73 125 CURVE SMOOTH",
"73 189 OFFCURVE",
"107 254 OFFCURVE",
"143 305 CURVE",
"164 266 OFFCURVE",
"211 208 OFFCURVE",
"260 208 CURVE SMOOTH",
"298 208 OFFCURVE",
"311 246 OFFCURVE",
"311 278 CURVE SMOOTH",
"311 283 OFFCURVE",
"308 287 OFFCURVE",
"303 287 CURVE SMOOTH",
"298 287 OFFCURVE",
"295 283 OFFCURVE",
"295 279 CURVE SMOOTH",
"293 261 OFFCURVE",
"292 222 OFFCURVE",
"266 222 CURVE SMOOTH",
"226 222 OFFCURVE",
"178 302 OFFCURVE",
"165 333 CURVE",
"250 438 OFFCURVE",
"384 530 OFFCURVE",
"519 555 CURVE",
"606 522 OFFCURVE",
"676 455 OFFCURVE",
"676 356 CURVE SMOOTH"
);
}
);
width = 574;
}
);
note = Otilde;
unicode = 00D5;
},
{
glyphname = OE;
layers = (
{
hints = (
{
horizontal = 1;
place = "{-286, 31}";
type = Stem;
},
{
horizontal = 1;
place = "{-54, 20}";
type = Stem;
},
{
horizontal = 1;
place = "{79, 30}";
type = Stem;
},
{
horizontal = 1;
place = "{492, 15}";
type = Stem;
},
{
horizontal = 1;
place = "{553, 21}";
target = up;
type = BottomGhost;
},
{
place = "{30, 37}";
type = Stem;
},
{
place = "{185, 16}";
type = Stem;
},
{
place = "{450, 38}";
type = Stem;
},
{
place = "{676, 35}";
type = Stem;
}
);
layerId = "5758FC1C-8DB2-4040-8B3F-38A5D3FE42F4";
paths = (
{
closed = 1;
nodes = (
"1323 562 OFFCURVE",
"1348 613 OFFCURVE",
"1348 625 CURVE SMOOTH",
"1348 629 OFFCURVE",
"1347 637 OFFCURVE",
"1341 637 CURVE SMOOTH",
"1334 637 OFFCURVE",
"1328 627 OFFCURVE",
"1328 620 CURVE SMOOTH",
"1328 609 OFFCURVE",
"1309 580 OFFCURVE",
"1301 570 CURVE",
"1279 604 OFFCURVE",
"1214 617 OFFCURVE",
"1176 617 CURVE SMOOTH",
"1173 617 OFFCURVE",
"1169 617 OFFCURVE",
"1166 616 CURVE",
"1001 606 OFFCURVE",
"845 538 OFFCURVE",
"724 426 CURVE",
"712 487 OFFCURVE",
"668 531 OFFCURVE",
"614 560 CURVE",
"620 560 OFFCURVE",
"646 558 OFFCURVE",
"646 564 CURVE SMOOTH",
"646 576 OFFCURVE",
"587 579 OFFCURVE",
"579 579 CURVE SMOOTH",
"572 579 LINE",
"521 598 OFFCURVE",
"466 606 OFFCURVE",
"411 606 CURVE SMOOTH",
"293 606 OFFCURVE",
"111 558 OFFCURVE",
"111 410 CURVE SMOOTH",
"111 384 OFFCURVE",
"117 359 OFFCURVE",
"126 334 CURVE",
"77 273 OFFCURVE",
"26 185 OFFCURVE",
"26 104 CURVE SMOOTH",
"26 -21 OFFCURVE",
"139 -53 OFFCURVE",
"243 -53 CURVE SMOOTH",
"363 -53 OFFCURVE",
"487 14 OFFCURVE",
"572 96 CURVE",
"598 -7 OFFCURVE",
"718 -39 OFFCURVE",
"811 -39 CURVE SMOOTH",
"907 -39 OFFCURVE",
"1182 21 OFFCURVE",
"1242 96 CURVE SMOOTH",
"1243 97 OFFCURVE",
"1243 99 OFFCURVE",
"1243 100 CURVE SMOOTH",
"1243 103 OFFCURVE",
"1242 105 OFFCURVE",
"1242 107 CURVE SMOOTH",
"1242 119 OFFCURVE",
"1283 145 OFFCURVE",
"1283 152 CURVE SMOOTH",
"1283 153 OFFCURVE",
"1283 155 OFFCURVE",
"1282 155 CURVE SMOOTH",
"1278 155 OFFCURVE",
"1270 148 OFFCURVE",
"1268 146 CURVE SMOOTH",
"1151 58 OFFCURVE",
"991 -22 OFFCURVE",
"842 -22 CURVE SMOOTH",
"738 -22 OFFCURVE",
"638 19 OFFCURVE",
"638 137 CURVE SMOOTH",
"638 149 OFFCURVE",
"639 162 OFFCURVE",
"641 174 CURVE",
"671 215 OFFCURVE",
"698 259 OFFCURVE",
"714 308 CURVE",
"719 309 LINE SMOOTH",
"757 317 OFFCURVE",
"796 319 OFFCURVE",
"834 323 CURVE SMOOTH",
"905 328 OFFCURVE",
"977 333 OFFCURVE",
"1048 336 CURVE SMOOTH",
"1080 338 OFFCURVE",
"1120 337 OFFCURVE",
"1151 341 CURVE SMOOTH",
"1156 341 OFFCURVE",
"1183 346 OFFCURVE",
"1183 352 CURVE SMOOTH",
"1183 356 OFFCURVE",
"1171 358 OFFCURVE",
"1170 358 CURVE SMOOTH",
"1141 365 OFFCURVE",
"1106 363 OFFCURVE",
"1077 363 CURVE SMOOTH",
"975 363 OFFCURVE",
"872 357 OFFCURVE",
"770 350 CURVE SMOOTH",
"755 349 OFFCURVE",
"740 347 OFFCURVE",
"724 346 CURVE",
"726 354 LINE",
"826 486 OFFCURVE",
"1001 596 OFFCURVE",
"1170 596 CURVE SMOOTH",
"1216 596 OFFCURVE",
"1257 581 OFFCURVE",
"1281 539 CURVE",
"1270 521 OFFCURVE",
"1244 482 OFFCURVE",
"1244 461 CURVE SMOOTH",
"1244 452 OFFCURVE",
"1253 451 OFFCURVE",
"1261 451 CURVE SMOOTH",
"1271 451 OFFCURVE",
"1279 454 OFFCURVE",
"1285 461 CURVE SMOOTH",
"1290 467 OFFCURVE",
"1302 483 OFFCURVE",
"1302 492 CURVE SMOOTH",
"1302 497 OFFCURVE",
"1305 502 OFFCURVE",
"1307 506 CURVE",
"1311 502 OFFCURVE",
"1321 478 OFFCURVE",
"1321 478 CURVE",
"1329 481 OFFCURVE",
"1333 499 OFFCURVE",
"1333 506 CURVE SMOOTH",
"1333 517 OFFCURVE",
"1322 539 OFFCURVE",
"1316 549 CURVE"
);
},
{
closed = 1;
nodes = (
"357 538 OFFCURVE",
"241 462 OFFCURVE",
"156 368 CURVE",
"153 383 OFFCURVE",
"151 399 OFFCURVE",
"151 414 CURVE SMOOTH",
"151 536 OFFCURVE",
"279 579 OFFCURVE",
"381 579 CURVE SMOOTH",
"414 579 OFFCURVE",
"448 575 OFFCURVE",
"480 567 CURVE"
);
},
{
closed = 1;
nodes = (
"663 362 OFFCURVE",
"652 347 OFFCURVE",
"641 332 CURVE",
"628 330 OFFCURVE",
"527 307 OFFCURVE",
"527 289 CURVE SMOOTH",
"527 281 OFFCURVE",
"551 282 OFFCURVE",
"553 282 CURVE SMOOTH",
"573 282 OFFCURVE",
"593 284 OFFCURVE",
"612 287 CURVE",
"587 243 OFFCURVE",
"567 191 OFFCURVE",
"567 139 CURVE SMOOTH",
"567 132 OFFCURVE",
"567 125 OFFCURVE",
"568 118 CURVE",
"489 35 OFFCURVE",
"360 -22 OFFCURVE",
"245 -22 CURVE SMOOTH",
"153 -22 OFFCURVE",
"73 24 OFFCURVE",
"73 125 CURVE SMOOTH",
"73 189 OFFCURVE",
"107 254 OFFCURVE",
"143 305 CURVE",
"147 298 OFFCURVE",
"160 275 OFFCURVE",
"170 275 CURVE SMOOTH",
"176 275 OFFCURVE",
"177 284 OFFCURVE",
"177 288 CURVE SMOOTH",
"177 302 OFFCURVE",
"170 320 OFFCURVE",
"165 333 CURVE",
"250 438 OFFCURVE",
"384 530 OFFCURVE",
"519 555 CURVE",
"599 525 OFFCURVE",
"667 465 OFFCURVE",
"675 376 CURVE"
);
}
);
width = 1285;
}
);
note = OE;
unicode = 0152;
},
{
glyphname = P;
layers = (
{
hints = (
{
horizontal = 1;
place = "{499, 13}";
type = Stem;
},
{
place = "{356, 45}";
type = Stem;
}
);
layerId = "5758FC1C-8DB2-4040-8B3F-38A5D3FE42F4";
paths = (
{
closed = 1;
nodes = (
"426 111 OFFCURVE",
"565 159 OFFCURVE",
"653 217 CURVE SMOOTH",
"716 260 OFFCURVE",
"804 333 OFFCURVE",
"804 417 CURVE SMOOTH",
"804 522 OFFCURVE",
"674 573 OFFCURVE",
"589 589 CURVE",
"594 595 OFFCURVE",
"618 620 OFFCURVE",
"618 625 CURVE SMOOTH",
"618 633 OFFCURVE",
"602 634 OFFCURVE",
"597 634 CURVE SMOOTH",
"583 634 OFFCURVE",
"555 628 OFFCURVE",
"545 618 CURVE SMOOTH",
"540 613 OFFCURVE",
"535 604 OFFCURVE",
"530 598 CURVE",
"507 600 OFFCURVE",
"483 602 OFFCURVE",
"459 602 CURVE SMOOTH",
"362 602 OFFCURVE",
"264 583 OFFCURVE",
"172 551 CURVE SMOOTH",
"121 533 OFFCURVE",
"12 487 OFFCURVE",
"12 420 CURVE SMOOTH",
"12 358 OFFCURVE",
"107 322 OFFCURVE",
"154 308 CURVE SMOOTH",
"156 307 OFFCURVE",
"159 307 OFFCURVE",
"161 307 CURVE SMOOTH",
"164 307 OFFCURVE",
"177 308 OFFCURVE",
"177 312 CURVE SMOOTH",
"177 316 OFFCURVE",
"170 318 OFFCURVE",
"168 319 CURVE SMOOTH",
"129 335 OFFCURVE",
"75 362 OFFCURVE",
"75 412 CURVE SMOOTH",
"75 476 OFFCURVE",
"165 519 OFFCURVE",
"215 537 CURVE SMOOTH",
"299 568 OFFCURVE",
"392 585 OFFCURVE",
"482 585 CURVE SMOOTH",
"495 585 OFFCURVE",
"507 585 OFFCURVE",
"519 584 CURVE",
"510 572 OFFCURVE",
"481 542 OFFCURVE",
"483 527 CURVE",
"435 467 OFFCURVE",
"391 404 OFFCURVE",
"349 341 CURVE",
"288 318 OFFCURVE",
"163 262 OFFCURVE",
"163 184 CURVE SMOOTH",
"163 154 OFFCURVE",
"189 136 OFFCURVE",
"214 127 CURVE",
"187 78 OFFCURVE",
"137 -16 OFFCURVE",
"137 -73 CURVE SMOOTH",
"137 -102 OFFCURVE",
"151 -118 OFFCURVE",
"181 -118 CURVE SMOOTH",
"193 -118 OFFCURVE",
"257 -105 OFFCURVE",
"257 -96 CURVE SMOOTH",
"257 -94 OFFCURVE",
"251 -94 OFFCURVE",
"250 -94 CURVE SMOOTH",
"239 -94 OFFCURVE",
"227 -99 OFFCURVE",
"216 -99 CURVE SMOOTH",
"201 -99 OFFCURVE",
"199 -82 OFFCURVE",
"199 -70 CURVE SMOOTH",
"199 -19 OFFCURVE",
"237 69 OFFCURVE",
"260 116 CURVE",
"280 113 OFFCURVE",
"300 111 OFFCURVE",
"321 111 CURVE SMOOTH"
);
},
{
closed = 1;
nodes = (
"768 288 OFFCURVE",
"452 125 OFFCURVE",
"318 125 CURVE SMOOTH",
"301 125 OFFCURVE",
"284 127 OFFCURVE",
"267 131 CURVE",
"305 205 OFFCURVE",
"349 275 OFFCURVE",
"397 343 CURVE",
"418 350 OFFCURVE",
"440 356 OFFCURVE",
"463 362 CURVE SMOOTH",
"474 365 OFFCURVE",
"486 367 OFFCURVE",
"497 370 CURVE SMOOTH",
"500 371 OFFCURVE",
"507 375 OFFCURVE",
"507 380 CURVE SMOOTH",
"507 382 OFFCURVE",
"505 382 OFFCURVE",
"503 382 CURVE SMOOTH",
"485 382 OFFCURVE",
"428 366 OFFCURVE",
"409 360 CURVE",
"462 435 OFFCURVE",
"519 508 OFFCURVE",
"579 578 CURVE",
"651 566 OFFCURVE",
"768 529 OFFCURVE",
"768 438 CURVE SMOOTH"
);
},
{
closed = 1;
nodes = (
"296 262 OFFCURVE",
"260 206 OFFCURVE",
"226 148 CURVE",
"212 158 OFFCURVE",
"201 172 OFFCURVE",
"201 190 CURVE SMOOTH",
"201 242 OFFCURVE",
"291 298 OFFCURVE",
"333 317 CURVE"
);
}
);
width = 671;
}
);
note = P;
unicode = 0050;
},
{
glyphname = Thorn;
lastChange = "2020-01-05 08:10:19 +0000";
layers = (
{
hints = (
{
horizontal = 1;
place = "{-14, 21}";
type = Stem;
},
{
horizontal = 1;
place = "{282, 16}";
type = Stem;
},
{
place = "{185, 33}";
type = Stem;
}
);
layerId = "5758FC1C-8DB2-4040-8B3F-38A5D3FE42F4";
paths = (
{
closed = 1;
nodes = (
"301 165 OFFCURVE",
"458 230 OFFCURVE",
"474 355 CURVE SMOOTH",
"482 428 OFFCURVE",
"421 501 OFFCURVE",
"307 501 CURVE",
"314 511 OFFCURVE",
"356 557 OFFCURVE",
"347 563 CURVE SMOOTH",
"301 595 OFFCURVE",
"233 497 OFFCURVE",
"131 279 CURVE",
"15 8 OFFCURVE",
"10 -6 OFFCURVE",
"10 -58 CURVE SMOOTH",
"10 -87 OFFCURVE",
"18 -123 OFFCURVE",
"54 -123 CURVE",
"41 -63 OFFCURVE",
"49 28 OFFCURVE",
"129 184 CURVE",
"152 168 OFFCURVE",
"185 165 OFFCURVE",
"216 165 CURVE SMOOTH"
);
},
{
closed = 1;
nodes = (
"429 267 OFFCURVE",
"301 188 OFFCURVE",
"229 188 CURVE SMOOTH",
"202 188 OFFCURVE",
"161 196 OFFCURVE",
"147 220 CURVE",
"158 243 OFFCURVE",
"236 417 OFFCURVE",
"264 459 CURVE",
"348 459 OFFCURVE",
"445 430 OFFCURVE",
"437 350 CURVE SMOOTH"
);
}
);
width = 375;
}
);
unicode = 00DE;
},
{
glyphname = Q;
layers = (
{
hints = (
{
horizontal = 1;
place = "{-148, 30}";
type = Stem;
},
{
horizontal = 1;
place = "{16, 18}";
type = Stem;
},
{
horizontal = 1;
place = "{531, 15}";
type = Stem;
},
{
place = "{-751, 44}";
type = Stem;
},
{
place = "{-236, 47}";
type = Stem;
}
);
layerId = "5758FC1C-8DB2-4040-8B3F-38A5D3FE42F4";
paths = (
{
closed = 1;
nodes = (
"708 -133 OFFCURVE",
"698 -86 OFFCURVE",
"685 -86 CURVE SMOOTH",
"682 -86 OFFCURVE",
"680 -88 OFFCURVE",
"680 -91 CURVE SMOOTH",
"680 -100 OFFCURVE",
"686 -109 OFFCURVE",
"686 -120 CURVE SMOOTH",
"686 -159 OFFCURVE",
"648 -175 OFFCURVE",
"615 -175 CURVE SMOOTH",
"518 -175 OFFCURVE",
"398 -73 OFFCURVE",
"338 -4 CURVE",
"418 23 OFFCURVE",
"488 75 OFFCURVE",
"539 142 CURVE SMOOTH",
"581 197 OFFCURVE",
"615 263 OFFCURVE",
"615 333 CURVE SMOOTH",
"615 409 OFFCURVE",
"576 473 OFFCURVE",
"523 524 CURVE",
"558 515 OFFCURVE",
"587 500 OFFCURVE",
"617 480 CURVE SMOOTH",
"620 478 OFFCURVE",
"624 476 OFFCURVE",
"628 476 CURVE SMOOTH",
"632 476 OFFCURVE",
"635 478 OFFCURVE",
"635 483 CURVE SMOOTH",
"635 490 OFFCURVE",
"629 495 OFFCURVE",
"624 499 CURVE SMOOTH",
"589 522 OFFCURVE",
"539 539 OFFCURVE",
"499 545 CURVE",
"444 587 OFFCURVE",
"350 607 OFFCURVE",
"282 607 CURVE SMOOTH",
"182 607 OFFCURVE",
"86 568 OFFCURVE",
"86 453 CURVE SMOOTH",
"86 424 OFFCURVE",
"92 395 OFFCURVE",
"100 368 CURVE",
"52 310 OFFCURVE",
"9 230 OFFCURVE",
"9 154 CURVE SMOOTH",
"9 33 OFFCURVE",
"113 -23 OFFCURVE",
"221 -23 CURVE SMOOTH",
"248 -23 OFFCURVE",
"276 -20 OFFCURVE",
"302 -14 CURVE",
"376 -95 OFFCURVE",
"522 -198 OFFCURVE",
"635 -198 CURVE SMOOTH",
"670 -198 OFFCURVE",
"708 -186 OFFCURVE",
"708 -144 CURVE SMOOTH"
);
},
{
closed = 1;
nodes = (
"304 536 OFFCURVE",
"202 476 OFFCURVE",
"127 397 CURVE",
"123 413 OFFCURVE",
"122 430 OFFCURVE",
"122 447 CURVE SMOOTH",
"122 539 OFFCURVE",
"181 582 OFFCURVE",
"268 582 CURVE SMOOTH",
"318 582 OFFCURVE",
"369 568 OFFCURVE",
"414 547 CURVE"
);
},
{
closed = 1;
nodes = (
"574 253 OFFCURVE",
"545 188 OFFCURVE",
"506 134 CURVE SMOOTH",
"462 74 OFFCURVE",
"396 33 OFFCURVE",
"324 14 CURVE",
"241 118 OFFCURVE",
"185 242 OFFCURVE",
"137 365 CURVE",
"212 453 OFFCURVE",
"328 525 OFFCURVE",
"445 531 CURVE",
"521 486 OFFCURVE",
"574 411 OFFCURVE",
"574 320 CURVE SMOOTH"
);
},
{
closed = 1;
nodes = (
"270 5 OFFCURVE",
"256 4 OFFCURVE",
"241 4 CURVE SMOOTH",
"141 4 OFFCURVE",
"51 55 OFFCURVE",
"51 166 CURVE SMOOTH",
"51 224 OFFCURVE",
"77 282 OFFCURVE",
"110 330 CURVE",
"148 215 OFFCURVE",
"206 99 OFFCURVE",
"284 6 CURVE"
);
}
);
width = 636;
}
);
note = Q;
unicode = 0051;
},
{
glyphname = R;
layers = (
{
hints = (
{
horizontal = 1;
place = "{-90, 27}";
type = Stem;
},
{
horizontal = 1;
place = "{171, 12}";
type = Stem;
},
{
horizontal = 1;
place = "{313, -20}";
target = down;
type = TopGhost;
},
{
horizontal = 1;
place = "{527, -20}";
target = down;
type = TopGhost;
},
{
horizontal = 1;
place = "{600, 15}";
type = Stem;
},
{
place = "{5, 57}";
type = Stem;
},
{
place = "{256, 24}";
type = Stem;
},
{
place = "{801, 34}";
type = Stem;
},
{
place = "{869, 13}";
type = Stem;
},
{
horizontal = 1;
place = "{326, 33}";
type = Stem;
},
{
horizontal = 1;
place = "{310, -20}";
target = down;
type = TopGhost;
},
{
horizontal = 1;
place = "{-118, 19}";
type = Stem;
},
{
place = "{229, 62}";
type = Stem;
}
);
layerId = "5758FC1C-8DB2-4040-8B3F-38A5D3FE42F4";
paths = (
{
closed = 1;
nodes = (
"882 -26 OFFCURVE",
"881 9 OFFCURVE",
"874 9 CURVE SMOOTH",
"870 9 OFFCURVE",
"869 6 OFFCURVE",
"869 4 CURVE SMOOTH",
"869 -15 OFFCURVE",
"872 -63 OFFCURVE",
"843 -63 CURVE SMOOTH",
"834 -63 OFFCURVE",
"825 -58 OFFCURVE",
"818 -53 CURVE SMOOTH",
"761 -16 OFFCURVE",
"642 146 OFFCURVE",
"593 205 CURVE",
"678 234 OFFCURVE",
"835 311 OFFCURVE",
"835 414 CURVE SMOOTH",
"835 497 OFFCURVE",
"734 550 OFFCURVE",
"668 574 CURVE",
"673 581 OFFCURVE",
"710 620 OFFCURVE",
"710 625 CURVE SMOOTH",
"710 633 OFFCURVE",
"695 634 OFFCURVE",
"690 634 CURVE SMOOTH",
"675 634 OFFCURVE",
"648 628 OFFCURVE",
"637 618 CURVE SMOOTH",
"630 611 OFFCURVE",
"623 598 OFFCURVE",
"616 590 CURVE",
"549 607 OFFCURVE",
"480 615 OFFCURVE",
"411 615 CURVE SMOOTH",
"323 615 OFFCURVE",
"235 602 OFFCURVE",
"151 575 CURVE SMOOTH",
"106 560 OFFCURVE",
"5 520 OFFCURVE",
"5 461 CURVE SMOOTH",
"5 407 OFFCURVE",
"93 376 OFFCURVE",
"134 364 CURVE",
"136 363 OFFCURVE",
"139 363 OFFCURVE",
"141 363 CURVE SMOOTH",
"143 363 OFFCURVE",
"155 364 OFFCURVE",
"155 368 CURVE SMOOTH",
"155 371 OFFCURVE",
"148 373 OFFCURVE",
"147 374 CURVE",
"113 387 OFFCURVE",
"62 410 OFFCURVE",
"62 454 CURVE SMOOTH",
"62 510 OFFCURVE",
"146 548 OFFCURVE",
"190 562 CURVE SMOOTH",
"267 589 OFFCURVE",
"351 600 OFFCURVE",
"432 600 CURVE SMOOTH",
"492 600 OFFCURVE",
"551 594 OFFCURVE",
"609 581 CURVE",
"599 569 OFFCURVE",
"573 542 OFFCURVE",
"575 527 CURVE",
"530 470 OFFCURVE",
"488 410 OFFCURVE",
"447 350 CURVE",
"435 356 OFFCURVE",
"422 359 OFFCURVE",
"408 359 CURVE SMOOTH",
"356 359 OFFCURVE",
"298 291 OFFCURVE",
"298 241 CURVE SMOOTH",
"298 239 OFFCURVE",
"298 236 OFFCURVE",
"301 236 CURVE SMOOTH",
"322 236 OFFCURVE",
"316 326 OFFCURVE",
"379 326 CURVE SMOOTH",
"394 326 OFFCURVE",
"409 320 OFFCURVE",
"422 313 CURVE",
"396 274 OFFCURVE",
"371 235 OFFCURVE",
"346 195 CURVE",
"320 205 OFFCURVE",
"280 226 OFFCURVE",
"280 259 CURVE SMOOTH",
"280 283 OFFCURVE",
"301 295 OFFCURVE",
"301 305 CURVE SMOOTH",
"301 309 OFFCURVE",
"298 310 OFFCURVE",
"295 310 CURVE SMOOTH",
"271 310 OFFCURVE",
"256 276 OFFCURVE",
"256 256 CURVE SMOOTH",
"256 214 OFFCURVE",
"305 192 OFFCURVE",
"338 182 CURVE",
"303 124 OFFCURVE",
"229 -4 OFFCURVE",
"229 -73 CURVE SMOOTH",
"229 -102 OFFCURVE",
"243 -118 OFFCURVE",
"273 -118 CURVE SMOOTH",
"285 -118 OFFCURVE",
"350 -105 OFFCURVE",
"350 -96 CURVE SMOOTH",
"350 -94 OFFCURVE",
"343 -94 OFFCURVE",
"342 -94 CURVE SMOOTH",
"331 -94 OFFCURVE",
"320 -99 OFFCURVE",
"308 -99 CURVE SMOOTH",
"293 -99 OFFCURVE",
"291 -82 OFFCURVE",
"291 -70 CURVE SMOOTH",
"291 -4 OFFCURVE",
"349 115 OFFCURVE",
"382 173 CURVE",
"395 172 OFFCURVE",
"408 171 OFFCURVE",
"421 171 CURVE SMOOTH",
"463 171 OFFCURVE",
"507 180 OFFCURVE",
"548 191 CURVE",
"601 123 OFFCURVE",
"748 -90 OFFCURVE",
"839 -90 CURVE SMOOTH",
"872 -90 OFFCURVE",
"882 -61 OFFCURVE",
"882 -33 CURVE SMOOTH"
);
},
{
closed = 1;
nodes = (
"801 339 OFFCURVE",
"652 257 OFFCURVE",
"577 225 CURVE",
"546 261 OFFCURVE",
"515 297 OFFCURVE",
"479 328 CURVE",
"535 411 OFFCURVE",
"596 490 OFFCURVE",
"661 566 CURVE",
"718 546 OFFCURVE",
"801 504 OFFCURVE",
"801 434 CURVE SMOOTH"
);
},
{
closed = 1;
nodes = (
"499 196 OFFCURVE",
"453 183 OFFCURVE",
"415 183 CURVE SMOOTH",
"406 183 OFFCURVE",
"397 183 OFFCURVE",
"388 185 CURVE",
"409 221 OFFCURVE",
"431 256 OFFCURVE",
"454 291 CURVE",
"484 267 OFFCURVE",
"509 238 OFFCURVE",
"534 208 CURVE"
);
}
);
width = 802;
}
);
note = R;
unicode = 0052;
},
{
glyphname = S;
layers = (
{
hints = (
{
horizontal = 1;
place = "{-100, 41}";
type = Stem;
},
{
horizontal = 1;
place = "{591, 25}";
type = Stem;
},
{
place = "{15, 42}";
type = Stem;
},
{
place = "{315, 54}";
type = Stem;
},
{
place = "{620, 71}";
type = Stem;
},
{
place = "{790, 9}";
type = Stem;
}
);
layerId = "5758FC1C-8DB2-4040-8B3F-38A5D3FE42F4";
paths = (
{
closed = 1;
nodes = (
"805 620 OFFCURVE",
"805 630 OFFCURVE",
"798 630 CURVE SMOOTH",
"790 630 OFFCURVE",
"788 620 OFFCURVE",
"787 614 CURVE SMOOTH",
"784 598 OFFCURVE",
"775 582 OFFCURVE",
"766 568 CURVE",
"737 607 OFFCURVE",
"677 616 OFFCURVE",
"632 616 CURVE SMOOTH",
"527 616 OFFCURVE",
"315 552 OFFCURVE",
"315 421 CURVE SMOOTH",
"315 418 OFFCURVE",
"315 415 OFFCURVE",
"316 412 CURVE",
"321 368 OFFCURVE",
"391 351 OFFCURVE",
"426 341 CURVE SMOOTH",
"449 333 OFFCURVE",
"473 327 OFFCURVE",
"495 318 CURVE SMOOTH",
"547 299 OFFCURVE",
"620 263 OFFCURVE",
"620 198 CURVE SMOOTH",
"620 94 OFFCURVE",
"439 -4 OFFCURVE",
"354 -32 CURVE SMOOTH",
"305 -47 OFFCURVE",
"252 -59 OFFCURVE",
"201 -59 CURVE SMOOTH",
"142 -59 OFFCURVE",
"57 -38 OFFCURVE",
"57 36 CURVE SMOOTH",
"57 101 OFFCURVE",
"125 154 OFFCURVE",
"177 182 CURVE SMOOTH",
"194 192 OFFCURVE",
"212 199 OFFCURVE",
"230 207 CURVE SMOOTH",
"234 209 OFFCURVE",
"244 213 OFFCURVE",
"244 219 CURVE SMOOTH",
"244 222 OFFCURVE",
"239 223 OFFCURVE",
"237 223 CURVE SMOOTH",
"225 223 OFFCURVE",
"210 216 OFFCURVE",
"200 211 CURVE SMOOTH",
"135 178 OFFCURVE",
"15 104 OFFCURVE",
"15 19 CURVE SMOOTH",
"15 -74 OFFCURVE",
"145 -100 OFFCURVE",
"216 -100 CURVE SMOOTH",
"285 -100 OFFCURVE",
"353 -84 OFFCURVE",
"416 -58 CURVE SMOOTH",
"503 -22 OFFCURVE",
"691 76 OFFCURVE",
"691 187 CURVE SMOOTH",
"691 274 OFFCURVE",
"572 320 OFFCURVE",
"505 342 CURVE SMOOTH",
"461 356 OFFCURVE",
"369 379 OFFCURVE",
"369 439 CURVE SMOOTH",
"369 512 OFFCURVE",
"477 561 OFFCURVE",
"535 577 CURVE SMOOTH",
"565 586 OFFCURVE",
"595 591 OFFCURVE",
"626 591 CURVE SMOOTH",
"671 591 OFFCURVE",
"723 579 OFFCURVE",
"749 539 CURVE",
"737 518 OFFCURVE",
"675 443 OFFCURVE",
"675 429 CURVE SMOOTH",
"675 418 OFFCURVE",
"707 414 OFFCURVE",
"716 414 CURVE SMOOTH",
"722 414 OFFCURVE",
"729 415 OFFCURVE",
"734 420 CURVE SMOOTH",
"753 442 OFFCURVE",
"763 482 OFFCURVE",
"775 508 CURVE",
"778 505 OFFCURVE",
"790 482 OFFCURVE",
"790 482 CURVE",
"797 485 OFFCURVE",
"799 500 OFFCURVE",
"799 506 CURVE SMOOTH",
"799 518 OFFCURVE",
"788 538 OFFCURVE",
"781 548 CURVE",
"785 558 OFFCURVE",
"805 607 OFFCURVE",
"805 616 CURVE SMOOTH"
);
}
);
width = 721;
}
);
note = S;
unicode = 0053;
},
{
color = 3;
glyphname = Germandbls;
lastChange = "2021-05-05 19:46:58 +0000";
layers = (
{
hints = (
{
horizontal = 1;
place = "{-100, 41}";
type = Stem;
},
{
horizontal = 1;
place = "{591, 25}";
type = Stem;
},
{
place = "{15, 42}";
type = Stem;
},
{
place = "{315, 54}";
type = Stem;
},
{
place = "{620, 71}";
type = Stem;
},
{
place = "{790, 9}";
type = Stem;
},
{
horizontal = 1;
place = "{-100, 41}";
type = Stem;
},
{
horizontal = 1;
place = "{591, 25}";
type = Stem;
},
{
place = "{736, 42}";
type = Stem;
},
{
place = "{1036, 54}";
type = Stem;
},
{
place = "{1341, 71}";
type = Stem;
},
{
place = "{1511, 9}";
type = Stem;
}
);
layerId = "5758FC1C-8DB2-4040-8B3F-38A5D3FE42F4";
paths = (
{
closed = 1;
nodes = (
"805 620 OFFCURVE",
"805 630 OFFCURVE",
"798 630 CURVE SMOOTH",
"790 630 OFFCURVE",
"788 620 OFFCURVE",
"787 614 CURVE SMOOTH",
"784 598 OFFCURVE",
"775 582 OFFCURVE",
"766 568 CURVE",
"737 607 OFFCURVE",
"677 616 OFFCURVE",
"632 616 CURVE SMOOTH",
"527 616 OFFCURVE",
"315 552 OFFCURVE",
"315 421 CURVE SMOOTH",
"315 418 OFFCURVE",
"315 415 OFFCURVE",
"316 412 CURVE",
"321 368 OFFCURVE",
"391 351 OFFCURVE",
"426 341 CURVE SMOOTH",
"449 333 OFFCURVE",
"473 327 OFFCURVE",
"495 318 CURVE SMOOTH",
"547 299 OFFCURVE",
"620 263 OFFCURVE",
"620 198 CURVE SMOOTH",
"620 94 OFFCURVE",
"439 -4 OFFCURVE",
"354 -32 CURVE SMOOTH",
"305 -47 OFFCURVE",
"252 -59 OFFCURVE",
"201 -59 CURVE SMOOTH",
"142 -59 OFFCURVE",
"57 -38 OFFCURVE",
"57 36 CURVE SMOOTH",
"57 101 OFFCURVE",
"125 154 OFFCURVE",
"177 182 CURVE SMOOTH",
"194 192 OFFCURVE",
"212 199 OFFCURVE",
"230 207 CURVE SMOOTH",
"234 209 OFFCURVE",
"244 213 OFFCURVE",
"244 219 CURVE SMOOTH",
"244 222 OFFCURVE",
"239 223 OFFCURVE",
"237 223 CURVE SMOOTH",
"225 223 OFFCURVE",
"210 216 OFFCURVE",
"200 211 CURVE SMOOTH",
"135 178 OFFCURVE",
"15 104 OFFCURVE",
"15 19 CURVE SMOOTH",
"15 -74 OFFCURVE",
"145 -100 OFFCURVE",
"216 -100 CURVE SMOOTH",
"285 -100 OFFCURVE",
"353 -84 OFFCURVE",
"416 -58 CURVE SMOOTH",
"503 -22 OFFCURVE",
"691 76 OFFCURVE",
"691 187 CURVE SMOOTH",
"691 274 OFFCURVE",
"572 320 OFFCURVE",
"505 342 CURVE SMOOTH",
"461 356 OFFCURVE",
"369 379 OFFCURVE",
"369 439 CURVE SMOOTH",
"369 512 OFFCURVE",
"477 561 OFFCURVE",
"535 577 CURVE SMOOTH",
"565 586 OFFCURVE",
"595 591 OFFCURVE",
"626 591 CURVE SMOOTH",
"671 591 OFFCURVE",
"723 579 OFFCURVE",
"749 539 CURVE",
"737 518 OFFCURVE",
"675 443 OFFCURVE",
"675 429 CURVE SMOOTH",
"675 418 OFFCURVE",
"707 414 OFFCURVE",
"716 414 CURVE SMOOTH",
"722 414 OFFCURVE",
"729 415 OFFCURVE",
"734 420 CURVE SMOOTH",
"753 442 OFFCURVE",
"763 482 OFFCURVE",
"775 508 CURVE",
"778 505 OFFCURVE",
"790 482 OFFCURVE",
"790 482 CURVE",
"797 485 OFFCURVE",
"799 500 OFFCURVE",
"799 506 CURVE SMOOTH",
"799 518 OFFCURVE",
"788 538 OFFCURVE",
"781 548 CURVE",
"785 558 OFFCURVE",
"805 607 OFFCURVE",
"805 616 CURVE SMOOTH"
);
},
{
closed = 1;
nodes = (
"1372 620 OFFCURVE",
"1372 630 OFFCURVE",
"1365 630 CURVE SMOOTH",
"1357 630 OFFCURVE",
"1355 620 OFFCURVE",
"1354 614 CURVE SMOOTH",
"1351 598 OFFCURVE",
"1342 582 OFFCURVE",
"1333 568 CURVE",
"1304 607 OFFCURVE",
"1244 616 OFFCURVE",
"1199 616 CURVE SMOOTH",
"1094 616 OFFCURVE",
"882 552 OFFCURVE",
"882 421 CURVE SMOOTH",
"882 418 OFFCURVE",
"882 415 OFFCURVE",
"883 412 CURVE",
"888 368 OFFCURVE",
"958 352 OFFCURVE",
"993 341 CURVE SMOOTH",
"1016 334 OFFCURVE",
"1040 327 OFFCURVE",
"1062 318 CURVE SMOOTH",
"1113 297 OFFCURVE",
"1187 263 OFFCURVE",
"1187 198 CURVE SMOOTH",
"1187 94 OFFCURVE",
"1006 -4 OFFCURVE",
"921 -32 CURVE SMOOTH",
"872 -48 OFFCURVE",
"819 -59 OFFCURVE",
"768 -59 CURVE SMOOTH",
"709 -59 OFFCURVE",
"624 -38 OFFCURVE",
"624 36 CURVE SMOOTH",
"624 101 OFFCURVE",
"692 154 OFFCURVE",
"744 182 CURVE SMOOTH",
"761 191 OFFCURVE",
"779 198 OFFCURVE",
"797 207 CURVE SMOOTH",
"801 209 OFFCURVE",
"811 213 OFFCURVE",
"811 219 CURVE SMOOTH",
"811 222 OFFCURVE",
"806 223 OFFCURVE",
"804 223 CURVE SMOOTH",
"792 223 OFFCURVE",
"777 216 OFFCURVE",
"767 211 CURVE SMOOTH",
"702 178 OFFCURVE",
"582 104 OFFCURVE",
"582 19 CURVE SMOOTH",
"582 -74 OFFCURVE",
"712 -100 OFFCURVE",
"783 -100 CURVE SMOOTH",
"852 -100 OFFCURVE",
"920 -84 OFFCURVE",
"983 -58 CURVE SMOOTH",
"1070 -22 OFFCURVE",
"1258 76 OFFCURVE",
"1258 187 CURVE SMOOTH",
"1258 274 OFFCURVE",
"1139 321 OFFCURVE",
"1072 342 CURVE SMOOTH",
"1028 356 OFFCURVE",
"936 379 OFFCURVE",
"936 439 CURVE SMOOTH",
"936 512 OFFCURVE",
"1044 561 OFFCURVE",
"1102 577 CURVE SMOOTH",
"1132 585 OFFCURVE",
"1162 591 OFFCURVE",
"1193 591 CURVE SMOOTH",
"1238 591 OFFCURVE",
"1290 579 OFFCURVE",
"1316 539 CURVE",
"1304 518 OFFCURVE",
"1242 443 OFFCURVE",
"1242 429 CURVE SMOOTH",
"1242 418 OFFCURVE",
"1274 414 OFFCURVE",
"1283 414 CURVE SMOOTH",
"1289 414 OFFCURVE",
"1296 415 OFFCURVE",
"1301 420 CURVE SMOOTH",
"1322 441 OFFCURVE",
"1330 482 OFFCURVE",
"1342 508 CURVE",
"1345 505 OFFCURVE",
"1357 482 OFFCURVE",
"1357 482 CURVE",
"1364 485 OFFCURVE",
"1366 500 OFFCURVE",
"1366 506 CURVE SMOOTH",
"1366 518 OFFCURVE",
"1355 538 OFFCURVE",
"1348 548 CURVE",
"1352 558 OFFCURVE",
"1372 607 OFFCURVE",
"1372 616 CURVE SMOOTH"
);
}
);
width = 1288;
}
);
unicode = 1E9E;
},
{
glyphname = Schwa;
lastChange = "2021-05-05 19:57:55 +0000";
layers = (
{
hints = (
{
horizontal = 1;
place = "{565.032, -29.787}";
type = Stem;
},
{
horizontal = 1;
place = "{38.166, -29.787}";
type = Stem;
},
{
place = "{528.955, -57.713}";
type = Stem;
}
);
layerId = "5758FC1C-8DB2-4040-8B3F-38A5D3FE42F4";
paths = (
{
closed = 1;
nodes = (
"318 592 OFFCURVE",
"121 427 OFFCURVE",
"93 327 CURVE SMOOTH",
"91 319 OFFCURVE",
"97 313 OFFCURVE",
"99 317 CURVE SMOOTH",
"195 512 OFFCURVE",
"518 672 OFFCURVE",
"518 514 CURVE SMOOTH",
"518 443 OFFCURVE",
"478 340 OFFCURVE",
"454 291 CURVE",
"351 291 OFFCURVE",
"243 267 OFFCURVE",
"161 208 CURVE SMOOTH",
"10 99 OFFCURVE",
"-7 -58 OFFCURVE",
"139 -40 CURVE SMOOTH",
"324 -16 OFFCURVE",
"521 249 OFFCURVE",
"569 447 CURVE SMOOTH",
"602 587 OFFCURVE",
"570 620 OFFCURVE",
"437 605 CURVE SMOOTH"
);
},
{
closed = 1;
nodes = (
"-28 -134 OFFCURVE",
"49 251 OFFCURVE",
"437 267 CURVE",
"365 136 OFFCURVE",
"288 75 OFFCURVE",
"242 41 CURVE SMOOTH"
);
}
);
width = 555;
}
);
unicode = 018F;
},
{
glyphname = T;
layers = (
{
hints = (
{
horizontal = 1;
place = "{480, 16}";
type = Stem;
}
);
layerId = "5758FC1C-8DB2-4040-8B3F-38A5D3FE42F4";
paths = (
{
closed = 1;
nodes = (
"825 422 OFFCURVE",
"833 434 OFFCURVE",
"836 438 CURVE SMOOTH",
"863 476 OFFCURVE",
"889 529 OFFCURVE",
"933 551 CURVE SMOOTH",
"938 554 OFFCURVE",
"943 556 OFFCURVE",
"943 563 CURVE SMOOTH",
"943 572 OFFCURVE",
"933 583 OFFCURVE",
"924 583 CURVE SMOOTH",
"912 583 OFFCURVE",
"905 556 OFFCURVE",
"871 556 CURVE SMOOTH",
"794 556 OFFCURVE",
"715 568 OFFCURVE",
"639 580 CURVE",
"644 586 OFFCURVE",
"675 620 OFFCURVE",
"675 625 CURVE SMOOTH",
"675 633 OFFCURVE",
"660 634 OFFCURVE",
"655 634 CURVE SMOOTH",
"641 634 OFFCURVE",
"613 628 OFFCURVE",
"603 618 CURVE SMOOTH",
"595 610 OFFCURVE",
"588 598 OFFCURVE",
"581 589 CURVE",
"498 604 OFFCURVE",
"416 617 OFFCURVE",
"332 617 CURVE SMOOTH",
"218 617 OFFCURVE",
"62 595 OFFCURVE",
"23 467 CURVE SMOOTH",
"20 457 OFFCURVE",
"18 446 OFFCURVE",
"18 435 CURVE SMOOTH",
"18 356 OFFCURVE",
"103 309 OFFCURVE",
"168 287 CURVE SMOOTH",
"174 285 OFFCURVE",
"180 283 OFFCURVE",
"186 283 CURVE SMOOTH",
"187 283 OFFCURVE",
"191 283 OFFCURVE",
"191 286 CURVE SMOOTH",
"191 291 OFFCURVE",
"179 296 OFFCURVE",
"175 298 CURVE SMOOTH",
"117 324 OFFCURVE",
"44 379 OFFCURVE",
"44 449 CURVE SMOOTH",
"44 566 OFFCURVE",
"346 570 OFFCURVE",
"420 570 CURVE SMOOTH",
"467 570 OFFCURVE",
"515 568 OFFCURVE",
"562 565 CURVE",
"554 555 OFFCURVE",
"539 541 OFFCURVE",
"540 527 CURVE",
"453 416 OFFCURVE",
"195 53 OFFCURVE",
"195 -73 CURVE SMOOTH",
"195 -102 OFFCURVE",
"209 -118 OFFCURVE",
"239 -118 CURVE SMOOTH",
"251 -118 OFFCURVE",
"315 -105 OFFCURVE",
"315 -96 CURVE SMOOTH",
"315 -94 OFFCURVE",
"309 -94 OFFCURVE",
"308 -94 CURVE SMOOTH",
"296 -94 OFFCURVE",
"285 -99 OFFCURVE",
"274 -99 CURVE SMOOTH",
"259 -99 OFFCURVE",
"257 -82 OFFCURVE",
"257 -70 CURVE SMOOTH",
"257 -51 OFFCURVE",
"262 -30 OFFCURVE",
"267 -12 CURVE SMOOTH",
"322 178 OFFCURVE",
"495 410 OFFCURVE",
"622 561 CURVE",
"675 556 OFFCURVE",
"727 550 OFFCURVE",
"780 542 CURVE SMOOTH",
"802 538 OFFCURVE",
"827 535 OFFCURVE",
"848 528 CURVE SMOOTH",
"852 527 OFFCURVE",
"854 525 OFFCURVE",
"854 521 CURVE SMOOTH",
"854 498 OFFCURVE",
"817 452 OFFCURVE",
"817 427 CURVE SMOOTH",
"817 425 OFFCURVE",
"817 422 OFFCURVE",
"820 422 CURVE SMOOTH"
);
}
);
width = 514;
}
);
note = T;
unicode = 0054;
},
{
glyphname = U;
layers = (
{
hints = (
{
horizontal = 1;
place = "{-13, 21}";
type = Stem;
},
{
horizontal = 1;
place = "{493, 16}";
type = Stem;
},
{
place = "{95, 49}";
type = Stem;
},
{
place = "{485, 30}";
type = Stem;
}
);
layerId = "5758FC1C-8DB2-4040-8B3F-38A5D3FE42F4";
paths = (
{
closed = 1;
nodes = (
"637 -114 OFFCURVE",
"637 -110 OFFCURVE",
"637 -105 CURVE SMOOTH",
"644 98 OFFCURVE",
"775 341 OFFCURVE",
"882 511 CURVE SMOOTH",
"905 547 OFFCURVE",
"929 582 OFFCURVE",
"953 618 CURVE",
"953 621 LINE SMOOTH",
"953 631 OFFCURVE",
"936 632 OFFCURVE",
"931 632 CURVE SMOOTH",
"915 632 OFFCURVE",
"895 627 OFFCURVE",
"882 616 CURVE",
"874 601 OFFCURVE",
"837 545 OFFCURVE",
"837 533 CURVE SMOOTH",
"837 531 OFFCURVE",
"837 528 OFFCURVE",
"837 526 CURVE",
"815 488 OFFCURVE",
"795 447 OFFCURVE",
"775 408 CURVE SMOOTH",
"712 281 OFFCURVE",
"580 4 OFFCURVE",
"580 -133 CURVE SMOOTH",
"580 -171 OFFCURVE",
"591 -210 OFFCURVE",
"636 -210 CURVE SMOOTH",
"646 -210 OFFCURVE",
"701 -199 OFFCURVE",
"701 -191 CURVE SMOOTH",
"701 -188 OFFCURVE",
"694 -188 OFFCURVE",
"693 -188 CURVE SMOOTH",
"682 -188 OFFCURVE",
"672 -193 OFFCURVE",
"661 -193 CURVE SMOOTH",
"635 -193 OFFCURVE",
"637 -135 OFFCURVE",
"637 -119 CURVE SMOOTH"
);
},
{
closed = 1;
nodes = (
"756 443 OFFCURVE",
"751 446 OFFCURVE",
"745 446 CURVE SMOOTH",
"740 446 OFFCURVE",
"737 444 OFFCURVE",
"736 440 CURVE SMOOTH",
"728 399 OFFCURVE",
"723 368 OFFCURVE",
"708 329 CURVE SMOOTH",
"662 205 OFFCURVE",
"551 52 OFFCURVE",
"433 -13 CURVE SMOOTH",
"410 -26 OFFCURVE",
"381 -39 OFFCURVE",
"354 -39 CURVE SMOOTH",
"321 -39 OFFCURVE",
"309 -17 OFFCURVE",
"309 14 CURVE SMOOTH",
"309 32 OFFCURVE",
"313 50 OFFCURVE",
"318 67 CURVE SMOOTH",
"355 198 OFFCURVE",
"543 427 OFFCURVE",
"543 544 CURVE SMOOTH",
"543 614 OFFCURVE",
"473 631 OFFCURVE",
"417 631 CURVE SMOOTH",
"320 631 OFFCURVE",
"201 588 OFFCURVE",
"120 537 CURVE SMOOTH",
"79 511 OFFCURVE",
"6 457 OFFCURVE",
"6 402 CURVE SMOOTH",
"6 340 OFFCURVE",
"98 320 OFFCURVE",
"145 312 CURVE",
"148 311 OFFCURVE",
"152 311 OFFCURVE",
"156 311 CURVE SMOOTH",
"158 311 OFFCURVE",
"165 311 OFFCURVE",
"165 314 CURVE SMOOTH",
"165 319 OFFCURVE",
"152 323 OFFCURVE",
"149 324 CURVE SMOOTH",
"110 338 OFFCURVE",
"54 360 OFFCURVE",
"54 410 CURVE SMOOTH",
"54 457 OFFCURVE",
"109 500 OFFCURVE",
"145 523 CURVE SMOOTH",
"217 568 OFFCURVE",
"326 610 OFFCURVE",
"411 610 CURVE SMOOTH",
"449 610 OFFCURVE",
"501 600 OFFCURVE",
"501 552 CURVE SMOOTH",
"501 549 OFFCURVE",
"501 545 OFFCURVE",
"500 542 CURVE",
"474 374 OFFCURVE",
"251 142 OFFCURVE",
"251 6 CURVE SMOOTH",
"251 -48 OFFCURVE",
"287 -75 OFFCURVE",
"339 -75 CURVE SMOOTH",
"378 -75 OFFCURVE",
"419 -60 OFFCURVE",
"451 -39 CURVE SMOOTH",
"569 37 OFFCURVE",
"680 212 OFFCURVE",
"730 341 CURVE SMOOTH",
"739 363 OFFCURVE",
"756 413 OFFCURVE",
"756 436 CURVE SMOOTH"
);
}
);
width = 756;
}
);
note = U;
unicode = 0055;
},
{
glyphname = Udieresis;
layers = (
{
hints = (
{
horizontal = 1;
place = "{-210, 17}";
type = Stem;
},
{
horizontal = 1;
place = "{-75, 36}";
type = Stem;
},
{
horizontal = 1;
place = "{610, 21}";
type = Stem;
},
{
place = "{6, 48}";
type = Stem;
},
{
place = "{251, 58}";
type = Stem;
},
{
place = "{501, 42}";
type = Stem;
},
{
place = "{580, 57}";
type = Stem;
}
);
layerId = "5758FC1C-8DB2-4040-8B3F-38A5D3FE42F4";
paths = (
{
closed = 1;
nodes = (
"835 697 LINE",
"833 698 LINE",
"814 698 OFFCURVE",
"753 666 OFFCURVE",
"753 645 CURVE SMOOTH",
"753 639 OFFCURVE",
"755 627 OFFCURVE",
"763 627 CURVE SMOOTH",
"784 627 OFFCURVE",
"804 669 OFFCURVE",
"819 682 CURVE",
"821 685 OFFCURVE",
"835 695 OFFCURVE",
"835 696 CURVE",
"836 697 OFFCURVE",
"836 698 OFFCURVE",
"836 698 CURVE"
);
},
{
closed = 1;
nodes = (
"736 697 LINE",
"734 698 LINE",
"715 698 OFFCURVE",
"654 666 OFFCURVE",
"654 645 CURVE SMOOTH",
"654 639 OFFCURVE",
"656 627 OFFCURVE",
"663 627 CURVE SMOOTH",
"684 627 OFFCURVE",
"704 669 OFFCURVE",
"719 682 CURVE SMOOTH",
"722 685 OFFCURVE",
"735 695 OFFCURVE",
"736 696 CURVE",
"736 697 OFFCURVE",
"736 698 OFFCURVE",
"736 698 CURVE"
);
},
{
closed = 1;
nodes = (
"637 -114 OFFCURVE",
"637 -110 OFFCURVE",
"637 -105 CURVE SMOOTH",
"644 98 OFFCURVE",
"775 341 OFFCURVE",
"882 511 CURVE SMOOTH",
"905 547 OFFCURVE",
"929 582 OFFCURVE",
"953 618 CURVE",
"953 621 LINE SMOOTH",
"953 631 OFFCURVE",
"936 632 OFFCURVE",
"931 632 CURVE SMOOTH",
"915 632 OFFCURVE",
"895 627 OFFCURVE",
"882 616 CURVE",
"874 601 OFFCURVE",
"836 545 OFFCURVE",
"836 533 CURVE SMOOTH",
"836 531 OFFCURVE",
"837 528 OFFCURVE",
"837 526 CURVE",
"815 488 OFFCURVE",
"795 447 OFFCURVE",
"775 408 CURVE SMOOTH",
"712 281 OFFCURVE",
"580 4 OFFCURVE",
"580 -133 CURVE SMOOTH",
"580 -171 OFFCURVE",
"591 -210 OFFCURVE",
"636 -210 CURVE SMOOTH",
"646 -210 OFFCURVE",
"701 -199 OFFCURVE",
"701 -191 CURVE SMOOTH",
"701 -188 OFFCURVE",
"694 -188 OFFCURVE",
"693 -188 CURVE SMOOTH",
"682 -188 OFFCURVE",
"672 -193 OFFCURVE",
"661 -193 CURVE SMOOTH",
"635 -193 OFFCURVE",
"637 -135 OFFCURVE",
"637 -119 CURVE SMOOTH"
);
},
{
closed = 1;
nodes = (
"756 443 OFFCURVE",
"751 446 OFFCURVE",
"745 446 CURVE SMOOTH",
"740 446 OFFCURVE",
"737 444 OFFCURVE",
"736 439 CURVE SMOOTH",
"728 399 OFFCURVE",
"723 368 OFFCURVE",
"708 329 CURVE SMOOTH",
"662 205 OFFCURVE",
"551 52 OFFCURVE",
"433 -13 CURVE SMOOTH",
"410 -26 OFFCURVE",
"381 -39 OFFCURVE",
"354 -39 CURVE SMOOTH",
"321 -39 OFFCURVE",
"309 -17 OFFCURVE",
"309 14 CURVE SMOOTH",
"309 32 OFFCURVE",
"313 50 OFFCURVE",
"318 67 CURVE SMOOTH",
"355 198 OFFCURVE",
"543 427 OFFCURVE",
"543 544 CURVE SMOOTH",
"543 614 OFFCURVE",
"473 631 OFFCURVE",
"417 631 CURVE SMOOTH",
"320 631 OFFCURVE",
"201 588 OFFCURVE",
"120 537 CURVE SMOOTH",
"79 511 OFFCURVE",
"6 457 OFFCURVE",
"6 402 CURVE SMOOTH",
"6 340 OFFCURVE",
"98 320 OFFCURVE",
"145 312 CURVE",
"148 311 OFFCURVE",
"152 311 OFFCURVE",
"156 311 CURVE SMOOTH",
"157 311 OFFCURVE",
"165 311 OFFCURVE",
"165 314 CURVE SMOOTH",
"165 319 OFFCURVE",
"152 323 OFFCURVE",
"149 324 CURVE SMOOTH",
"110 338 OFFCURVE",
"54 360 OFFCURVE",
"54 410 CURVE SMOOTH",
"54 457 OFFCURVE",
"109 500 OFFCURVE",
"145 523 CURVE SMOOTH",
"217 568 OFFCURVE",
"326 610 OFFCURVE",
"411 610 CURVE SMOOTH",
"449 610 OFFCURVE",
"501 600 OFFCURVE",
"501 552 CURVE SMOOTH",
"501 549 OFFCURVE",
"501 545 OFFCURVE",
"500 542 CURVE",
"474 374 OFFCURVE",
"251 142 OFFCURVE",
"251 6 CURVE SMOOTH",
"251 -48 OFFCURVE",
"287 -75 OFFCURVE",
"339 -75 CURVE SMOOTH",
"378 -75 OFFCURVE",
"419 -60 OFFCURVE",
"451 -39 CURVE SMOOTH",
"569 37 OFFCURVE",
"680 212 OFFCURVE",
"730 341 CURVE SMOOTH",
"739 363 OFFCURVE",
"756 413 OFFCURVE",
"756 436 CURVE SMOOTH"
);
}
);
width = 702;
}
);
note = Udieresis;
unicode = 00DC;
},
{
glyphname = V;
layers = (
{
hints = (
{
horizontal = 1;
place = "{-26, 16}";
type = Stem;
},
{
horizontal = 1;
place = "{493, 16}";
type = Stem;
},
{
place = "{119, 128}";
type = Stem;
}
);
layerId = "5758FC1C-8DB2-4040-8B3F-38A5D3FE42F4";
paths = (
{
closed = 1;
nodes = (
"882 556 OFFCURVE",
"916 600 OFFCURVE",
"920 618 CURVE SMOOTH",
"921 622 OFFCURVE",
"921 626 OFFCURVE",
"921 630 CURVE SMOOTH",
"921 658 OFFCURVE",
"899 668 OFFCURVE",
"874 668 CURVE SMOOTH",
"856 668 OFFCURVE",
"837 664 OFFCURVE",
"821 657 CURVE SMOOTH",
"655 586 OFFCURVE",
"486 332 OFFCURVE",
"394 182 CURVE SMOOTH",
"365 134 OFFCURVE",
"336 87 OFFCURVE",
"309 38 CURVE SMOOTH",
"305 30 OFFCURVE",
"298 10 OFFCURVE",
"298 2 CURVE SMOOTH",
"298 1 OFFCURVE",
"298 -1 OFFCURVE",
"299 -1 CURVE SMOOTH",
"303 -1 OFFCURVE",
"319 29 OFFCURVE",
"320 31 CURVE SMOOTH",
"349 83 OFFCURVE",
"382 133 OFFCURVE",
"416 182 CURVE SMOOTH",
"503 310 OFFCURVE",
"633 485 OFFCURVE",
"751 582 CURVE SMOOTH",
"779 604 OFFCURVE",
"809 625 OFFCURVE",
"843 637 CURVE SMOOTH",
"849 639 OFFCURVE",
"856 640 OFFCURVE",
"862 640 CURVE SMOOTH",
"879 640 OFFCURVE",
"889 631 OFFCURVE",
"889 614 CURVE SMOOTH",
"889 588 OFFCURVE",
"865 563 OFFCURVE",
"865 559 CURVE SMOOTH",
"865 558 OFFCURVE",
"864 556 OFFCURVE",
"865 556 CURVE SMOOTH"
);
},
{
closed = 1;
nodes = (
"536 532 OFFCURVE",
"580 538 OFFCURVE",
"600 568 CURVE SMOOTH",
"601 569 OFFCURVE",
"602 573 OFFCURVE",
"602 575 CURVE SMOOTH",
"602 576 OFFCURVE",
"602 577 OFFCURVE",
"600 577 CURVE SMOOTH",
"597 577 OFFCURVE",
"594 573 OFFCURVE",
"592 571 CURVE SMOOTH",
"577 553 OFFCURVE",
"543 553 OFFCURVE",
"522 553 CURVE SMOOTH",
"416 553 OFFCURVE",
"313 588 OFFCURVE",
"207 588 CURVE SMOOTH",
"148 588 OFFCURVE",
"-1 570 OFFCURVE",
"-1 486 CURVE SMOOTH",
"-1 398 OFFCURVE",
"168 360 OFFCURVE",
"231 350 CURVE SMOOTH",
"233 350 OFFCURVE",
"236 349 OFFCURVE",
"239 349 CURVE SMOOTH",
"241 349 OFFCURVE",
"250 350 OFFCURVE",
"250 354 CURVE SMOOTH",
"250 358 OFFCURVE",
"243 359 OFFCURVE",
"241 359 CURVE SMOOTH",
"219 363 OFFCURVE",
"198 366 OFFCURVE",
"177 372 CURVE SMOOTH",
"131 385 OFFCURVE",
"60 420 OFFCURVE",
"60 477 CURVE SMOOTH",
"60 551 OFFCURVE",
"173 568 OFFCURVE",
"227 568 CURVE SMOOTH",
"321 568 OFFCURVE",
"410 532 OFFCURVE",
"503 532 CURVE SMOOTH"
);
},
{
closed = 1;
nodes = (
"329 386 OFFCURVE",
"328 462 OFFCURVE",
"321 490 CURVE SMOOTH",
"319 502 OFFCURVE",
"291 529 OFFCURVE",
"279 529 CURVE SMOOTH",
"275 529 OFFCURVE",
"274 527 OFFCURVE",
"274 524 CURVE",
"275 521 LINE",
"280 456 OFFCURVE",
"289 391 OFFCURVE",
"289 326 CURVE SMOOTH",
"289 195 OFFCURVE",
"269 68 OFFCURVE",
"231 -58 CURVE",
"231 -59 OFFCURVE",
"231 -61 OFFCURVE",
"231 -62 CURVE SMOOTH",
"231 -68 OFFCURVE",
"237 -70 OFFCURVE",
"242 -70 CURVE SMOOTH",
"262 -70 OFFCURVE",
"278 -51 OFFCURVE",
"283 -33 CURVE SMOOTH",
"289 -10 OFFCURVE",
"293 13 OFFCURVE",
"298 36 CURVE SMOOTH",
"317 141 OFFCURVE",
"329 248 OFFCURVE",
"329 355 CURVE SMOOTH"
);
}
);
width = 508;
}
);
note = V;
unicode = 0056;
},
{
glyphname = W;
layers = (
{
hints = (
{
horizontal = 1;
place = "{-23, 16}";
type = Stem;
},
{
horizontal = 1;
place = "{493, 16}";
type = Stem;
}
);
layerId = "5758FC1C-8DB2-4040-8B3F-38A5D3FE42F4";
paths = (
{
closed = 1;
nodes = (
"847 -17 OFFCURVE",
"960 87 OFFCURVE",
"1017 164 CURVE SMOOTH",
"1044 201 OFFCURVE",
"1067 240 OFFCURVE",
"1085 282 CURVE SMOOTH",
"1106 333 OFFCURVE",
"1120 383 OFFCURVE",
"1121 438 CURVE SMOOTH",
"1121 444 LINE SMOOTH",
"1122 505 OFFCURVE",
"1084 556 OFFCURVE",
"1021 556 CURVE SMOOTH",
"1016 556 OFFCURVE",
"1012 552 OFFCURVE",
"1012 547 CURVE SMOOTH",
"1012 543 OFFCURVE",
"1016 539 OFFCURVE",
"1021 539 CURVE SMOOTH",
"1072 539 OFFCURVE",
"1099 513 OFFCURVE",
"1099 462 CURVE SMOOTH",
"1099 417 OFFCURVE",
"1078 363 OFFCURVE",
"1059 323 CURVE SMOOTH",
"1039 282 OFFCURVE",
"1016 243 OFFCURVE",
"990 205 CURVE SMOOTH",
"948 145 OFFCURVE",
"835 3 OFFCURVE",
"754 3 CURVE SMOOTH",
"698 3 OFFCURVE",
"690 77 OFFCURVE",
"690 119 CURVE SMOOTH",
"690 217 OFFCURVE",
"742 353 OFFCURVE",
"794 435 CURVE SMOOTH",
"805 451 OFFCURVE",
"816 465 OFFCURVE",
"828 480 CURVE",
"828 481 OFFCURVE",
"828 482 OFFCURVE",
"829 482 CURVE",
"826 490 OFFCURVE",
"811 492 OFFCURVE",
"805 492 CURVE SMOOTH",
"801 492 OFFCURVE",
"796 491 OFFCURVE",
"793 489 CURVE",
"739 471 OFFCURVE",
"629 395 OFFCURVE",
"586 356 CURVE SMOOTH",
"543 317 OFFCURVE",
"316 80 OFFCURVE",
"303 45 CURVE SMOOTH",
"300 36 OFFCURVE",
"294 19 OFFCURVE",
"294 8 CURVE SMOOTH",
"294 7 OFFCURVE",
"294 4 OFFCURVE",
"295 4 CURVE SMOOTH",
"300 4 OFFCURVE",
"309 24 OFFCURVE",
"309 25 CURVE",
"324 51 OFFCURVE",
"358 85 OFFCURVE",
"378 108 CURVE SMOOTH",
"443 179 OFFCURVE",
"679 430 OFFCURVE",
"760 455 CURVE",
"686 373 OFFCURVE",
"630 249 OFFCURVE",
"630 136 CURVE SMOOTH",
"630 62 OFFCURVE",
"657 -17 OFFCURVE",
"744 -17 CURVE SMOOTH"
);
},
{
closed = 1;
nodes = (
"529 596 OFFCURVE",
"450 614 OFFCURVE",
"397 614 CURVE SMOOTH",
"306 614 OFFCURVE",
"193 576 OFFCURVE",
"117 528 CURVE SMOOTH",
"74 500 OFFCURVE",
"6 447 OFFCURVE",
"6 390 CURVE SMOOTH",
"6 325 OFFCURVE",
"96 304 OFFCURVE",
"146 295 CURVE",
"150 295 OFFCURVE",
"154 294 OFFCURVE",
"158 294 CURVE SMOOTH",
"159 294 OFFCURVE",
"166 294 OFFCURVE",
"166 297 CURVE SMOOTH",
"166 302 OFFCURVE",
"152 307 OFFCURVE",
"150 308 CURVE SMOOTH",
"109 322 OFFCURVE",
"49 345 OFFCURVE",
"49 397 CURVE SMOOTH",
"49 443 OFFCURVE",
"98 483 OFFCURVE",
"133 506 CURVE SMOOTH",
"201 552 OFFCURVE",
"311 590 OFFCURVE",
"394 590 CURVE SMOOTH",
"432 590 OFFCURVE",
"487 581 OFFCURVE",
"487 531 CURVE SMOOTH",
"487 416 OFFCURVE",
"273 76 OFFCURVE",
"212 -44 CURVE SMOOTH",
"210 -48 OFFCURVE",
"208 -52 OFFCURVE",
"208 -57 CURVE SMOOTH",
"208 -62 OFFCURVE",
"210 -66 OFFCURVE",
"215 -66 CURVE SMOOTH",
"222 -66 OFFCURVE",
"228 -59 OFFCURVE",
"232 -54 CURVE SMOOTH",
"255 -24 OFFCURVE",
"274 12 OFFCURVE",
"295 44 CURVE SMOOTH",
"349 132 OFFCURVE",
"529 435 OFFCURVE",
"529 528 CURVE SMOOTH"
);
}
);
width = 1049;
}
);
note = W;
unicode = 0057;
},
{
glyphname = X;
layers = (
{
hints = (
{
horizontal = 1;
place = "{-1, 16}";
type = Stem;
},
{
horizontal = 1;
place = "{494, 16}";
type = Stem;
}
);
layerId = "5758FC1C-8DB2-4040-8B3F-38A5D3FE42F4";
paths = (
{
closed = 1;
nodes = (
"503 332 OFFCURVE",
"568 413 OFFCURVE",
"632 494 CURVE SMOOTH",
"659 526 OFFCURVE",
"685 558 OFFCURVE",
"711 591 CURVE SMOOTH",
"713 594 OFFCURVE",
"716 597 OFFCURVE",
"716 601 CURVE SMOOTH",
"716 605 OFFCURVE",
"713 608 OFFCURVE",
"709 608 CURVE SMOOTH",
"705 608 OFFCURVE",
"701 604 OFFCURVE",
"698 601 CURVE SMOOTH",
"669 567 OFFCURVE",
"641 531 OFFCURVE",
"613 497 CURVE SMOOTH",
"552 421 OFFCURVE",
"491 345 OFFCURVE",
"427 272 CURVE",
"387 353 OFFCURVE",
"339 454 OFFCURVE",
"291 529 CURVE SMOOTH",
"269 563 OFFCURVE",
"235 594 OFFCURVE",
"192 594 CURVE SMOOTH",
"121 594 OFFCURVE",
"94 518 OFFCURVE",
"94 459 CURVE SMOOTH",
"94 406 OFFCURVE",
"111 343 OFFCURVE",
"134 296 CURVE SMOOTH",
"136 293 OFFCURVE",
"139 289 OFFCURVE",
"143 289 CURVE SMOOTH",
"148 289 OFFCURVE",
"149 294 OFFCURVE",
"149 298 CURVE SMOOTH",
"149 303 OFFCURVE",
"147 309 OFFCURVE",
"146 314 CURVE",
"129 362 OFFCURVE",
"113 412 OFFCURVE",
"113 464 CURVE SMOOTH",
"113 501 OFFCURVE",
"125 559 OFFCURVE",
"173 559 CURVE SMOOTH",
"192 559 OFFCURVE",
"208 550 OFFCURVE",
"221 538 CURVE SMOOTH",
"285 481 OFFCURVE",
"357 312 OFFCURVE",
"393 233 CURVE",
"332 164 OFFCURVE",
"156 -28 OFFCURVE",
"65 -28 CURVE SMOOTH",
"43 -28 OFFCURVE",
"28 -17 OFFCURVE",
"28 6 CURVE SMOOTH",
"28 48 OFFCURVE",
"75 91 OFFCURVE",
"107 112 CURVE SMOOTH",
"124 123 OFFCURVE",
"141 131 OFFCURVE",
"159 140 CURVE SMOOTH",
"161 141 OFFCURVE",
"163 142 OFFCURVE",
"163 144 CURVE SMOOTH",
"163 150 OFFCURVE",
"156 153 OFFCURVE",
"152 153 CURVE SMOOTH",
"150 153 OFFCURVE",
"149 152 OFFCURVE",
"148 152 CURVE",
"78 124 OFFCURVE",
"-11 55 OFFCURVE",
"-11 -28 CURVE SMOOTH",
"-11 -61 OFFCURVE",
"8 -84 OFFCURVE",
"43 -84 CURVE SMOOTH",
"150 -84 OFFCURVE",
"334 134 OFFCURVE",
"402 212 CURVE",
"441 125 OFFCURVE",
"479 31 OFFCURVE",
"530 -49 CURVE SMOOTH",
"550 -81 OFFCURVE",
"583 -110 OFFCURVE",
"623 -110 CURVE SMOOTH",
"653 -110 OFFCURVE",
"672 -91 OFFCURVE",
"672 -60 CURVE SMOOTH",
"672 -48 OFFCURVE",
"665 -4 OFFCURVE",
"650 -4 CURVE SMOOTH",
"646 -4 OFFCURVE",
"643 -7 OFFCURVE",
"643 -10 CURVE SMOOTH",
"643 -18 OFFCURVE",
"662 -36 OFFCURVE",
"662 -56 CURVE SMOOTH",
"662 -66 OFFCURVE",
"655 -71 OFFCURVE",
"646 -71 CURVE SMOOTH",
"627 -71 OFFCURVE",
"609 -56 OFFCURVE",
"598 -43 CURVE SMOOTH",
"572 -13 OFFCURVE",
"553 27 OFFCURVE",
"534 61 CURVE SMOOTH",
"500 124 OFFCURVE",
"468 189 OFFCURVE",
"437 253 CURVE"
);
}
);
width = 498;
}
);
note = X;
unicode = 0058;
},
{
glyphname = Y;
layers = (
{
hints = (
{
horizontal = 1;
place = "{-2, 16}";
type = Stem;
},
{
horizontal = 1;
place = "{493, 16}";
type = Stem;
},
{
place = "{-122, 133}";
type = Stem;
}
);
layerId = "5758FC1C-8DB2-4040-8B3F-38A5D3FE42F4";
paths = (
{
closed = 1;
nodes = (
"473 128 LINE",
"547 262 OFFCURVE",
"617 400 OFFCURVE",
"701 527 CURVE SMOOTH",
"719 553 OFFCURVE",
"737 577 OFFCURVE",
"756 602 CURVE SMOOTH",
"757 603 OFFCURVE",
"757 605 OFFCURVE",
"757 607 CURVE SMOOTH",
"757 619 OFFCURVE",
"736 622 OFFCURVE",
"728 622 CURVE SMOOTH",
"722 622 OFFCURVE",
"695 617 OFFCURVE",
"694 610 CURVE",
"693 611 OFFCURVE",
"691 612 OFFCURVE",
"689 612 CURVE SMOOTH",
"688 612 OFFCURVE",
"686 611 OFFCURVE",
"685 611 CURVE",
"574 542 OFFCURVE",
"380 294 OFFCURVE",
"300 181 CURVE",
"325 257 OFFCURVE",
"347 342 OFFCURVE",
"347 423 CURVE SMOOTH",
"347 510 OFFCURVE",
"314 630 OFFCURVE",
"207 630 CURVE SMOOTH",
"108 630 OFFCURVE",
"54 530 OFFCURVE",
"54 442 CURVE SMOOTH",
"54 385 OFFCURVE",
"86 279 OFFCURVE",
"122 234 CURVE SMOOTH",
"123 233 OFFCURVE",
"126 231 OFFCURVE",
"128 231 CURVE SMOOTH",
"133 231 OFFCURVE",
"137 235 OFFCURVE",
"137 239 CURVE SMOOTH",
"137 241 OFFCURVE",
"136 243 OFFCURVE",
"135 245 CURVE SMOOTH",
"109 284 OFFCURVE",
"89 392 OFFCURVE",
"89 440 CURVE SMOOTH",
"89 500 OFFCURVE",
"119 600 OFFCURVE",
"194 600 CURVE SMOOTH",
"275 600 OFFCURVE",
"289 477 OFFCURVE",
"289 419 CURVE SMOOTH",
"289 311 OFFCURVE",
"262 201 OFFCURVE",
"227 100 CURVE",
"99 69 OFFCURVE",
"-170 -40 OFFCURVE",
"-170 -199 CURVE SMOOTH",
"-170 -285 OFFCURVE",
"-89 -326 OFFCURVE",
"-13 -326 CURVE SMOOTH",
"129 -326 OFFCURVE",
"252 -211 OFFCURVE",
"331 -104 CURVE SMOOTH",
"381 -36 OFFCURVE",
"423 39 OFFCURVE",
"464 113 CURVE",
"470 113 OFFCURVE",
"519 109 OFFCURVE",
"519 118 CURVE SMOOTH",
"519 126 OFFCURVE",
"494 128 OFFCURVE",
"487 128 CURVE SMOOTH"
);
},
{
closed = 1;
nodes = (
"671 572 OFFCURVE",
"637 523 OFFCURVE",
"637 509 CURVE SMOOTH",
"637 508 OFFCURVE",
"637 506 OFFCURVE",
"638 505 CURVE",
"570 378 OFFCURVE",
"500 251 OFFCURVE",
"427 127 CURVE",
"378 125 OFFCURVE",
"329 120 OFFCURVE",
"281 111 CURVE",
"285 120 OFFCURVE",
"288 131 OFFCURVE",
"293 140 CURVE SMOOTH",
"344 244 OFFCURVE",
"586 505 OFFCURVE",
"679 585 CURVE"
);
},
{
closed = 1;
nodes = (
"381 50 OFFCURVE",
"344 -12 OFFCURVE",
"302 -69 CURVE SMOOTH",
"233 -163 OFFCURVE",
"102 -310 OFFCURVE",
"-28 -310 CURVE SMOOTH",
"-84 -310 OFFCURVE",
"-127 -278 OFFCURVE",
"-127 -219 CURVE SMOOTH",
"-127 -98 OFFCURVE",
"31 0 OFFCURVE",
"126 44 CURVE SMOOTH",
"156 58 OFFCURVE",
"188 70 OFFCURVE",
"220 79 CURVE",
"217 72 OFFCURVE",
"215 64 OFFCURVE",
"215 57 CURVE SMOOTH",
"215 46 OFFCURVE",
"221 30 OFFCURVE",
"234 30 CURVE SMOOTH",
"263 30 OFFCURVE",
"266 83 OFFCURVE",
"273 93 CURVE",
"321 103 OFFCURVE",
"369 110 OFFCURVE",
"418 112 CURVE"
);
}
);
width = 672;
}
);
note = Y;
unicode = 0059;
},
{
glyphname = Z;
layers = (
{
hints = (
{
horizontal = 1;
place = "{4, 17}";
type = Stem;
},
{
horizontal = 1;
place = "{495, 15}";
type = Stem;
}
);
layerId = "5758FC1C-8DB2-4040-8B3F-38A5D3FE42F4";
paths = (
{
closed = 1;
nodes = (
"837 536 OFFCURVE",
"912 551 OFFCURVE",
"912 579 CURVE SMOOTH",
"912 590 OFFCURVE",
"893 591 OFFCURVE",
"886 591 CURVE SMOOTH",
"850 591 OFFCURVE",
"830 570 OFFCURVE",
"802 551 CURVE",
"793 551 LINE SMOOTH",
"698 551 OFFCURVE",
"602 568 OFFCURVE",
"508 583 CURVE SMOOTH",
"475 588 OFFCURVE",
"441 591 OFFCURVE",
"407 591 CURVE SMOOTH",
"343 591 OFFCURVE",
"248 578 OFFCURVE",
"202 527 CURVE SMOOTH",
"190 514 OFFCURVE",
"182 498 OFFCURVE",
"182 479 CURVE SMOOTH",
"182 397 OFFCURVE",
"332 363 OFFCURVE",
"392 353 CURVE SMOOTH",
"394 353 OFFCURVE",
"397 353 OFFCURVE",
"400 353 CURVE SMOOTH",
"402 353 OFFCURVE",
"411 353 OFFCURVE",
"411 357 CURVE SMOOTH",
"411 361 OFFCURVE",
"405 362 OFFCURVE",
"403 363 CURVE",
"385 366 OFFCURVE",
"368 368 OFFCURVE",
"351 373 CURVE SMOOTH",
"307 385 OFFCURVE",
"241 415 OFFCURVE",
"241 470 CURVE SMOOTH",
"241 550 OFFCURVE",
"365 571 OFFCURVE",
"424 571 CURVE SMOOTH",
"451 571 OFFCURVE",
"477 569 OFFCURVE",
"503 565 CURVE SMOOTH",
"592 551 OFFCURVE",
"682 530 OFFCURVE",
"773 531 CURVE SMOOTH",
"782 531 LINE",
"685 460 OFFCURVE",
"594 378 OFFCURVE",
"508 293 CURVE",
"429 291 OFFCURVE",
"260 281 OFFCURVE",
"226 193 CURVE SMOOTH",
"225 190 OFFCURVE",
"224 188 OFFCURVE",
"224 185 CURVE SMOOTH",
"224 183 OFFCURVE",
"225 181 OFFCURVE",
"228 181 CURVE SMOOTH",
"233 181 OFFCURVE",
"237 188 OFFCURVE",
"239 192 CURVE SMOOTH",
"243 201 OFFCURVE",
"247 208 OFFCURVE",
"255 215 CURVE SMOOTH",
"300 256 OFFCURVE",
"420 262 OFFCURVE",
"478 264 CURVE",
"417 202 OFFCURVE",
"361 138 OFFCURVE",
"303 73 CURVE",
"249 99 OFFCURVE",
"173 134 OFFCURVE",
"112 134 CURVE SMOOTH",
"45 134 OFFCURVE",
"19 92 OFFCURVE",
"19 29 CURVE SMOOTH",
"19 18 OFFCURVE",
"20 -38 OFFCURVE",
"34 -38 CURVE SMOOTH",
"37 -38 OFFCURVE",
"38 -33 OFFCURVE",
"38 -31 CURVE SMOOTH",
"38 -18 OFFCURVE",
"31 -6 OFFCURVE",
"31 7 CURVE SMOOTH",
"31 51 OFFCURVE",
"59 84 OFFCURVE",
"104 84 CURVE SMOOTH",
"141 84 OFFCURVE",
"227 47 OFFCURVE",
"265 32 CURVE",
"234 0 OFFCURVE",
"160 -74 OFFCURVE",
"112 -74 CURVE SMOOTH",
"67 -74 OFFCURVE",
"65 -13 OFFCURVE",
"65 19 CURVE SMOOTH",
"65 25 OFFCURVE",
"65 28 OFFCURVE",
"64 34 CURVE SMOOTH",
"64 39 OFFCURVE",
"63 46 OFFCURVE",
"60 46 CURVE SMOOTH",
"53 46 OFFCURVE",
"52 -1 OFFCURVE",
"52 -11 CURVE SMOOTH",
"52 -51 OFFCURVE",
"60 -109 OFFCURVE",
"111 -109 CURVE SMOOTH",
"174 -109 OFFCURVE",
"263 -25 OFFCURVE",
"304 16 CURVE",
"451 -44 OFFCURVE",
"605 -116 OFFCURVE",
"762 -146 CURVE SMOOTH",
"772 -148 OFFCURVE",
"782 -149 OFFCURVE",
"791 -149 CURVE SMOOTH",
"822 -149 OFFCURVE",
"846 -136 OFFCURVE",
"846 -102 CURVE SMOOTH",
"846 -89 OFFCURVE",
"830 -26 OFFCURVE",
"817 -26 CURVE SMOOTH",
"814 -26 OFFCURVE",
"812 -29 OFFCURVE",
"812 -32 CURVE SMOOTH",
"812 -40 OFFCURVE",
"821 -61 OFFCURVE",
"821 -78 CURVE SMOOTH",
"821 -105 OFFCURVE",
"804 -114 OFFCURVE",
"779 -114 CURVE SMOOTH",
"655 -114 OFFCURVE",
"453 -1 OFFCURVE",
"341 55 CURVE",
"405 125 OFFCURVE",
"469 196 OFFCURVE",
"535 264 CURVE",
"594 264 OFFCURVE",
"654 260 OFFCURVE",
"713 260 CURVE SMOOTH",
"718 260 OFFCURVE",
"744 266 OFFCURVE",
"744 271 CURVE SMOOTH",
"744 275 OFFCURVE",
"732 277 OFFCURVE",
"731 277 CURVE SMOOTH",
"679 290 OFFCURVE",
"616 292 OFFCURVE",
"563 293 CURVE",
"644 376 OFFCURVE",
"726 461 OFFCURVE",
"816 533 CURVE"
);
}
);
width = 661;
}
);
note = Z;
unicode = 005A;
},
{
glyphname = a;
layers = (
{
hints = (
{
horizontal = 1;
place = "{-5, 33}";
type = Stem;
},
{
horizontal = 1;
place = "{282, 16}";
type = Stem;
},
{
place = "{-21, 35}";
type = Stem;
},
{
place = "{126, 35}";
type = Stem;
}
);
layerId = "5758FC1C-8DB2-4040-8B3F-38A5D3FE42F4";
paths = (
{
closed = 1;
nodes = (
"258 -8 OFFCURVE",
"278 3 OFFCURVE",
"294 15 CURVE SMOOTH",
"306 24 OFFCURVE",
"344 56 OFFCURVE",
"344 74 CURVE SMOOTH",
"344 75 OFFCURVE",
"344 76 OFFCURVE",
"342 76 CURVE SMOOTH",
"337 76 OFFCURVE",
"296 22 OFFCURVE",
"262 22 CURVE SMOOTH",
"242 22 OFFCURVE",
"240 45 OFFCURVE",
"240 60 CURVE SMOOTH",
"240 102 OFFCURVE",
"256 180 OFFCURVE",
"275 216 CURVE",
"283 219 OFFCURVE",
"303 266 OFFCURVE",
"303 277 CURVE SMOOTH",
"303 284 OFFCURVE",
"299 287 OFFCURVE",
"292 287 CURVE SMOOTH",
"284 287 OFFCURVE",
"276 284 OFFCURVE",
"269 281 CURVE",
"255 283 OFFCURVE",
"241 286 OFFCURVE",
"228 286 CURVE SMOOTH",
"210 286 OFFCURVE",
"193 278 OFFCURVE",
"178 270 CURVE",
"96 277 OFFCURVE",
"3 89 OFFCURVE",
"3 19 CURVE SMOOTH",
"3 6 OFFCURVE",
"6 -7 OFFCURVE",
"22 -7 CURVE SMOOTH",
"79 -7 OFFCURVE",
"179 111 OFFCURVE",
"206 156 CURVE",
"199 124 OFFCURVE",
"193 90 OFFCURVE",
"193 57 CURVE SMOOTH",
"193 28 OFFCURVE",
"202 -8 OFFCURVE",
"238 -8 CURVE SMOOTH"
);
},
{
closed = 1;
nodes = (
"197 173 OFFCURVE",
"160 96 OFFCURVE",
"80 39 CURVE SMOOTH",
"75 35 OFFCURVE",
"64 27 OFFCURVE",
"57 27 CURVE SMOOTH",
"53 27 OFFCURVE",
"52 31 OFFCURVE",
"52 34 CURVE SMOOTH",
"52 39 OFFCURVE",
"54 43 OFFCURVE",
"55 47 CURVE SMOOTH",
"71 101 OFFCURVE",
"115 188 OFFCURVE",
"153 228 CURVE SMOOTH",
"169 246 OFFCURVE",
"196 262 OFFCURVE",
"221 262 CURVE SMOOTH",
"227 262 OFFCURVE",
"234 260 OFFCURVE",
"240 258 CURVE"
);
}
);
width = 319;
}
);
note = a;
unicode = 0061;
},
{
glyphname = aacute;
layers = (
{
hints = (
{
horizontal = 1;
place = "{-8, 20}";
type = Stem;
}
);
layerId = "5758FC1C-8DB2-4040-8B3F-38A5D3FE42F4";
paths = (
{
closed = 1;
nodes = (
"246 328 OFFCURVE",
"361 387 OFFCURVE",
"361 397 CURVE SMOOTH",
"361 402 OFFCURVE",
"354 403 OFFCURVE",
"351 403 CURVE SMOOTH",
"336 403 OFFCURVE",
"230 341 OFFCURVE",
"230 331 CURVE SMOOTH",
"230 329 OFFCURVE",
"231 328 OFFCURVE",
"232 328 CURVE SMOOTH"
);
},
{
closed = 1;
nodes = (
"258 -8 OFFCURVE",
"278 3 OFFCURVE",
"294 15 CURVE SMOOTH",
"306 24 OFFCURVE",
"344 56 OFFCURVE",
"344 74 CURVE SMOOTH",
"344 75 OFFCURVE",
"344 76 OFFCURVE",
"342 76 CURVE SMOOTH",
"337 76 OFFCURVE",
"296 22 OFFCURVE",
"262 22 CURVE SMOOTH",
"242 22 OFFCURVE",
"240 45 OFFCURVE",
"240 60 CURVE SMOOTH",
"240 102 OFFCURVE",
"256 180 OFFCURVE",
"275 216 CURVE",
"283 219 OFFCURVE",
"303 266 OFFCURVE",
"303 277 CURVE SMOOTH",
"303 284 OFFCURVE",
"299 287 OFFCURVE",
"292 287 CURVE SMOOTH",
"284 287 OFFCURVE",
"276 284 OFFCURVE",
"269 281 CURVE",
"255 283 OFFCURVE",
"241 286 OFFCURVE",
"228 286 CURVE SMOOTH",
"210 286 OFFCURVE",
"193 278 OFFCURVE",
"178 270 CURVE",
"96 277 OFFCURVE",
"3 89 OFFCURVE",
"3 19 CURVE SMOOTH",
"3 6 OFFCURVE",
"6 -7 OFFCURVE",
"22 -7 CURVE SMOOTH",
"79 -7 OFFCURVE",
"179 111 OFFCURVE",
"206 156 CURVE",
"199 124 OFFCURVE",
"193 90 OFFCURVE",
"193 57 CURVE SMOOTH",
"193 28 OFFCURVE",
"202 -8 OFFCURVE",
"238 -8 CURVE SMOOTH"
);
},
{
closed = 1;
nodes = (
"197 173 OFFCURVE",
"160 96 OFFCURVE",
"80 39 CURVE SMOOTH",
"75 35 OFFCURVE",
"64 27 OFFCURVE",
"57 27 CURVE SMOOTH",
"53 27 OFFCURVE",
"52 31 OFFCURVE",
"52 34 CURVE SMOOTH",
"52 39 OFFCURVE",
"54 43 OFFCURVE",
"55 47 CURVE SMOOTH",
"71 101 OFFCURVE",
"115 188 OFFCURVE",
"153 228 CURVE SMOOTH",
"169 246 OFFCURVE",
"196 262 OFFCURVE",
"221 262 CURVE SMOOTH",
"227 262 OFFCURVE",
"234 260 OFFCURVE",
"240 258 CURVE"
);
}
);
width = 271;
}
);
note = aacute;
unicode = 00E1;
},
{
glyphname = acircumflex;
layers = (
{
hints = (
{
horizontal = 1;
place = "{-8, 20}";
type = Stem;
}
);
layerId = "5758FC1C-8DB2-4040-8B3F-38A5D3FE42F4";
paths = (
{
closed = 1;
nodes = (
"351 348 LINE",
"350 354 LINE",
"328 376 OFFCURVE",
"307 398 OFFCURVE",
"292 425 CURVE",
"289 427 LINE",
"273 423 OFFCURVE",
"183 365 OFFCURVE",
"173 352 CURVE",
"176 346 LINE",
"193 350 OFFCURVE",
"252 389 OFFCURVE",
"271 401 CURVE",
"281 384 OFFCURVE",
"326 345 OFFCURVE",
"346 343 CURVE"
);
},
{
closed = 1;
nodes = (
"258 -8 OFFCURVE",
"278 3 OFFCURVE",
"294 15 CURVE SMOOTH",
"306 24 OFFCURVE",
"344 56 OFFCURVE",
"344 74 CURVE SMOOTH",
"344 75 OFFCURVE",
"344 76 OFFCURVE",
"342 76 CURVE SMOOTH",
"337 76 OFFCURVE",
"296 22 OFFCURVE",
"262 22 CURVE SMOOTH",
"242 22 OFFCURVE",
"240 45 OFFCURVE",
"240 60 CURVE SMOOTH",
"240 102 OFFCURVE",
"256 180 OFFCURVE",
"275 216 CURVE",
"283 219 OFFCURVE",
"303 266 OFFCURVE",
"303 277 CURVE SMOOTH",
"303 284 OFFCURVE",
"299 287 OFFCURVE",
"292 287 CURVE SMOOTH",
"284 287 OFFCURVE",
"276 284 OFFCURVE",
"269 281 CURVE",
"255 283 OFFCURVE",
"241 286 OFFCURVE",
"228 286 CURVE SMOOTH",
"210 286 OFFCURVE",
"193 278 OFFCURVE",
"178 270 CURVE",
"96 277 OFFCURVE",
"3 89 OFFCURVE",
"3 19 CURVE SMOOTH",
"3 6 OFFCURVE",
"6 -7 OFFCURVE",
"22 -7 CURVE SMOOTH",
"79 -7 OFFCURVE",
"179 111 OFFCURVE",
"206 156 CURVE",
"199 124 OFFCURVE",
"193 90 OFFCURVE",
"193 57 CURVE SMOOTH",
"193 28 OFFCURVE",
"202 -8 OFFCURVE",
"238 -8 CURVE SMOOTH"
);
},
{
closed = 1;
nodes = (
"197 173 OFFCURVE",
"160 96 OFFCURVE",
"80 39 CURVE SMOOTH",
"75 35 OFFCURVE",
"64 27 OFFCURVE",
"57 27 CURVE SMOOTH",
"53 27 OFFCURVE",
"52 31 OFFCURVE",
"52 34 CURVE SMOOTH",
"52 39 OFFCURVE",
"54 43 OFFCURVE",
"55 47 CURVE SMOOTH",
"71 101 OFFCURVE",
"115 188 OFFCURVE",
"153 228 CURVE SMOOTH",
"169 246 OFFCURVE",
"196 262 OFFCURVE",
"221 262 CURVE SMOOTH",
"227 262 OFFCURVE",
"234 260 OFFCURVE",
"240 258 CURVE"
);
}
);
width = 271;
}
);
note = acircumflex;
unicode = 00E2;
},
{
glyphname = adieresis;
layers = (
{
hints = (
{
horizontal = 1;
place = "{-8, 20}";
type = Stem;
}
);
layerId = "5758FC1C-8DB2-4040-8B3F-38A5D3FE42F4";
paths = (
{
closed = 1;
nodes = (
"358 411 LINE",
"356 412 LINE",
"337 411 OFFCURVE",
"276 379 OFFCURVE",
"276 358 CURVE SMOOTH",
"276 352 OFFCURVE",
"278 340 OFFCURVE",
"286 340 CURVE SMOOTH",
"307 340 OFFCURVE",
"327 382 OFFCURVE",
"341 396 CURVE",
"344 398 OFFCURVE",
"357 408 OFFCURVE",
"358 409 CURVE",
"358 410 OFFCURVE",
"358 411 OFFCURVE",
"358 411 CURVE"
);
},
{
closed = 1;
nodes = (
"259 411 LINE",
"256 412 LINE",
"237 411 OFFCURVE",
"176 379 OFFCURVE",
"176 358 CURVE SMOOTH",
"176 352 OFFCURVE",
"178 340 OFFCURVE",
"186 340 CURVE SMOOTH",
"207 340 OFFCURVE",
"227 382 OFFCURVE",
"242 396 CURVE SMOOTH",
"244 398 OFFCURVE",
"258 408 OFFCURVE",
"258 409 CURVE",
"259 410 OFFCURVE",
"259 411 OFFCURVE",
"259 411 CURVE"
);
},
{
closed = 1;
nodes = (
"258 -8 OFFCURVE",
"278 3 OFFCURVE",
"294 15 CURVE SMOOTH",
"306 24 OFFCURVE",
"344 56 OFFCURVE",
"344 74 CURVE SMOOTH",
"344 75 OFFCURVE",
"344 76 OFFCURVE",
"342 76 CURVE SMOOTH",
"337 76 OFFCURVE",
"296 22 OFFCURVE",
"262 22 CURVE SMOOTH",
"242 22 OFFCURVE",
"240 45 OFFCURVE",
"240 60 CURVE SMOOTH",
"240 102 OFFCURVE",
"256 180 OFFCURVE",
"275 216 CURVE",
"283 219 OFFCURVE",
"303 266 OFFCURVE",
"303 277 CURVE SMOOTH",
"303 284 OFFCURVE",
"299 287 OFFCURVE",
"292 287 CURVE SMOOTH",
"284 287 OFFCURVE",
"276 284 OFFCURVE",
"269 281 CURVE",
"255 283 OFFCURVE",
"241 286 OFFCURVE",
"228 286 CURVE SMOOTH",
"210 286 OFFCURVE",
"193 278 OFFCURVE",
"178 270 CURVE",
"96 277 OFFCURVE",
"3 89 OFFCURVE",
"3 19 CURVE SMOOTH",
"3 6 OFFCURVE",
"6 -7 OFFCURVE",
"22 -7 CURVE SMOOTH",
"79 -7 OFFCURVE",
"179 111 OFFCURVE",
"206 156 CURVE",
"199 124 OFFCURVE",
"193 90 OFFCURVE",
"193 57 CURVE SMOOTH",
"193 28 OFFCURVE",
"202 -8 OFFCURVE",
"238 -8 CURVE SMOOTH"
);
},
{
closed = 1;
nodes = (
"197 173 OFFCURVE",
"160 96 OFFCURVE",
"80 39 CURVE SMOOTH",
"75 35 OFFCURVE",
"64 27 OFFCURVE",
"57 27 CURVE SMOOTH",
"53 27 OFFCURVE",
"52 31 OFFCURVE",
"52 34 CURVE SMOOTH",
"52 39 OFFCURVE",
"54 43 OFFCURVE",
"55 47 CURVE SMOOTH",
"71 101 OFFCURVE",
"115 188 OFFCURVE",
"153 228 CURVE SMOOTH",
"169 246 OFFCURVE",
"196 262 OFFCURVE",
"221 262 CURVE SMOOTH",
"227 262 OFFCURVE",
"234 260 OFFCURVE",
"240 258 CURVE"
);
}
);
width = 271;
}
);
note = adieresis;
unicode = 00E4;
},
{
glyphname = agrave;
layers = (
{
hints = (
{
horizontal = 1;
place = "{-8, 20}";
type = Stem;
}
);
layerId = "5758FC1C-8DB2-4040-8B3F-38A5D3FE42F4";
paths = (
{
closed = 1;
nodes = (
"273 333 OFFCURVE",
"275 336 OFFCURVE",
"275 339 CURVE SMOOTH",
"275 352 OFFCURVE",
"213 413 OFFCURVE",
"200 413 CURVE SMOOTH",
"194 413 OFFCURVE",
"183 409 OFFCURVE",
"183 402 CURVE SMOOTH",
"183 393 OFFCURVE",
"259 333 OFFCURVE",
"270 333 CURVE SMOOTH"
);
},
{
closed = 1;
nodes = (
"258 -8 OFFCURVE",
"278 3 OFFCURVE",
"294 15 CURVE SMOOTH",
"306 24 OFFCURVE",
"344 56 OFFCURVE",
"344 74 CURVE SMOOTH",
"344 75 OFFCURVE",
"344 76 OFFCURVE",
"342 76 CURVE SMOOTH",
"337 76 OFFCURVE",
"296 22 OFFCURVE",
"262 22 CURVE SMOOTH",
"242 22 OFFCURVE",
"240 45 OFFCURVE",
"240 60 CURVE SMOOTH",
"240 102 OFFCURVE",
"256 180 OFFCURVE",
"275 216 CURVE",
"283 219 OFFCURVE",
"303 266 OFFCURVE",
"303 277 CURVE SMOOTH",
"303 284 OFFCURVE",
"299 287 OFFCURVE",
"292 287 CURVE SMOOTH",
"284 287 OFFCURVE",
"276 284 OFFCURVE",
"269 281 CURVE",
"255 283 OFFCURVE",
"241 286 OFFCURVE",
"228 286 CURVE SMOOTH",
"210 286 OFFCURVE",
"193 278 OFFCURVE",
"178 270 CURVE",
"96 277 OFFCURVE",
"3 89 OFFCURVE",
"3 19 CURVE SMOOTH",
"3 6 OFFCURVE",
"6 -7 OFFCURVE",
"22 -7 CURVE SMOOTH",
"79 -7 OFFCURVE",
"179 111 OFFCURVE",
"206 156 CURVE",
"199 124 OFFCURVE",
"193 90 OFFCURVE",
"193 57 CURVE SMOOTH",
"193 28 OFFCURVE",
"202 -8 OFFCURVE",
"238 -8 CURVE SMOOTH"
);
},
{
closed = 1;
nodes = (
"197 173 OFFCURVE",
"160 96 OFFCURVE",
"80 39 CURVE SMOOTH",
"75 35 OFFCURVE",
"64 27 OFFCURVE",
"57 27 CURVE SMOOTH",
"53 27 OFFCURVE",
"52 31 OFFCURVE",
"52 34 CURVE SMOOTH",
"52 39 OFFCURVE",
"54 43 OFFCURVE",
"55 47 CURVE SMOOTH",
"71 101 OFFCURVE",
"115 188 OFFCURVE",
"153 228 CURVE SMOOTH",
"169 246 OFFCURVE",
"196 262 OFFCURVE",
"221 262 CURVE SMOOTH",
"227 262 OFFCURVE",
"234 260 OFFCURVE",
"240 258 CURVE"
);
}
);
width = 271;
}
);
note = agrave;
unicode = 00E0;
},
{
glyphname = ae;
lastChange = "2020-01-05 08:12:37 +0000";
layers = (
{
hints = (
{
horizontal = 1;
place = "{-5, 33}";
type = Stem;
},
{
horizontal = 1;
place = "{282, 16}";
type = Stem;
},
{
place = "{-21, 35}";
type = Stem;
},
{
place = "{126, 35}";
type = Stem;
},
{
horizontal = 1;
place = "{-7, 16}";
type = Stem;
},
{
horizontal = 1;
place = "{276, 16}";
type = Stem;
},
{
place = "{312, 31}";
type = Stem;
}
);
layerId = "5758FC1C-8DB2-4040-8B3F-38A5D3FE42F4";
paths = (
{
closed = 1;
nodes = (
"422 190 OFFCURVE",
"452 242 OFFCURVE",
"452 270 CURVE SMOOTH",
"452 287 OFFCURVE",
"441 295 OFFCURVE",
"425 295 CURVE SMOOTH",
"418 295 OFFCURVE",
"384 290 OFFCURVE",
"384 282 CURVE SMOOTH",
"384 278 OFFCURVE",
"391 277 OFFCURVE",
"394 277 CURVE SMOOTH",
"406 277 OFFCURVE",
"408 277 OFFCURVE",
"408 262 CURVE SMOOTH",
"408 235 OFFCURVE",
"393 200 OFFCURVE",
"378 179 CURVE",
"348 181 OFFCURVE",
"306 178 OFFCURVE",
"276 173 CURVE",
"290 196 OFFCURVE",
"329 242 OFFCURVE",
"352 257 CURVE SMOOTH",
"355 259 OFFCURVE",
"365 266 OFFCURVE",
"365 270 CURVE SMOOTH",
"365 273 OFFCURVE",
"360 273 OFFCURVE",
"358 273 CURVE SMOOTH",
"351 273 OFFCURVE",
"344 272 OFFCURVE",
"337 270 CURVE SMOOTH",
"321 265 OFFCURVE",
"307 257 OFFCURVE",
"293 247 CURVE",
"299 259 OFFCURVE",
"303 272 OFFCURVE",
"303 277 CURVE SMOOTH",
"303 284 OFFCURVE",
"299 287 OFFCURVE",
"292 287 CURVE SMOOTH",
"284 287 OFFCURVE",
"276 284 OFFCURVE",
"269 281 CURVE",
"255 283 OFFCURVE",
"241 286 OFFCURVE",
"228 286 CURVE SMOOTH",
"210 286 OFFCURVE",
"193 278 OFFCURVE",
"178 270 CURVE",
"96 277 OFFCURVE",
"3 89 OFFCURVE",
"3 19 CURVE SMOOTH",
"3 6 OFFCURVE",
"6 -7 OFFCURVE",
"22 -7 CURVE SMOOTH",
"79 -7 OFFCURVE",
"179 111 OFFCURVE",
"206 156 CURVE",
"199 124 OFFCURVE",
"182 62 OFFCURVE",
"182 29 CURVE SMOOTH",
"182 14 OFFCURVE",
"184 5 OFFCURVE",
"190 -1 CURVE SMOOTH",
"193 -4 OFFCURVE",
"196 -5 OFFCURVE",
"200 -5 CURVE",
"205 -7 OFFCURVE",
"211 -7 OFFCURVE",
"218 -7 CURVE SMOOTH",
"279 -7 OFFCURVE",
"339 18 OFFCURVE",
"386 54 CURVE SMOOTH",
"398 63 OFFCURVE",
"423 90 OFFCURVE",
"423 106 CURVE SMOOTH",
"423 109 OFFCURVE",
"422 110 OFFCURVE",
"420 110 CURVE SMOOTH",
"415 110 OFFCURVE",
"343 16 OFFCURVE",
"275 16 CURVE SMOOTH",
"222 16 OFFCURVE",
"233 98 OFFCURVE",
"262 147 CURVE",
"299 155 OFFCURVE",
"349 161 OFFCURVE",
"387 161 CURVE SMOOTH",
"399 161 OFFCURVE",
"411 158 OFFCURVE",
"423 158 CURVE SMOOTH",
"425 158 OFFCURVE",
"437 158 OFFCURVE",
"437 162 CURVE SMOOTH",
"437 169 OFFCURVE",
"404 176 OFFCURVE",
"398 177 CURVE"
);
},
{
closed = 1;
nodes = (
"75 35 OFFCURVE",
"64 27 OFFCURVE",
"57 27 CURVE SMOOTH",
"53 27 OFFCURVE",
"52 31 OFFCURVE",
"52 34 CURVE SMOOTH",
"52 39 OFFCURVE",
"54 43 OFFCURVE",
"55 47 CURVE SMOOTH",
"71 101 OFFCURVE",
"115 188 OFFCURVE",
"153 228 CURVE SMOOTH",
"169 246 OFFCURVE",
"196 262 OFFCURVE",
"221 262 CURVE SMOOTH",
"227 262 OFFCURVE",
"234 260 OFFCURVE",
"240 258 CURVE",
"197 173 OFFCURVE",
"160 96 OFFCURVE",
"80 39 CURVE SMOOTH"
);
}
);
width = 399;
}
);
unicode = 00E6;
},
{
glyphname = b;
layers = (
{
hints = (
{
horizontal = 1;
place = "{-130, 110}";
type = Stem;
},
{
horizontal = 1;
place = "{142, 35}";
type = Stem;
},
{
horizontal = 1;
place = "{389, 16}";
type = Stem;
}
);
layerId = "5758FC1C-8DB2-4040-8B3F-38A5D3FE42F4";
paths = (
{
closed = 1;
nodes = (
"131 228 OFFCURVE",
"184 339 OFFCURVE",
"248 444 CURVE SMOOTH",
"279 495 OFFCURVE",
"313 543 OFFCURVE",
"347 592 CURVE",
"348 592 OFFCURVE",
"348 594 OFFCURVE",
"348 595 CURVE SMOOTH",
"348 604 OFFCURVE",
"328 605 OFFCURVE",
"322 605 CURVE SMOOTH",
"311 605 OFFCURVE",
"287 601 OFFCURVE",
"280 593 CURVE SMOOTH",
"275 587 OFFCURVE",
"248 545 OFFCURVE",
"243 536 CURVE SMOOTH",
"241 533 OFFCURVE",
"241 531 OFFCURVE",
"241 528 CURVE SMOOTH",
"241 523 OFFCURVE",
"242 518 OFFCURVE",
"244 514 CURVE",
"179 401 OFFCURVE",
"121 283 OFFCURVE",
"67 164 CURVE SMOOTH",
"48 124 OFFCURVE",
"19 64 OFFCURVE",
"8 22 CURVE",
"8 20 OFFCURVE",
"7 18 OFFCURVE",
"7 16 CURVE SMOOTH",
"7 6 OFFCURVE",
"16 -9 OFFCURVE",
"27 -9 CURVE SMOOTH",
"32 -9 OFFCURVE",
"34 -4 OFFCURVE",
"36 -1 CURVE",
"48 -10 OFFCURVE",
"64 -14 OFFCURVE",
"79 -14 CURVE SMOOTH",
"98 -14 OFFCURVE",
"101 -5 OFFCURVE",
"116 3 CURVE SMOOTH",
"141 15 OFFCURVE",
"170 19 OFFCURVE",
"191 38 CURVE SMOOTH",
"226 69 OFFCURVE",
"261 133 OFFCURVE",
"279 176 CURVE",
"287 179 OFFCURVE",
"315 185 OFFCURVE",
"315 195 CURVE SMOOTH",
"315 197 OFFCURVE",
"313 198 OFFCURVE",
"311 198 CURVE SMOOTH",
"306 198 OFFCURVE",
"290 190 OFFCURVE",
"285 188 CURVE",
"294 211 OFFCURVE",
"306 247 OFFCURVE",
"306 271 CURVE SMOOTH",
"306 288 OFFCURVE",
"301 295 OFFCURVE",
"284 295 CURVE SMOOTH",
"224 295 OFFCURVE",
"120 160 OFFCURVE",
"84 114 CURVE"
);
},
{
closed = 1;
nodes = (
"255 229 OFFCURVE",
"237 189 OFFCURVE",
"230 173 CURVE",
"182 151 OFFCURVE",
"135 128 OFFCURVE",
"93 96 CURVE",
"113 128 OFFCURVE",
"215 255 OFFCURVE",
"248 255 CURVE SMOOTH",
"253 255 OFFCURVE",
"255 250 OFFCURVE",
"255 245 CURVE SMOOTH"
);
},
{
closed = 1;
nodes = (
"203 114 OFFCURVE",
"146 8 OFFCURVE",
"88 8 CURVE SMOOTH",
"73 8 OFFCURVE",
"61 16 OFFCURVE",
"52 28 CURVE",
"83 78 OFFCURVE",
"171 137 OFFCURVE",
"225 160 CURVE"
);
}
);
width = 270;
}
);
note = b;
unicode = 0062;
},
{
glyphname = c;
layers = (
{
hints = (
{
horizontal = 1;
place = "{-7, 16}";
type = Stem;
},
{
horizontal = 1;
place = "{219, 77}";
type = Stem;
},
{
place = "{-2, 31}";
type = Stem;
}
);
layerId = "5758FC1C-8DB2-4040-8B3F-38A5D3FE42F4";
paths = (
{
closed = 1;
nodes = (
"279 280 OFFCURVE",
"263 293 OFFCURVE",
"243 293 CURVE SMOOTH",
"215 293 OFFCURVE",
"190 278 OFFCURVE",
"164 270 CURVE SMOOTH",
"86 247 OFFCURVE",
"34 134 OFFCURVE",
"13 61 CURVE SMOOTH",
"10 51 OFFCURVE",
"9 40 OFFCURVE",
"9 29 CURVE SMOOTH",
"9 0 OFFCURVE",
"16 -7 OFFCURVE",
"45 -7 CURVE SMOOTH",
"105 -7 OFFCURVE",
"165 18 OFFCURVE",
"213 54 CURVE",
"224 64 OFFCURVE",
"250 90 OFFCURVE",
"250 106 CURVE SMOOTH",
"250 109 OFFCURVE",
"249 110 OFFCURVE",
"246 110 CURVE SMOOTH",
"241 110 OFFCURVE",
"170 16 OFFCURVE",
"102 16 CURVE SMOOTH",
"79 16 OFFCURVE",
"66 28 OFFCURVE",
"66 51 CURVE SMOOTH",
"66 99 OFFCURVE",
"141 229 OFFCURVE",
"179 257 CURVE SMOOTH",
"189 264 OFFCURVE",
"204 273 OFFCURVE",
"217 273 CURVE SMOOTH",
"233 273 OFFCURVE",
"234 257 OFFCURVE",
"234 244 CURVE SMOOTH",
"234 230 OFFCURVE",
"232 216 OFFCURVE",
"226 204 CURVE",
"225 203 OFFCURVE",
"224 200 OFFCURVE",
"224 199 CURVE SMOOTH",
"224 197 OFFCURVE",
"226 196 OFFCURVE",
"228 196 CURVE SMOOTH",
"255 196 OFFCURVE",
"279 234 OFFCURVE",
"279 259 CURVE SMOOTH"
);
}
);
width = 233;
}
);
note = c;
unicode = 0063;
},
{
glyphname = ccedilla;
layers = (
{
hints = (
{
horizontal = 1;
place = "{293, -20}";
target = down;
type = TopGhost;
},
{
place = "{17, 25}";
type = Stem;
},
{
place = "{46, 29}";
type = Stem;
},
{
place = "{234, 45}";
type = Stem;
}
);
layerId = "5758FC1C-8DB2-4040-8B3F-38A5D3FE42F4";
paths = (
{
closed = 1;
nodes = (
"279 280 OFFCURVE",
"263 293 OFFCURVE",
"243 293 CURVE SMOOTH",
"215 293 OFFCURVE",
"190 278 OFFCURVE",
"164 270 CURVE SMOOTH",
"86 247 OFFCURVE",
"34 134 OFFCURVE",
"13 61 CURVE SMOOTH",
"10 51 OFFCURVE",
"9 40 OFFCURVE",
"9 29 CURVE SMOOTH",
"9 -2 OFFCURVE",
"18 -8 OFFCURVE",
"48 -7 CURVE",
"29 -17 OFFCURVE",
"17 -43 OFFCURVE",
"17 -64 CURVE SMOOTH",
"17 -86 OFFCURVE",
"46 -112 OFFCURVE",
"46 -129 CURVE SMOOTH",
"46 -183 OFFCURVE",
"4 -168 OFFCURVE",
"-30 -178 CURVE SMOOTH",
"-33 -179 OFFCURVE",
"-37 -181 OFFCURVE",
"-37 -184 CURVE SMOOTH",
"-37 -187 OFFCURVE",
"-35 -191 OFFCURVE",
"-31 -191 CURVE SMOOTH",
"9 -191 OFFCURVE",
"75 -170 OFFCURVE",
"75 -120 CURVE SMOOTH",
"75 -90 OFFCURVE",
"42 -70 OFFCURVE",
"42 -49 CURVE SMOOTH",
"42 -30 OFFCURVE",
"58 -10 OFFCURVE",
"76 -7 CURVE",
"76 -5 LINE",
"126 3 OFFCURVE",
"172 23 OFFCURVE",
"213 54 CURVE",
"224 64 OFFCURVE",
"250 90 OFFCURVE",
"250 106 CURVE SMOOTH",
"250 109 OFFCURVE",
"249 110 OFFCURVE",
"246 110 CURVE SMOOTH",
"241 110 OFFCURVE",
"170 16 OFFCURVE",
"102 16 CURVE SMOOTH",
"79 16 OFFCURVE",
"66 28 OFFCURVE",
"66 51 CURVE SMOOTH",
"66 99 OFFCURVE",
"141 229 OFFCURVE",
"179 257 CURVE SMOOTH",
"189 264 OFFCURVE",
"204 273 OFFCURVE",
"217 273 CURVE SMOOTH",
"233 273 OFFCURVE",
"234 257 OFFCURVE",
"234 244 CURVE SMOOTH",
"234 230 OFFCURVE",
"232 216 OFFCURVE",
"226 204 CURVE",
"225 203 OFFCURVE",
"224 200 OFFCURVE",
"224 199 CURVE SMOOTH",
"224 197 OFFCURVE",
"226 196 OFFCURVE",
"228 196 CURVE SMOOTH",
"255 196 OFFCURVE",
"279 234 OFFCURVE",
"279 259 CURVE SMOOTH"
);
}
);
width = 224;
}
);
note = ccedilla;
unicode = 00E7;
},
{
glyphname = d;
layers = (
{
hints = (
{
horizontal = 1;
place = "{-4, 32}";
type = Stem;
},
{
horizontal = 1;
place = "{291, -20}";
target = down;
type = TopGhost;
},
{
horizontal = 1;
place = "{498, 16}";
type = Stem;
},
{
place = "{-23, 31}";
type = Stem;
},
{
place = "{123, 34}";
type = Stem;
}
);
layerId = "5758FC1C-8DB2-4040-8B3F-38A5D3FE42F4";
paths = (
{
closed = 1;
nodes = (
"341 349 OFFCURVE",
"390 427 OFFCURVE",
"442 503 CURVE SMOOTH",
"462 533 OFFCURVE",
"485 562 OFFCURVE",
"505 592 CURVE",
"506 592 OFFCURVE",
"506 594 OFFCURVE",
"506 595 CURVE SMOOTH",
"506 604 OFFCURVE",
"486 605 OFFCURVE",
"480 605 CURVE SMOOTH",
"469 605 OFFCURVE",
"445 601 OFFCURVE",
"438 593 CURVE SMOOTH",
"433 587 OFFCURVE",
"406 545 OFFCURVE",
"401 536 CURVE SMOOTH",
"399 533 OFFCURVE",
"399 531 OFFCURVE",
"399 528 CURVE SMOOTH",
"399 523 OFFCURVE",
"400 518 OFFCURVE",
"402 514 CURVE",
"352 441 OFFCURVE",
"313 359 OFFCURVE",
"272 281 CURVE",
"258 283 OFFCURVE",
"244 286 OFFCURVE",
"229 286 CURVE SMOOTH",
"209 286 OFFCURVE",
"198 279 OFFCURVE",
"180 270 CURVE",
"98 277 OFFCURVE",
"6 89 OFFCURVE",
"6 19 CURVE SMOOTH",
"6 5 OFFCURVE",
"9 -7 OFFCURVE",
"25 -7 CURVE SMOOTH",
"69 -7 OFFCURVE",
"148 73 OFFCURVE",
"175 105 CURVE SMOOTH",
"192 125 OFFCURVE",
"207 146 OFFCURVE",
"220 169 CURVE",
"207 145 OFFCURVE",
"196 85 OFFCURVE",
"196 57 CURVE SMOOTH",
"196 28 OFFCURVE",
"204 -8 OFFCURVE",
"240 -8 CURVE SMOOTH",
"260 -8 OFFCURVE",
"281 3 OFFCURVE",
"297 15 CURVE SMOOTH",
"309 24 OFFCURVE",
"346 56 OFFCURVE",
"346 74 CURVE SMOOTH",
"346 75 OFFCURVE",
"346 76 OFFCURVE",
"345 76 CURVE SMOOTH",
"340 76 OFFCURVE",
"299 22 OFFCURVE",
"265 22 CURVE SMOOTH",
"242 22 OFFCURVE",
"241 54 OFFCURVE",
"241 71 CURVE SMOOTH",
"241 112 OFFCURVE",
"255 159 OFFCURVE",
"269 197 CURVE SMOOTH",
"271 203 OFFCURVE",
"273 211 OFFCURVE",
"276 216 CURVE SMOOTH",
"286 233 OFFCURVE",
"300 246 OFFCURVE",
"300 267 CURVE"
);
},
{
closed = 1;
nodes = (
"208 175 OFFCURVE",
"154 91 OFFCURVE",
"82 39 CURVE SMOOTH",
"77 35 OFFCURVE",
"67 27 OFFCURVE",
"60 27 CURVE SMOOTH",
"56 27 OFFCURVE",
"55 31 OFFCURVE",
"55 34 CURVE SMOOTH",
"55 39 OFFCURVE",
"56 43 OFFCURVE",
"57 47 CURVE SMOOTH",
"74 102 OFFCURVE",
"117 187 OFFCURVE",
"155 228 CURVE SMOOTH",
"171 246 OFFCURVE",
"196 261 OFFCURVE",
"220 261 CURVE SMOOTH",
"229 261 OFFCURVE",
"237 259 OFFCURVE",
"244 255 CURVE"
);
}
);
width = 319;
}
);
note = d;
unicode = 0064;
},
{
glyphname = e;
layers = (
{
hints = (
{
horizontal = 1;
place = "{-7, 16}";
type = Stem;
},
{
horizontal = 1;
place = "{276, 16}";
type = Stem;
},
{
place = "{-7, 31}";
type = Stem;
}
);
layerId = "5758FC1C-8DB2-4040-8B3F-38A5D3FE42F4";
paths = (
{
closed = 1;
nodes = (
"261 169 OFFCURVE",
"228 176 OFFCURVE",
"222 177 CURVE",
"246 190 OFFCURVE",
"276 242 OFFCURVE",
"276 270 CURVE SMOOTH",
"276 287 OFFCURVE",
"265 295 OFFCURVE",
"249 295 CURVE SMOOTH",
"242 295 OFFCURVE",
"208 290 OFFCURVE",
"208 282 CURVE SMOOTH",
"208 278 OFFCURVE",
"215 277 OFFCURVE",
"218 277 CURVE SMOOTH",
"230 277 OFFCURVE",
"232 277 OFFCURVE",
"232 262 CURVE SMOOTH",
"232 235 OFFCURVE",
"217 200 OFFCURVE",
"202 179 CURVE",
"172 181 OFFCURVE",
"142 178 OFFCURVE",
"112 173 CURVE",
"126 196 OFFCURVE",
"154 240 OFFCURVE",
"176 257 CURVE SMOOTH",
"179 259 OFFCURVE",
"189 266 OFFCURVE",
"189 270 CURVE SMOOTH",
"189 273 OFFCURVE",
"184 273 OFFCURVE",
"182 273 CURVE SMOOTH",
"175 273 OFFCURVE",
"168 272 OFFCURVE",
"161 270 CURVE SMOOTH",
"119 258 OFFCURVE",
"86 220 OFFCURVE",
"64 184 CURVE SMOOTH",
"58 174 OFFCURVE",
"54 163 OFFCURVE",
"47 153 CURVE SMOOTH",
"44 149 OFFCURVE",
"38 145 OFFCURVE",
"38 139 CURVE SMOOTH",
"38 138 OFFCURVE",
"39 137 OFFCURVE",
"39 136 CURVE",
"26 108 OFFCURVE",
"6 61 OFFCURVE",
"6 29 CURVE SMOOTH",
"6 0 OFFCURVE",
"13 -7 OFFCURVE",
"42 -7 CURVE SMOOTH",
"103 -7 OFFCURVE",
"163 18 OFFCURVE",
"210 54 CURVE SMOOTH",
"222 63 OFFCURVE",
"247 90 OFFCURVE",
"247 106 CURVE SMOOTH",
"247 109 OFFCURVE",
"246 110 OFFCURVE",
"244 110 CURVE SMOOTH",
"239 110 OFFCURVE",
"167 16 OFFCURVE",
"99 16 CURVE SMOOTH",
"76 16 OFFCURVE",
"63 28 OFFCURVE",
"63 51 CURVE SMOOTH",
"63 80 OFFCURVE",
"84 123 OFFCURVE",
"98 147 CURVE",
"135 155 OFFCURVE",
"173 161 OFFCURVE",
"211 161 CURVE SMOOTH",
"223 161 OFFCURVE",
"235 158 OFFCURVE",
"247 158 CURVE SMOOTH",
"249 158 OFFCURVE",
"261 158 OFFCURVE",
"261 162 CURVE SMOOTH"
);
}
);
width = 223;
}
);
note = e;
unicode = 0065;
},
{
glyphname = eacute;
layers = (
{
hints = (
{
horizontal = 1;
place = "{-7, 20}";
type = Stem;
}
);
layerId = "5758FC1C-8DB2-4040-8B3F-38A5D3FE42F4";
paths = (
{
closed = 1;
nodes = (
"219 328 OFFCURVE",
"334 387 OFFCURVE",
"334 396 CURVE SMOOTH",
"334 402 OFFCURVE",
"327 403 OFFCURVE",
"323 403 CURVE SMOOTH",
"309 403 OFFCURVE",
"202 340 OFFCURVE",
"202 330 CURVE SMOOTH",
"202 329 OFFCURVE",
"204 328 OFFCURVE",
"205 328 CURVE SMOOTH"
);
},
{
closed = 1;
nodes = (
"261 169 OFFCURVE",
"228 176 OFFCURVE",
"222 177 CURVE",
"246 190 OFFCURVE",
"276 242 OFFCURVE",
"276 270 CURVE SMOOTH",
"276 287 OFFCURVE",
"265 295 OFFCURVE",
"249 295 CURVE SMOOTH",
"242 295 OFFCURVE",
"208 290 OFFCURVE",
"208 282 CURVE SMOOTH",
"208 278 OFFCURVE",
"215 277 OFFCURVE",
"218 277 CURVE SMOOTH",
"230 277 OFFCURVE",
"232 277 OFFCURVE",
"232 262 CURVE SMOOTH",
"232 235 OFFCURVE",
"217 200 OFFCURVE",
"202 179 CURVE",
"172 181 OFFCURVE",
"142 178 OFFCURVE",
"112 173 CURVE",
"126 196 OFFCURVE",
"154 240 OFFCURVE",
"176 257 CURVE SMOOTH",
"179 259 OFFCURVE",
"189 266 OFFCURVE",
"189 270 CURVE SMOOTH",
"189 273 OFFCURVE",
"184 273 OFFCURVE",
"182 273 CURVE SMOOTH",
"175 273 OFFCURVE",
"168 272 OFFCURVE",
"161 270 CURVE SMOOTH",
"119 258 OFFCURVE",
"86 220 OFFCURVE",
"64 184 CURVE SMOOTH",
"58 174 OFFCURVE",
"54 163 OFFCURVE",
"47 153 CURVE SMOOTH",
"44 149 OFFCURVE",
"38 145 OFFCURVE",
"38 139 CURVE SMOOTH",
"38 138 OFFCURVE",
"39 137 OFFCURVE",
"39 136 CURVE",
"26 108 OFFCURVE",
"6 61 OFFCURVE",
"6 29 CURVE SMOOTH",
"6 0 OFFCURVE",
"13 -7 OFFCURVE",
"42 -7 CURVE SMOOTH",
"103 -7 OFFCURVE",
"163 18 OFFCURVE",
"210 54 CURVE SMOOTH",
"222 63 OFFCURVE",
"247 90 OFFCURVE",
"247 106 CURVE SMOOTH",
"247 109 OFFCURVE",
"246 110 OFFCURVE",
"244 110 CURVE SMOOTH",
"239 110 OFFCURVE",
"167 16 OFFCURVE",
"99 16 CURVE SMOOTH",
"76 16 OFFCURVE",
"63 28 OFFCURVE",
"63 51 CURVE SMOOTH",
"63 80 OFFCURVE",
"84 123 OFFCURVE",
"98 147 CURVE",
"135 155 OFFCURVE",
"173 161 OFFCURVE",
"211 161 CURVE SMOOTH",
"223 161 OFFCURVE",
"235 158 OFFCURVE",
"247 158 CURVE SMOOTH",
"249 158 OFFCURVE",
"261 158 OFFCURVE",
"261 162 CURVE SMOOTH"
);
}
);
width = 243;
}
);
note = eacute;
unicode = 00E9;
},
{
glyphname = edieresis;
layers = (
{
hints = (
{
horizontal = 1;
place = "{-7, 20}";
type = Stem;
}
);
layerId = "5758FC1C-8DB2-4040-8B3F-38A5D3FE42F4";
paths = (
{
closed = 1;
nodes = (
"317 386 LINE",
"317 386 LINE",
"316 387 LINE",
"302 386 OFFCURVE",
"257 363 OFFCURVE",
"257 347 CURVE SMOOTH",
"257 343 OFFCURVE",
"259 334 OFFCURVE",
"264 334 CURVE SMOOTH",
"280 334 OFFCURVE",
"294 365 OFFCURVE",
"305 375 CURVE SMOOTH",
"309 379 OFFCURVE",
"313 382 OFFCURVE",
"317 385 CURVE"
);
},
{
closed = 1;
nodes = (
"245 386 LINE",
"244 386 LINE",
"243 387 LINE",
"229 386 OFFCURVE",
"184 363 OFFCURVE",
"184 347 CURVE SMOOTH",
"184 343 OFFCURVE",
"186 334 OFFCURVE",
"191 334 CURVE SMOOTH",
"207 334 OFFCURVE",
"222 365 OFFCURVE",
"232 375 CURVE SMOOTH",
"236 379 OFFCURVE",
"240 382 OFFCURVE",
"244 385 CURVE SMOOTH"
);
},
{
closed = 1;
nodes = (
"261 169 OFFCURVE",
"228 176 OFFCURVE",
"222 177 CURVE",
"246 190 OFFCURVE",
"276 242 OFFCURVE",
"276 270 CURVE SMOOTH",
"276 287 OFFCURVE",
"265 295 OFFCURVE",
"249 295 CURVE SMOOTH",
"242 295 OFFCURVE",
"208 290 OFFCURVE",
"208 282 CURVE SMOOTH",
"208 278 OFFCURVE",
"215 277 OFFCURVE",
"218 277 CURVE SMOOTH",
"230 277 OFFCURVE",
"232 277 OFFCURVE",
"232 262 CURVE SMOOTH",
"232 235 OFFCURVE",
"217 200 OFFCURVE",
"202 179 CURVE",
"172 181 OFFCURVE",
"142 178 OFFCURVE",
"112 173 CURVE",
"126 196 OFFCURVE",
"154 240 OFFCURVE",
"176 257 CURVE SMOOTH",
"179 259 OFFCURVE",
"189 266 OFFCURVE",
"189 270 CURVE SMOOTH",
"189 273 OFFCURVE",
"184 273 OFFCURVE",
"182 273 CURVE SMOOTH",
"175 273 OFFCURVE",
"168 272 OFFCURVE",
"161 270 CURVE SMOOTH",
"119 258 OFFCURVE",
"86 220 OFFCURVE",
"64 184 CURVE SMOOTH",
"58 174 OFFCURVE",
"54 163 OFFCURVE",
"47 153 CURVE SMOOTH",
"44 149 OFFCURVE",
"38 145 OFFCURVE",
"38 139 CURVE SMOOTH",
"38 138 OFFCURVE",
"39 137 OFFCURVE",
"39 136 CURVE",
"26 108 OFFCURVE",
"6 61 OFFCURVE",
"6 29 CURVE SMOOTH",
"6 0 OFFCURVE",
"13 -7 OFFCURVE",
"42 -7 CURVE SMOOTH",
"103 -7 OFFCURVE",
"163 18 OFFCURVE",
"210 54 CURVE SMOOTH",
"222 63 OFFCURVE",
"247 90 OFFCURVE",
"247 106 CURVE SMOOTH",
"247 109 OFFCURVE",
"246 110 OFFCURVE",
"244 110 CURVE SMOOTH",
"239 110 OFFCURVE",
"167 16 OFFCURVE",
"99 16 CURVE SMOOTH",
"76 16 OFFCURVE",
"63 28 OFFCURVE",
"63 51 CURVE SMOOTH",
"63 80 OFFCURVE",
"84 123 OFFCURVE",
"98 147 CURVE",
"135 155 OFFCURVE",
"173 161 OFFCURVE",
"211 161 CURVE SMOOTH",
"223 161 OFFCURVE",
"235 158 OFFCURVE",
"247 158 CURVE SMOOTH",
"249 158 OFFCURVE",
"261 158 OFFCURVE",
"261 162 CURVE SMOOTH"
);
}
);
width = 243;
}
);
note = edieresis;
unicode = 00EB;
},
{
glyphname = egrave;
layers = (
{
hints = (
{
horizontal = 1;
place = "{-7, 20}";
type = Stem;
}
);
layerId = "5758FC1C-8DB2-4040-8B3F-38A5D3FE42F4";
paths = (
{
closed = 1;
nodes = (
"243 354 OFFCURVE",
"246 357 OFFCURVE",
"246 360 CURVE SMOOTH",
"246 373 OFFCURVE",
"184 434 OFFCURVE",
"171 434 CURVE SMOOTH",
"165 434 OFFCURVE",
"153 430 OFFCURVE",
"153 423 CURVE SMOOTH",
"153 414 OFFCURVE",
"229 354 OFFCURVE",
"240 354 CURVE SMOOTH"
);
},
{
closed = 1;
nodes = (
"261 169 OFFCURVE",
"228 176 OFFCURVE",
"222 177 CURVE",
"246 190 OFFCURVE",
"276 242 OFFCURVE",
"276 270 CURVE SMOOTH",
"276 287 OFFCURVE",
"265 295 OFFCURVE",
"249 295 CURVE SMOOTH",
"242 295 OFFCURVE",
"208 290 OFFCURVE",
"208 282 CURVE SMOOTH",
"208 278 OFFCURVE",
"215 277 OFFCURVE",
"218 277 CURVE SMOOTH",
"230 277 OFFCURVE",
"232 277 OFFCURVE",
"232 262 CURVE SMOOTH",
"232 235 OFFCURVE",
"217 200 OFFCURVE",
"202 179 CURVE",
"172 181 OFFCURVE",
"142 178 OFFCURVE",
"112 173 CURVE",
"126 196 OFFCURVE",
"154 240 OFFCURVE",
"176 257 CURVE SMOOTH",
"179 259 OFFCURVE",
"189 266 OFFCURVE",
"189 270 CURVE SMOOTH",
"189 273 OFFCURVE",
"184 273 OFFCURVE",
"182 273 CURVE SMOOTH",
"175 273 OFFCURVE",
"168 272 OFFCURVE",
"161 270 CURVE SMOOTH",
"119 258 OFFCURVE",
"86 220 OFFCURVE",
"64 184 CURVE SMOOTH",
"58 174 OFFCURVE",
"54 163 OFFCURVE",
"47 153 CURVE SMOOTH",
"44 149 OFFCURVE",
"38 145 OFFCURVE",
"38 139 CURVE SMOOTH",
"38 138 OFFCURVE",
"39 137 OFFCURVE",
"39 136 CURVE",
"26 108 OFFCURVE",
"6 61 OFFCURVE",
"6 29 CURVE SMOOTH",
"6 0 OFFCURVE",
"13 -7 OFFCURVE",
"42 -7 CURVE SMOOTH",
"103 -7 OFFCURVE",
"163 18 OFFCURVE",
"210 54 CURVE SMOOTH",
"222 63 OFFCURVE",
"247 90 OFFCURVE",
"247 106 CURVE SMOOTH",
"247 109 OFFCURVE",
"246 110 OFFCURVE",
"244 110 CURVE SMOOTH",
"239 110 OFFCURVE",
"167 16 OFFCURVE",
"99 16 CURVE SMOOTH",
"76 16 OFFCURVE",
"63 28 OFFCURVE",
"63 51 CURVE SMOOTH",
"63 80 OFFCURVE",
"84 123 OFFCURVE",
"98 147 CURVE",
"135 155 OFFCURVE",
"173 161 OFFCURVE",
"211 161 CURVE SMOOTH",
"223 161 OFFCURVE",
"235 158 OFFCURVE",
"247 158 CURVE SMOOTH",
"249 158 OFFCURVE",
"261 158 OFFCURVE",
"261 162 CURVE SMOOTH"
);
}
);
width = 243;
}
);
note = egrave;
unicode = 00E8;
},
{
glyphname = schwa;
lastChange = "2021-05-05 19:58:37 +0000";
layers = (
{
layerId = "5758FC1C-8DB2-4040-8B3F-38A5D3FE42F4";
paths = (
{
closed = 1;
nodes = (
"148 340 OFFCURVE",
"19 233 OFFCURVE",
"18 167 CURVE SMOOTH",
"18 162 OFFCURVE",
"24 158 OFFCURVE",
"25 161 CURVE SMOOTH",
"62 288 OFFCURVE",
"300 393 OFFCURVE",
"336 289 CURVE SMOOTH",
"353 243 OFFCURVE",
"342 176 OFFCURVE",
"333 144 CURVE",
"245 144 OFFCURVE",
"159 128 OFFCURVE",
"103 89 CURVE SMOOTH",
"-1 18 OFFCURVE",
"20 -97 OFFCURVE",
"141 -73 CURVE SMOOTH",
"307 -40 OFFCURVE",
"399 116 OFFCURVE",
"395 246 CURVE SMOOTH",
"391 337 OFFCURVE",
"356 359 OFFCURVE",
"247 349 CURVE SMOOTH"
);
},
{
closed = 1;
nodes = (
"20 -134 OFFCURVE",
"-2 118 OFFCURVE",
"324 128 CURVE",
"293 42 OFFCURVE",
"241 3 OFFCURVE",
"210 -20 CURVE SMOOTH"
);
}
);
width = 415;
}
);
unicode = 0259;
},
{
glyphname = f;
layers = (
{
hints = (
{
horizontal = 1;
place = "{413, 95}";
type = Stem;
},
{
place = "{-326, 32}";
type = Stem;
},
{
place = "{-132, 31}";
type = Stem;
}
);
layerId = "5758FC1C-8DB2-4040-8B3F-38A5D3FE42F4";
paths = (
{
closed = 1;
nodes = (
"176 291 OFFCURVE",
"239 395 OFFCURVE",
"306 495 CURVE SMOOTH",
"329 528 OFFCURVE",
"352 559 OFFCURVE",
"375 592 CURVE",
"376 592 OFFCURVE",
"376 594 OFFCURVE",
"376 595 CURVE SMOOTH",
"376 604 OFFCURVE",
"356 605 OFFCURVE",
"350 605 CURVE SMOOTH",
"339 605 OFFCURVE",
"315 601 OFFCURVE",
"307 593 CURVE SMOOTH",
"303 588 OFFCURVE",
"275 544 OFFCURVE",
"270 536 CURVE",
"269 533 OFFCURVE",
"269 531 OFFCURVE",
"269 528 CURVE SMOOTH",
"269 523 OFFCURVE",
"270 518 OFFCURVE",
"271 514 CURVE",
"199 408 OFFCURVE",
"137 295 OFFCURVE",
"80 180 CURVE",
"73 179 LINE",
"69 185 OFFCURVE",
"64 193 OFFCURVE",
"56 193 CURVE SMOOTH",
"53 193 OFFCURVE",
"48 191 OFFCURVE",
"48 187 CURVE SMOOTH",
"48 184 OFFCURVE",
"53 178 OFFCURVE",
"54 175 CURVE",
"44 167 OFFCURVE",
"35 149 OFFCURVE",
"35 137 CURVE SMOOTH",
"35 134 OFFCURVE",
"35 130 OFFCURVE",
"38 128 CURVE",
"57 133 LINE",
"16 47 OFFCURVE",
"-74 -147 OFFCURVE",
"-74 -241 CURVE SMOOTH",
"-74 -289 OFFCURVE",
"-54 -326 OFFCURVE",
"-2 -326 CURVE SMOOTH",
"64 -326 OFFCURVE",
"155 -265 OFFCURVE",
"175 -201 CURVE SMOOTH",
"182 -179 OFFCURVE",
"184 -155 OFFCURVE",
"184 -132 CURVE SMOOTH",
"184 -43 OFFCURVE",
"144 63 OFFCURVE",
"99 140 CURVE",
"100 143 LINE",
"144 152 OFFCURVE",
"190 160 OFFCURVE",
"235 160 CURVE SMOOTH",
"245 160 OFFCURVE",
"254 158 OFFCURVE",
"264 158 CURVE SMOOTH",
"266 158 OFFCURVE",
"279 158 OFFCURVE",
"279 162 CURVE SMOOTH",
"279 165 OFFCURVE",
"271 168 OFFCURVE",
"270 169 CURVE",
"239 182 OFFCURVE",
"190 184 OFFCURVE",
"157 184 CURVE SMOOTH",
"145 184 OFFCURVE",
"133 184 OFFCURVE",
"121 183 CURVE"
);
},
{
closed = 1;
nodes = (
"148 -154 OFFCURVE",
"144 -181 OFFCURVE",
"133 -204 CURVE SMOOTH",
"116 -240 OFFCURVE",
"63 -305 OFFCURVE",
"19 -305 CURVE SMOOTH",
"-16 -305 OFFCURVE",
"-21 -260 OFFCURVE",
"-21 -235 CURVE SMOOTH",
"-21 -126 OFFCURVE",
"39 15 OFFCURVE",
"86 112 CURVE",
"117 42 OFFCURVE",
"148 -51 OFFCURVE",
"148 -128 CURVE SMOOTH"
);
}
);
width = 247;
}
);
note = f;
unicode = 0066;
},
{
glyphname = g;
layers = (
{
hints = (
{
horizontal = 1;
place = "{-5, 33}";
type = Stem;
},
{
horizontal = 1;
place = "{282, 16}";
type = Stem;
},
{
place = "{-34, 15}";
type = Stem;
},
{
place = "{20, 35}";
type = Stem;
}
);
layerId = "5758FC1C-8DB2-4040-8B3F-38A5D3FE42F4";
paths = (
{
closed = 1;
nodes = (
"317 291 LINE",
"317 291 OFFCURVE",
"318 292 OFFCURVE",
"318 293 CURVE SMOOTH",
"318 300 OFFCURVE",
"308 301 OFFCURVE",
"304 301 CURVE SMOOTH",
"290 301 OFFCURVE",
"274 295 OFFCURVE",
"264 286 CURVE",
"263 283 LINE",
"252 284 OFFCURVE",
"241 286 OFFCURVE",
"230 286 CURVE SMOOTH",
"213 286 OFFCURVE",
"196 278 OFFCURVE",
"180 270 CURVE",
"99 277 OFFCURVE",
"6 89 OFFCURVE",
"6 19 CURVE SMOOTH",
"6 6 OFFCURVE",
"9 -7 OFFCURVE",
"25 -7 CURVE SMOOTH",
"82 -7 OFFCURVE",
"182 111 OFFCURVE",
"209 156 CURVE",
"202 129 OFFCURVE",
"192 102 OFFCURVE",
"182 76 CURVE SMOOTH",
"169 38 OFFCURVE",
"154 1 OFFCURVE",
"140 -36 CURVE",
"60 -41 OFFCURVE",
"-35 -56 OFFCURVE",
"-109 -87 CURVE SMOOTH",
"-169 -112 OFFCURVE",
"-271 -166 OFFCURVE",
"-271 -242 CURVE SMOOTH",
"-271 -306 OFFCURVE",
"-200 -334 OFFCURVE",
"-146 -334 CURVE SMOOTH",
"10 -334 OFFCURVE",
"121 -177 OFFCURVE",
"174 -48 CURVE",
"177 -48 LINE SMOOTH",
"179 -48 OFFCURVE",
"230 -51 OFFCURVE",
"230 -44 CURVE SMOOTH",
"230 -38 OFFCURVE",
"210 -34 OFFCURVE",
"206 -34 CURVE SMOOTH",
"197 -34 OFFCURVE",
"188 -34 OFFCURVE",
"179 -35 CURVE",
"206 33 OFFCURVE",
"232 101 OFFCURVE",
"259 168 CURVE SMOOTH",
"273 202 OFFCURVE",
"286 239 OFFCURVE",
"305 270 CURVE SMOOTH"
);
},
{
closed = 1;
nodes = (
"199 173 OFFCURVE",
"163 96 OFFCURVE",
"83 39 CURVE SMOOTH",
"77 35 OFFCURVE",
"67 27 OFFCURVE",
"60 27 CURVE SMOOTH",
"56 27 OFFCURVE",
"55 31 OFFCURVE",
"55 34 CURVE SMOOTH",
"55 39 OFFCURVE",
"56 43 OFFCURVE",
"58 47 CURVE",
"74 101 OFFCURVE",
"118 188 OFFCURVE",
"156 228 CURVE SMOOTH",
"172 246 OFFCURVE",
"199 262 OFFCURVE",
"223 262 CURVE SMOOTH",
"230 262 OFFCURVE",
"237 260 OFFCURVE",
"243 258 CURVE"
);
},
{
closed = 1;
nodes = (
"86 -151 OFFCURVE",
"-20 -313 OFFCURVE",
"-150 -313 CURVE SMOOTH",
"-190 -313 OFFCURVE",
"-231 -292 OFFCURVE",
"-231 -247 CURVE SMOOTH",
"-231 -183 OFFCURVE",
"-150 -131 OFFCURVE",
"-101 -106 CURVE SMOOTH",
"-33 -71 OFFCURVE",
"58 -54 OFFCURVE",
"134 -49 CURVE"
);
}
);
width = 258;
}
);
note = g;
unicode = 0067;
},
{
glyphname = h;
layers = (
{
hints = (
{
horizontal = 1;
place = "{-22, 16}";
type = Stem;
},
{
horizontal = 1;
place = "{490, 16}";
type = Stem;
},
{
place = "{125, 35}";
type = Stem;
}
);
layerId = "5758FC1C-8DB2-4040-8B3F-38A5D3FE42F4";
paths = (
{
closed = 1;
nodes = (
"282 0 OFFCURVE",
"327 38 OFFCURVE",
"348 71 CURVE SMOOTH",
"350 74 OFFCURVE",
"354 80 OFFCURVE",
"354 84 CURVE SMOOTH",
"354 85 OFFCURVE",
"354 87 OFFCURVE",
"352 87 CURVE SMOOTH",
"344 87 OFFCURVE",
"294 26 OFFCURVE",
"257 26 CURVE SMOOTH",
"237 26 OFFCURVE",
"236 54 OFFCURVE",
"236 68 CURVE SMOOTH",
"236 120 OFFCURVE",
"250 152 OFFCURVE",
"263 199 CURVE",
"275 206 OFFCURVE",
"285 242 OFFCURVE",
"285 256 CURVE SMOOTH",
"285 261 OFFCURVE",
"285 272 OFFCURVE",
"278 272 CURVE SMOOTH",
"276 272 OFFCURVE",
"274 272 OFFCURVE",
"273 271 CURVE",
"272 271 OFFCURVE",
"272 271 OFFCURVE",
"272 271 CURVE",
"272 272 OFFCURVE",
"274 272 OFFCURVE",
"272 272 CURVE SMOOTH",
"265 272 OFFCURVE",
"253 263 OFFCURVE",
"247 259 CURVE",
"244 258 OFFCURVE",
"240 257 OFFCURVE",
"238 255 CURVE SMOOTH",
"179 197 OFFCURVE",
"129 130 OFFCURVE",
"69 73 CURVE",
"123 224 OFFCURVE",
"196 368 OFFCURVE",
"285 501 CURVE SMOOTH",
"306 532 OFFCURVE",
"328 562 OFFCURVE",
"349 592 CURVE",
"350 592 OFFCURVE",
"350 594 OFFCURVE",
"350 595 CURVE SMOOTH",
"350 604 OFFCURVE",
"329 605 OFFCURVE",
"324 605 CURVE SMOOTH",
"313 605 OFFCURVE",
"289 601 OFFCURVE",
"281 593 CURVE",
"277 587 OFFCURVE",
"250 545 OFFCURVE",
"244 536 CURVE",
"243 533 OFFCURVE",
"243 531 OFFCURVE",
"243 528 CURVE SMOOTH",
"243 523 OFFCURVE",
"244 518 OFFCURVE",
"245 514 CURVE",
"143 363 OFFCURVE",
"83 188 OFFCURVE",
"10 22 CURVE SMOOTH",
"7 16 OFFCURVE",
"-7 -14 OFFCURVE",
"-7 -21 CURVE",
"-7 -21 OFFCURVE",
"-7 -22 OFFCURVE",
"-6 -22 CURVE SMOOTH",
"3 -22 OFFCURVE",
"49 -2 OFFCURVE",
"54 5 CURVE SMOOTH",
"59 13 OFFCURVE",
"57 22 OFFCURVE",
"59 30 CURVE SMOOTH",
"62 42 OFFCURVE",
"208 199 OFFCURVE",
"227 219 CURVE",
"210 174 OFFCURVE",
"191 115 OFFCURVE",
"191 66 CURVE SMOOTH",
"191 32 OFFCURVE",
"201 0 OFFCURVE",
"241 0 CURVE SMOOTH"
);
}
);
width = 307;
}
);
note = h;
unicode = 0068;
},
{
glyphname = i;
lastChange = "2020-01-05 07:37:05 +0000";
layers = (
{
components = (
{
name = idotless;
}
);
hints = (
{
horizontal = 1;
place = "{-6, 16}";
type = Stem;
},
{
place = "{-28, 31}";
type = Stem;
},
{
place = "{10, 43}";
type = Stem;
}
);
layerId = "5758FC1C-8DB2-4040-8B3F-38A5D3FE42F4";
paths = (
{
closed = 1;
nodes = (
"200 378 OFFCURVE",
"198 378 OFFCURVE",
"196 377 CURVE SMOOTH",
"177 371 OFFCURVE",
"159 368 OFFCURVE",
"140 365 CURVE SMOOTH",
"133 364 OFFCURVE",
"133 345 OFFCURVE",
"133 341 CURVE SMOOTH",
"133 338 OFFCURVE",
"133 324 OFFCURVE",
"137 324 CURVE SMOOTH",
"157 324 OFFCURVE",
"207 351 OFFCURVE",
"207 373 CURVE SMOOTH",
"207 377 OFFCURVE",
"205 378 OFFCURVE",
"202 378 CURVE SMOOTH"
);
}
);
width = 142;
}
);
note = i;
unicode = 0069;
},
{
glyphname = idotless;
lastChange = "2020-01-05 07:37:05 +0000";
layers = (
{
layerId = "5758FC1C-8DB2-4040-8B3F-38A5D3FE42F4";
paths = (
{
closed = 1;
nodes = (
"98 0 OFFCURVE",
"149 39 OFFCURVE",
"174 71 CURVE SMOOTH",
"177 74 OFFCURVE",
"182 81 OFFCURVE",
"182 86 CURVE",
"182 86 OFFCURVE",
"182 87 OFFCURVE",
"181 87 CURVE SMOOTH",
"172 87 OFFCURVE",
"113 26 OFFCURVE",
"76 26 CURVE SMOOTH",
"57 26 OFFCURVE",
"46 35 OFFCURVE",
"46 54 CURVE SMOOTH",
"46 102 OFFCURVE",
"90 157 OFFCURVE",
"108 200 CURVE",
"122 206 OFFCURVE",
"141 248 OFFCURVE",
"141 263 CURVE SMOOTH",
"141 267 OFFCURVE",
"140 273 OFFCURVE",
"135 273 CURVE SMOOTH",
"133 273 OFFCURVE",
"131 272 OFFCURVE",
"130 271 CURVE",
"130 272 OFFCURVE",
"129 272 OFFCURVE",
"129 272 CURVE",
"129 272 OFFCURVE",
"131 273 OFFCURVE",
"130 273 CURVE SMOOTH",
"119 273 OFFCURVE",
"95 265 OFFCURVE",
"89 256 CURVE SMOOTH",
"82 244 OFFCURVE",
"76 231 OFFCURVE",
"70 219 CURVE SMOOTH",
"55 191 OFFCURVE",
"40 163 OFFCURVE",
"28 134 CURVE SMOOTH",
"17 109 OFFCURVE",
"7 78 OFFCURVE",
"7 50 CURVE SMOOTH",
"7 18 OFFCURVE",
"23 0 OFFCURVE",
"56 0 CURVE SMOOTH"
);
}
);
width = 142;
}
);
unicode = 0131;
},
{
glyphname = iacute;
layers = (
{
hints = (
{
horizontal = 1;
place = "{0, 26}";
type = Stem;
},
{
place = "{7, 39}";
type = Stem;
}
);
layerId = "5758FC1C-8DB2-4040-8B3F-38A5D3FE42F4";
paths = (
{
closed = 1;
nodes = (
"153 320 OFFCURVE",
"268 379 OFFCURVE",
"268 388 CURVE SMOOTH",
"268 393 OFFCURVE",
"262 395 OFFCURVE",
"258 395 CURVE SMOOTH",
"243 395 OFFCURVE",
"137 332 OFFCURVE",
"137 322 CURVE SMOOTH",
"137 321 OFFCURVE",
"138 320 OFFCURVE",
"139 320 CURVE SMOOTH"
);
},
{
closed = 1;
nodes = (
"98 0 OFFCURVE",
"149 39 OFFCURVE",
"174 71 CURVE SMOOTH",
"177 74 OFFCURVE",
"182 81 OFFCURVE",
"182 86 CURVE",
"182 86 OFFCURVE",
"182 87 OFFCURVE",
"181 87 CURVE SMOOTH",
"173 87 OFFCURVE",
"113 26 OFFCURVE",
"76 26 CURVE SMOOTH",
"57 26 OFFCURVE",
"46 35 OFFCURVE",
"46 54 CURVE SMOOTH",
"46 102 OFFCURVE",
"90 157 OFFCURVE",
"108 200 CURVE",
"123 206 OFFCURVE",
"141 248 OFFCURVE",
"141 263 CURVE SMOOTH",
"141 267 OFFCURVE",
"140 273 OFFCURVE",
"135 273 CURVE SMOOTH",
"133 273 OFFCURVE",
"131 272 OFFCURVE",
"130 271 CURVE",
"130 272 OFFCURVE",
"129 272 OFFCURVE",
"129 272 CURVE",
"129 272 OFFCURVE",
"131 273 OFFCURVE",
"130 273 CURVE SMOOTH",
"119 273 OFFCURVE",
"95 265 OFFCURVE",
"89 256 CURVE SMOOTH",
"82 244 OFFCURVE",
"76 231 OFFCURVE",
"70 219 CURVE SMOOTH",
"55 191 OFFCURVE",
"40 163 OFFCURVE",
"28 134 CURVE SMOOTH",
"17 109 OFFCURVE",
"7 78 OFFCURVE",
"7 50 CURVE SMOOTH",
"7 18 OFFCURVE",
"23 0 OFFCURVE",
"56 0 CURVE SMOOTH"
);
}
);
width = 143;
}
);
note = iacute;
unicode = 00ED;
},
{
glyphname = icircumflex;
layers = (
{
hints = (
{
horizontal = 1;
place = "{0, 26}";
type = Stem;
},
{
place = "{7, 39}";
type = Stem;
}
);
layerId = "5758FC1C-8DB2-4040-8B3F-38A5D3FE42F4";
paths = (
{
closed = 1;
nodes = (
"239 326 LINE",
"238 333 LINE",
"216 354 OFFCURVE",
"195 377 OFFCURVE",
"181 404 CURVE",
"177 405 LINE",
"161 402 OFFCURVE",
"71 344 OFFCURVE",
"61 331 CURVE",
"64 324 LINE",
"81 329 OFFCURVE",
"140 368 OFFCURVE",
"159 379 CURVE",
"169 362 OFFCURVE",
"214 323 OFFCURVE",
"234 322 CURVE"
);
},
{
closed = 1;
nodes = (
"98 0 OFFCURVE",
"149 39 OFFCURVE",
"174 71 CURVE SMOOTH",
"177 74 OFFCURVE",
"182 81 OFFCURVE",
"182 86 CURVE",
"182 86 OFFCURVE",
"182 87 OFFCURVE",
"181 87 CURVE SMOOTH",
"173 87 OFFCURVE",
"113 26 OFFCURVE",
"76 26 CURVE SMOOTH",
"57 26 OFFCURVE",
"46 35 OFFCURVE",
"46 54 CURVE SMOOTH",
"46 102 OFFCURVE",
"90 157 OFFCURVE",
"108 200 CURVE",
"123 206 OFFCURVE",
"141 248 OFFCURVE",
"141 263 CURVE SMOOTH",
"141 267 OFFCURVE",
"140 273 OFFCURVE",
"135 273 CURVE SMOOTH",
"133 273 OFFCURVE",
"131 272 OFFCURVE",
"130 271 CURVE",
"130 272 OFFCURVE",
"129 272 OFFCURVE",
"129 272 CURVE",
"129 272 OFFCURVE",
"131 273 OFFCURVE",
"130 273 CURVE SMOOTH",
"119 273 OFFCURVE",
"95 265 OFFCURVE",
"89 256 CURVE SMOOTH",
"82 244 OFFCURVE",
"76 231 OFFCURVE",
"70 219 CURVE SMOOTH",
"55 191 OFFCURVE",
"40 163 OFFCURVE",
"28 134 CURVE SMOOTH",
"17 109 OFFCURVE",
"7 78 OFFCURVE",
"7 50 CURVE SMOOTH",
"7 18 OFFCURVE",
"23 0 OFFCURVE",
"56 0 CURVE SMOOTH"
);
}
);
width = 143;
}
);
note = icircumflex;
unicode = 00EE;
},
{
glyphname = idieresis;
layers = (
{
hints = (
{
horizontal = 1;
place = "{0, 26}";
type = Stem;
},
{
place = "{7, 39}";
type = Stem;
}
);
layerId = "5758FC1C-8DB2-4040-8B3F-38A5D3FE42F4";
paths = (
{
closed = 1;
nodes = (
"244 392 LINE",
"244 392 LINE",
"242 393 LINE",
"228 392 OFFCURVE",
"184 369 OFFCURVE",
"184 353 CURVE SMOOTH",
"184 349 OFFCURVE",
"185 340 OFFCURVE",
"191 340 CURVE SMOOTH",
"206 340 OFFCURVE",
"221 371 OFFCURVE",
"232 381 CURVE",
"235 385 OFFCURVE",
"240 388 OFFCURVE",
"244 391 CURVE"
);
},
{
closed = 1;
nodes = (
"171 392 LINE",
"171 392 LINE",
"169 393 LINE",
"156 392 OFFCURVE",
"111 369 OFFCURVE",
"111 353 CURVE SMOOTH",
"111 349 OFFCURVE",
"112 340 OFFCURVE",
"118 340 CURVE SMOOTH",
"133 340 OFFCURVE",
"148 371 OFFCURVE",
"159 381 CURVE SMOOTH",
"163 385 OFFCURVE",
"167 388 OFFCURVE",
"171 391 CURVE"
);
},
{
closed = 1;
nodes = (
"98 0 OFFCURVE",
"149 39 OFFCURVE",
"174 71 CURVE SMOOTH",
"177 74 OFFCURVE",
"182 81 OFFCURVE",
"182 86 CURVE",
"182 86 OFFCURVE",
"182 87 OFFCURVE",
"181 87 CURVE SMOOTH",
"173 87 OFFCURVE",
"113 26 OFFCURVE",
"76 26 CURVE SMOOTH",
"57 26 OFFCURVE",
"46 35 OFFCURVE",
"46 54 CURVE SMOOTH",
"46 102 OFFCURVE",
"90 157 OFFCURVE",
"108 200 CURVE",
"123 206 OFFCURVE",
"141 248 OFFCURVE",
"141 263 CURVE SMOOTH",
"141 267 OFFCURVE",
"140 273 OFFCURVE",
"135 273 CURVE SMOOTH",
"133 273 OFFCURVE",
"131 272 OFFCURVE",
"130 271 CURVE",
"130 272 OFFCURVE",
"129 272 OFFCURVE",
"129 272 CURVE",
"129 272 OFFCURVE",
"131 273 OFFCURVE",
"130 273 CURVE SMOOTH",
"119 273 OFFCURVE",
"95 265 OFFCURVE",
"89 256 CURVE SMOOTH",
"82 244 OFFCURVE",
"76 231 OFFCURVE",
"70 219 CURVE SMOOTH",
"55 191 OFFCURVE",
"40 163 OFFCURVE",
"28 134 CURVE SMOOTH",
"17 109 OFFCURVE",
"7 78 OFFCURVE",
"7 50 CURVE SMOOTH",
"7 18 OFFCURVE",
"23 0 OFFCURVE",
"56 0 CURVE SMOOTH"
);
}
);
width = 143;
}
);
note = idieresis;
unicode = 00EF;
},
{
glyphname = igrave;
layers = (
{
hints = (
{
horizontal = 1;
place = "{0, 26}";
type = Stem;
},
{
place = "{7, 39}";
type = Stem;
}
);
layerId = "5758FC1C-8DB2-4040-8B3F-38A5D3FE42F4";
paths = (
{
closed = 1;
nodes = (
"164 326 OFFCURVE",
"167 329 OFFCURVE",
"167 332 CURVE SMOOTH",
"167 345 OFFCURVE",
"105 406 OFFCURVE",
"92 406 CURVE SMOOTH",
"86 406 OFFCURVE",
"74 402 OFFCURVE",
"74 395 CURVE SMOOTH",
"74 385 OFFCURVE",
"150 326 OFFCURVE",
"161 326 CURVE SMOOTH"
);
},
{
closed = 1;
nodes = (
"98 0 OFFCURVE",
"149 39 OFFCURVE",
"174 71 CURVE SMOOTH",
"177 74 OFFCURVE",
"182 81 OFFCURVE",
"182 86 CURVE",
"182 86 OFFCURVE",
"182 87 OFFCURVE",
"181 87 CURVE SMOOTH",
"173 87 OFFCURVE",
"113 26 OFFCURVE",
"76 26 CURVE SMOOTH",
"57 26 OFFCURVE",
"46 35 OFFCURVE",
"46 54 CURVE SMOOTH",
"46 102 OFFCURVE",
"90 157 OFFCURVE",
"108 200 CURVE",
"123 206 OFFCURVE",
"141 248 OFFCURVE",
"141 263 CURVE SMOOTH",
"141 267 OFFCURVE",
"140 273 OFFCURVE",
"135 273 CURVE SMOOTH",
"133 273 OFFCURVE",
"131 272 OFFCURVE",
"130 271 CURVE",
"130 272 OFFCURVE",
"129 272 OFFCURVE",
"129 272 CURVE",
"129 272 OFFCURVE",
"131 273 OFFCURVE",
"130 273 CURVE SMOOTH",
"119 273 OFFCURVE",
"95 265 OFFCURVE",
"89 256 CURVE SMOOTH",
"82 244 OFFCURVE",
"76 231 OFFCURVE",
"70 219 CURVE SMOOTH",
"55 191 OFFCURVE",
"40 163 OFFCURVE",
"28 134 CURVE SMOOTH",
"17 109 OFFCURVE",
"7 78 OFFCURVE",
"7 50 CURVE SMOOTH",
"7 18 OFFCURVE",
"23 0 OFFCURVE",
"56 0 CURVE SMOOTH"
);
}
);
width = 143;
}
);
note = igrave;
unicode = 00EC;
},
{
glyphname = j;
lastChange = "2020-01-05 07:36:47 +0000";
layers = (
{
components = (
{
name = jdotless;
}
);
hints = (
{
place = "{-748, 16}";
type = Stem;
},
{
place = "{-491, 67}";
type = Stem;
}
);
layerId = "5758FC1C-8DB2-4040-8B3F-38A5D3FE42F4";
paths = (
{
closed = 1;
nodes = (
"230 389 OFFCURVE",
"228 388 OFFCURVE",
"226 388 CURVE",
"207 382 OFFCURVE",
"189 379 OFFCURVE",
"170 375 CURVE SMOOTH",
"164 374 OFFCURVE",
"163 356 OFFCURVE",
"163 351 CURVE SMOOTH",
"163 348 OFFCURVE",
"163 335 OFFCURVE",
"168 335 CURVE SMOOTH",
"187 335 OFFCURVE",
"237 363 OFFCURVE",
"237 384 CURVE SMOOTH",
"237 387 OFFCURVE",
"235 389 OFFCURVE",
"232 389 CURVE SMOOTH"
);
}
);
width = 151;
}
);
note = j;
unicode = 006A;
},
{
color = 3;
glyphname = jdotless;
lastChange = "2021-05-05 19:46:58 +0000";
layers = (
{
layerId = "5758FC1C-8DB2-4040-8B3F-38A5D3FE42F4";
paths = (
{
closed = 1;
nodes = (
"182 262 OFFCURVE",
"182 263 OFFCURVE",
"182 264 CURVE SMOOTH",
"182 270 OFFCURVE",
"172 271 OFFCURVE",
"168 271 CURVE SMOOTH",
"155 271 OFFCURVE",
"137 266 OFFCURVE",
"128 256 CURVE SMOOTH",
"112 239 OFFCURVE",
"119 234 OFFCURVE",
"114 215 CURVE SMOOTH",
"103 175 OFFCURVE",
"85 135 OFFCURVE",
"70 96 CURVE SMOOTH",
"53 52 OFFCURVE",
"37 6 OFFCURVE",
"15 -36 CURVE",
"-65 -41 OFFCURVE",
"-151 -55 OFFCURVE",
"-226 -87 CURVE SMOOTH",
"-282 -110 OFFCURVE",
"-388 -164 OFFCURVE",
"-388 -237 CURVE SMOOTH",
"-388 -306 OFFCURVE",
"-302 -334 OFFCURVE",
"-246 -334 CURVE SMOOTH",
"-143 -334 OFFCURVE",
"-62 -270 OFFCURVE",
"-13 -183 CURVE SMOOTH",
"11 -139 OFFCURVE",
"30 -94 OFFCURVE",
"49 -48 CURVE",
"52 -48 LINE SMOOTH",
"55 -48 OFFCURVE",
"106 -51 OFFCURVE",
"106 -44 CURVE SMOOTH",
"106 -38 OFFCURVE",
"86 -34 OFFCURVE",
"82 -34 CURVE SMOOTH",
"73 -34 OFFCURVE",
"64 -34 OFFCURVE",
"55 -35 CURVE",
"78 24 OFFCURVE",
"102 83 OFFCURVE",
"126 142 CURVE SMOOTH",
"140 174 OFFCURVE",
"153 209 OFFCURVE",
"169 241 CURVE SMOOTH",
"173 248 OFFCURVE",
"177 254 OFFCURVE",
"182 261 CURVE"
);
},
{
closed = 1;
nodes = (
"-8 -84 OFFCURVE",
"-24 -119 OFFCURVE",
"-43 -153 CURVE SMOOTH",
"-86 -230 OFFCURVE",
"-161 -314 OFFCURVE",
"-257 -314 CURVE SMOOTH",
"-299 -314 OFFCURVE",
"-347 -292 OFFCURVE",
"-347 -244 CURVE SMOOTH",
"-347 -181 OFFCURVE",
"-265 -130 OFFCURVE",
"-217 -106 CURVE SMOOTH",
"-149 -71 OFFCURVE",
"-67 -54 OFFCURVE",
"9 -49 CURVE"
);
}
);
width = 151;
}
);
unicode = 0237;
},
{
glyphname = k;
layers = (
{
hints = (
{
horizontal = 1;
place = "{-33, 16}";
type = Stem;
},
{
horizontal = 1;
place = "{480, 16}";
type = Stem;
},
{
place = "{83, 43}";
type = Stem;
}
);
layerId = "5758FC1C-8DB2-4040-8B3F-38A5D3FE42F4";
paths = (
{
closed = 1;
nodes = (
"126 159 LINE SMOOTH",
"125 191 OFFCURVE",
"162 254 OFFCURVE",
"177 283 CURVE SMOOTH",
"223 367 OFFCURVE",
"271 451 OFFCURVE",
"324 531 CURVE SMOOTH",
"338 551 OFFCURVE",
"353 571 OFFCURVE",
"367 592 CURVE",
"367 592 OFFCURVE",
"368 594 OFFCURVE",
"368 595 CURVE SMOOTH",
"368 604 OFFCURVE",
"347 605 OFFCURVE",
"342 605 CURVE SMOOTH",
"331 605 OFFCURVE",
"307 601 OFFCURVE",
"299 593 CURVE",
"295 587 OFFCURVE",
"267 544 OFFCURVE",
"262 536 CURVE",
"261 533 OFFCURVE",
"260 531 OFFCURVE",
"260 528 CURVE SMOOTH",
"260 523 OFFCURVE",
"261 518 OFFCURVE",
"263 514 CURVE",
"203 421 OFFCURVE",
"154 319 OFFCURVE",
"109 217 CURVE",
"97 214 OFFCURVE",
"78 208 OFFCURVE",
"78 191 CURVE SMOOTH",
"78 184 OFFCURVE",
"83 168 OFFCURVE",
"84 160 CURVE",
"59 115 OFFCURVE",
"37 68 OFFCURVE",
"13 21 CURVE SMOOTH",
"7 11 OFFCURVE",
"0 1 OFFCURVE",
"-7 -10 CURVE",
"-7 -14 OFFCURVE",
"-4 -15 OFFCURVE",
"-1 -15 CURVE SMOOTH",
"26 -15 OFFCURVE",
"60 17 OFFCURVE",
"60 44 CURVE SMOOTH",
"60 46 OFFCURVE",
"59 48 OFFCURVE",
"59 50 CURVE",
"73 73 OFFCURVE",
"89 96 OFFCURVE",
"107 116 CURVE",
"114 76 OFFCURVE",
"150 -4 OFFCURVE",
"198 -4 CURVE SMOOTH",
"244 -4 OFFCURVE",
"258 43 OFFCURVE",
"270 78 CURVE SMOOTH",
"271 81 OFFCURVE",
"272 84 OFFCURVE",
"272 87 CURVE SMOOTH",
"272 88 OFFCURVE",
"272 94 OFFCURVE",
"269 94 CURVE SMOOTH",
"261 94 OFFCURVE",
"243 25 OFFCURVE",
"209 25 CURVE SMOOTH",
"175 25 OFFCURVE",
"139 110 OFFCURVE",
"131 139 CURVE",
"173 176 OFFCURVE",
"231 215 OFFCURVE",
"280 244 CURVE SMOOTH",
"290 249 OFFCURVE",
"325 269 OFFCURVE",
"325 283 CURVE SMOOTH",
"325 291 OFFCURVE",
"313 292 OFFCURVE",
"308 292 CURVE SMOOTH",
"302 292 OFFCURVE",
"296 291 OFFCURVE",
"290 288 CURVE SMOOTH",
"247 265 OFFCURVE",
"164 191 OFFCURVE",
"126 156 CURVE"
);
}
);
width = 256;
}
);
note = k;
unicode = 006B;
},
{
glyphname = kgreenlandic;
lastChange = "2021-05-05 20:04:09 +0000";
layers = (
{
hints = (
{
horizontal = 1;
place = "{-33, 16}";
type = Stem;
},
{
horizontal = 1;
place = "{480, 16}";
type = Stem;
},
{
place = "{83, 43}";
type = Stem;
}
);
layerId = "5758FC1C-8DB2-4040-8B3F-38A5D3FE42F4";
paths = (
{
closed = 1;
nodes = (
"126 159 LINE SMOOTH",
"126 191 OFFCURVE",
"162 254 OFFCURVE",
"177 283 CURVE",
"236 358 LINE",
"250 378 OFFCURVE",
"265 398 OFFCURVE",
"279 419 CURVE",
"279 419 OFFCURVE",
"280 421 OFFCURVE",
"280 422 CURVE SMOOTH",
"280 431 OFFCURVE",
"259 432 OFFCURVE",
"254 432 CURVE SMOOTH",
"243 432 OFFCURVE",
"219 428 OFFCURVE",
"211 420 CURVE",
"207 414 OFFCURVE",
"179 371 OFFCURVE",
"174 363 CURVE",
"173 360 OFFCURVE",
"172 358 OFFCURVE",
"172 355 CURVE SMOOTH",
"172 350 OFFCURVE",
"173 345 OFFCURVE",
"175 341 CURVE",
"109 217 LINE",
"97 214 OFFCURVE",
"78 208 OFFCURVE",
"78 191 CURVE SMOOTH",
"78 184 OFFCURVE",
"83 168 OFFCURVE",
"84 160 CURVE",
"59 115 OFFCURVE",
"37 68 OFFCURVE",
"13 21 CURVE SMOOTH",
"7 11 OFFCURVE",
"0 1 OFFCURVE",
"-7 -10 CURVE",
"-7 -14 OFFCURVE",
"-4 -15 OFFCURVE",
"-1 -15 CURVE SMOOTH",
"26 -15 OFFCURVE",
"60 17 OFFCURVE",
"60 44 CURVE SMOOTH",
"60 46 OFFCURVE",
"59 48 OFFCURVE",
"59 50 CURVE",
"73 73 OFFCURVE",
"89 96 OFFCURVE",
"107 116 CURVE",
"114 76 OFFCURVE",
"150 -4 OFFCURVE",
"198 -4 CURVE SMOOTH",
"244 -4 OFFCURVE",
"258 43 OFFCURVE",
"270 78 CURVE SMOOTH",
"271 81 OFFCURVE",
"272 84 OFFCURVE",
"272 87 CURVE SMOOTH",
"272 88 OFFCURVE",
"272 94 OFFCURVE",
"269 94 CURVE SMOOTH",
"261 94 OFFCURVE",
"243 25 OFFCURVE",
"209 25 CURVE SMOOTH",
"175 25 OFFCURVE",
"139 110 OFFCURVE",
"131 139 CURVE",
"173 176 OFFCURVE",
"231 215 OFFCURVE",
"280 244 CURVE SMOOTH",
"290 249 OFFCURVE",
"325 269 OFFCURVE",
"325 283 CURVE SMOOTH",
"325 291 OFFCURVE",
"313 292 OFFCURVE",
"308 292 CURVE SMOOTH",
"302 292 OFFCURVE",
"296 291 OFFCURVE",
"290 288 CURVE SMOOTH",
"247 265 OFFCURVE",
"164 191 OFFCURVE",
"126 156 CURVE"
);
}
);
width = 256;
}
);
unicode = 0138;
},
{
glyphname = l;
layers = (
{
hints = (
{
horizontal = 1;
place = "{1, 30}";
type = Stem;
},
{
horizontal = 1;
place = "{498, 16}";
type = Stem;
}
);
layerId = "5758FC1C-8DB2-4040-8B3F-38A5D3FE42F4";
paths = (
{
closed = 1;
nodes = (
"69 75 OFFCURVE",
"87 115 OFFCURVE",
"99 138 CURVE SMOOTH",
"160 262 OFFCURVE",
"227 383 OFFCURVE",
"304 499 CURVE SMOOTH",
"325 530 OFFCURVE",
"347 561 OFFCURVE",
"369 592 CURVE",
"370 592 OFFCURVE",
"370 594 OFFCURVE",
"370 595 CURVE SMOOTH",
"370 604 OFFCURVE",
"350 605 OFFCURVE",
"344 605 CURVE SMOOTH",
"333 605 OFFCURVE",
"309 601 OFFCURVE",
"302 593 CURVE SMOOTH",
"297 588 OFFCURVE",
"269 544 OFFCURVE",
"264 536 CURVE",
"263 533 OFFCURVE",
"263 531 OFFCURVE",
"263 528 CURVE SMOOTH",
"263 523 OFFCURVE",
"264 518 OFFCURVE",
"265 514 CURVE",
"181 390 OFFCURVE",
"84 222 OFFCURVE",
"30 82 CURVE SMOOTH",
"24 66 OFFCURVE",
"17 44 OFFCURVE",
"17 27 CURVE SMOOTH",
"17 8 OFFCURVE",
"26 -2 OFFCURVE",
"45 -2 CURVE SMOOTH",
"52 -2 OFFCURVE",
"58 -1 OFFCURVE",
"64 0 CURVE SMOOTH",
"99 8 OFFCURVE",
"150 37 OFFCURVE",
"174 65 CURVE SMOOTH",
"178 70 OFFCURVE",
"184 80 OFFCURVE",
"184 86 CURVE SMOOTH",
"184 88 OFFCURVE",
"184 90 OFFCURVE",
"182 90 CURVE SMOOTH",
"175 90 OFFCURVE",
"119 31 OFFCURVE",
"84 31 CURVE SMOOTH",
"72 31 OFFCURVE",
"69 39 OFFCURVE",
"69 50 CURVE SMOOTH"
);
}
);
width = 177;
}
);
note = l;
unicode = 006C;
},
{
glyphname = m;
layers = (
{
hints = (
{
horizontal = 1;
place = "{-15, 16}";
type = Stem;
},
{
horizontal = 1;
place = "{295, 16}";
type = Stem;
},
{
place = "{38, 57}";
type = Stem;
},
{
place = "{273, 36}";
type = Stem;
}
);
layerId = "5758FC1C-8DB2-4040-8B3F-38A5D3FE42F4";
paths = (
{
closed = 1;
nodes = (
"504 87 OFFCURVE",
"454 26 OFFCURVE",
"417 26 CURVE SMOOTH",
"392 26 OFFCURVE",
"389 61 OFFCURVE",
"389 79 CURVE SMOOTH",
"389 109 OFFCURVE",
"395 140 OFFCURVE",
"402 168 CURVE",
"414 174 OFFCURVE",
"425 210 OFFCURVE",
"425 223 CURVE SMOOTH",
"425 238 OFFCURVE",
"419 243 OFFCURVE",
"404 243 CURVE SMOOTH",
"394 243 OFFCURVE",
"391 241 OFFCURVE",
"385 233 CURVE SMOOTH",
"356 191 OFFCURVE",
"299 136 OFFCURVE",
"260 102 CURVE",
"276 138 OFFCURVE",
"307 217 OFFCURVE",
"307 255 CURVE SMOOTH",
"307 264 OFFCURVE",
"305 277 OFFCURVE",
"293 277 CURVE SMOOTH",
"257 277 OFFCURVE",
"132 146 OFFCURVE",
"105 113 CURVE",
"113 142 OFFCURVE",
"175 279 OFFCURVE",
"175 286 CURVE SMOOTH",
"175 292 OFFCURVE",
"171 295 OFFCURVE",
"165 295 CURVE SMOOTH",
"155 295 OFFCURVE",
"131 285 OFFCURVE",
"126 277 CURVE SMOOTH",
"122 270 OFFCURVE",
"89 219 OFFCURVE",
"89 216 CURVE SMOOTH",
"89 211 OFFCURVE",
"100 215 OFFCURVE",
"100 211 CURVE",
"89 182 LINE SMOOTH",
"63 117 OFFCURVE",
"39 51 OFFCURVE",
"3 -10 CURVE",
"3 -14 OFFCURVE",
"6 -15 OFFCURVE",
"9 -15 CURVE SMOOTH",
"20 -15 OFFCURVE",
"56 2 OFFCURVE",
"61 12 CURVE SMOOTH",
"70 29 OFFCURVE",
"79 44 OFFCURVE",
"90 60 CURVE SMOOTH",
"108 87 OFFCURVE",
"217 229 OFFCURVE",
"246 229 CURVE SMOOTH",
"252 229 OFFCURVE",
"252 222 OFFCURVE",
"252 218 CURVE SMOOTH",
"252 170 OFFCURVE",
"198 63 OFFCURVE",
"180 13 CURVE",
"179 13 OFFCURVE",
"179 11 OFFCURVE",
"179 11 CURVE",
"179 7 OFFCURVE",
"185 6 OFFCURVE",
"187 6 CURVE SMOOTH",
"222 6 OFFCURVE",
"250 46 OFFCURVE",
"259 76 CURVE",
"298 112 OFFCURVE",
"337 151 OFFCURVE",
"371 193 CURVE",
"357 155 OFFCURVE",
"342 112 OFFCURVE",
"342 71 CURVE SMOOTH",
"342 32 OFFCURVE",
"357 0 OFFCURVE",
"401 0 CURVE SMOOTH",
"442 0 OFFCURVE",
"488 38 OFFCURVE",
"508 71 CURVE SMOOTH",
"510 74 OFFCURVE",
"514 81 OFFCURVE",
"514 85 CURVE SMOOTH",
"514 86 OFFCURVE",
"514 87 OFFCURVE",
"512 87 CURVE SMOOTH"
);
}
);
width = 472;
}
);
note = m;
unicode = 006D;
},
{
glyphname = n;
layers = (
{
hints = (
{
horizontal = 1;
place = "{-15, 16}";
type = Stem;
},
{
horizontal = 1;
place = "{295, 16}";
type = Stem;
},
{
place = "{44, 62}";
type = Stem;
},
{
place = "{147, 42}";
type = Stem;
}
);
layerId = "5758FC1C-8DB2-4040-8B3F-38A5D3FE42F4";
paths = (
{
closed = 1;
nodes = (
"388 87 OFFCURVE",
"338 26 OFFCURVE",
"301 26 CURVE SMOOTH",
"277 26 OFFCURVE",
"272 46 OFFCURVE",
"272 66 CURVE SMOOTH",
"272 106 OFFCURVE",
"292 167 OFFCURVE",
"303 207 CURVE SMOOTH",
"308 224 OFFCURVE",
"313 243 OFFCURVE",
"313 261 CURVE SMOOTH",
"313 268 OFFCURVE",
"312 278 OFFCURVE",
"302 278 CURVE SMOOTH",
"266 278 OFFCURVE",
"140 146 OFFCURVE",
"112 113 CURVE",
"122 133 OFFCURVE",
"191 275 OFFCURVE",
"191 286 CURVE SMOOTH",
"191 292 OFFCURVE",
"186 295 OFFCURVE",
"181 295 CURVE SMOOTH",
"171 295 OFFCURVE",
"147 285 OFFCURVE",
"141 277 CURVE SMOOTH",
"137 270 OFFCURVE",
"105 219 OFFCURVE",
"105 216 CURVE SMOOTH",
"105 211 OFFCURVE",
"115 215 OFFCURVE",
"115 211 CURVE SMOOTH",
"115 210 OFFCURVE",
"107 191 OFFCURVE",
"107 189 CURVE",
"79 121 OFFCURVE",
"48 54 OFFCURVE",
"11 -10 CURVE",
"10 -14 OFFCURVE",
"14 -15 OFFCURVE",
"17 -15 CURVE SMOOTH",
"28 -15 OFFCURVE",
"64 2 OFFCURVE",
"69 12 CURVE SMOOTH",
"98 70 OFFCURVE",
"179 173 OFFCURVE",
"230 215 CURVE SMOOTH",
"235 219 OFFCURVE",
"247 229 OFFCURVE",
"254 229 CURVE SMOOTH",
"258 229 OFFCURVE",
"259 224 OFFCURVE",
"259 221 CURVE SMOOTH",
"259 210 OFFCURVE",
"253 193 OFFCURVE",
"250 183 CURVE SMOOTH",
"240 148 OFFCURVE",
"224 102 OFFCURVE",
"224 67 CURVE SMOOTH",
"224 27 OFFCURVE",
"244 0 OFFCURVE",
"286 0 CURVE SMOOTH",
"326 0 OFFCURVE",
"372 38 OFFCURVE",
"393 71 CURVE SMOOTH",
"395 74 OFFCURVE",
"398 81 OFFCURVE",
"398 85 CURVE SMOOTH",
"398 86 OFFCURVE",
"398 87 OFFCURVE",
"397 87 CURVE SMOOTH"
);
}
);
width = 356;
}
);
note = n;
unicode = 006E;
},
{
color = 3;
glyphname = eng;
lastChange = "2021-05-05 19:46:58 +0000";
layers = (
{
hints = (
{
horizontal = 1;
place = "{-15, 16}";
type = Stem;
},
{
horizontal = 1;
place = "{295, 16}";
type = Stem;
},
{
place = "{44, 62}";
type = Stem;
},
{
place = "{147, 42}";
type = Stem;
},
{
place = "{-392, 16}";
type = Stem;
},
{
place = "{-135, 67}";
type = Stem;
}
);
layerId = "5758FC1C-8DB2-4040-8B3F-38A5D3FE42F4";
paths = (
{
closed = 1;
nodes = (
"314 268 OFFCURVE",
"312 278 OFFCURVE",
"302 278 CURVE SMOOTH",
"266 278 OFFCURVE",
"140 146 OFFCURVE",
"112 113 CURVE",
"122 133 OFFCURVE",
"191 275 OFFCURVE",
"191 286 CURVE SMOOTH",
"191 292 OFFCURVE",
"186 295 OFFCURVE",
"181 295 CURVE SMOOTH",
"171 295 OFFCURVE",
"147 285 OFFCURVE",
"141 277 CURVE SMOOTH",
"137 270 OFFCURVE",
"105 219 OFFCURVE",
"105 216 CURVE SMOOTH",
"105 211 OFFCURVE",
"115 215 OFFCURVE",
"115 211 CURVE SMOOTH",
"115 210 OFFCURVE",
"107 191 OFFCURVE",
"107 189 CURVE",
"79 121 OFFCURVE",
"48 54 OFFCURVE",
"11 -10 CURVE",
"10 -14 OFFCURVE",
"14 -15 OFFCURVE",
"17 -15 CURVE SMOOTH",
"28 -15 OFFCURVE",
"64 2 OFFCURVE",
"69 12 CURVE SMOOTH",
"98 70 OFFCURVE",
"179 173 OFFCURVE",
"230 215 CURVE SMOOTH",
"235 219 OFFCURVE",
"247 229 OFFCURVE",
"254 229 CURVE SMOOTH",
"258 229 OFFCURVE",
"259 224 OFFCURVE",
"259 221 CURVE",
"222 78 OFFCURVE",
"149 -212 OFFCURVE",
"14 -212 CURVE SMOOTH",
"-13 -212 OFFCURVE",
"-37 -194 OFFCURVE",
"-26 -152 CURVE SMOOTH",
"-20 -130 OFFCURVE",
"0 -111 OFFCURVE",
"21 -95 CURVE SMOOTH",
"41 -80 OFFCURVE",
"37 -70 OFFCURVE",
"11 -81 CURVE",
"-15 -99 OFFCURVE",
"-38 -122 OFFCURVE",
"-47 -148 CURVE SMOOTH",
"-67 -206 OFFCURVE",
"-21 -230 OFFCURVE",
"15 -230 CURVE SMOOTH",
"178 -230 OFFCURVE",
"274 70 OFFCURVE",
"313 261 CURVE SMOOTH"
);
}
);
width = 318;
}
);
unicode = 014B;
},
